STARTFONT 2.1
FONT -HP-Pilgi-Bold-R-Normal--16-160-75-75-C-160-KSC5601.1987-1
SIZE 16 75 75
FONTBOUNDINGBOX 16 16 0 -1

STARTPROPERTIES 23
FONTNAME_REGISTRY ""
FOUNDRY "HP"
FAMILY_NAME "Pilgi"
WEIGHT_NAME "Bold"
SLANT "R"
SETWIDTH_NAME "Normal"
ADD_STYLE_NAME ""
PIXEL_SIZE 16
POINT_SIZE 160
RESOLUTION_X 75
RESOLUTION_Y 75
SPACING "C"
AVERAGE_WIDTH 160
CHARSET_REGISTRY "KSC5601.1987"
CHARSET_ENCODING "1"
COPYRIGHT "Copyright (c) 1994 Samsung Hewlett-Packard Company."
WEIGHT 21176
X_HEIGHT 15
QUAD_WIDTH 16
_HP_ASXVERSION "@(#) ASX 3.00 $Revision: 13.9 $ pilB16h"
DEFAULT_CHAR 41702
FONT_DESCENT 1
FONT_ASCENT 15
ENDPROPERTIES

CHARS 8225

STARTCHAR kor_A1A1
ENCODING 41377
SWIDTH 803 0
DWIDTH 16 0
BBX 16 16 0 -1
BITMAP
0000
0000
0000
0000
0000
0000
0000
0000
0000
0000
0000
0000
0000
0000
0000
0000
ENDCHAR

STARTCHAR kor_A1A2
ENCODING 41378
SWIDTH 803 0
DWIDTH 16 0
BBX 16 16 0 -1
BITMAP
0000
6000
3000
3800
1800
0000
0000
0000
0000
0000
0000
0000
0000
0000
0000
0000
ENDCHAR

STARTCHAR kor_A1A3
ENCODING 41379
SWIDTH 803 0
DWIDTH 16 0
BBX 16 16 0 -1
BITMAP
0000
000E
001B
001B
000E
0000
0000
0000
0000
0000
0000
0000
0000
0000
0000
0000
ENDCHAR

STARTCHAR kor_A1A4
ENCODING 41380
SWIDTH 803 0
DWIDTH 16 0
BBX 16 16 0 -1
BITMAP
0000
0000
0000
0000
0000
0000
0000
01C0
01C0
0000
0000
0000
0000
0000
0000
0000
ENDCHAR

STARTCHAR kor_A1A5
ENCODING 41381
SWIDTH 803 0
DWIDTH 16 0
BBX 16 16 0 -1
BITMAP
0000
0000
0000
0000
0000
0000
0000
0E70
0E70
0000
0000
0000
0000
0000
0000
0000
ENDCHAR

STARTCHAR kor_A1A6
ENCODING 41382
SWIDTH 803 0
DWIDTH 16 0
BBX 16 16 0 -1
BITMAP
0000
0000
0000
0000
0000
0000
0000
1DDC
1DDC
0000
0000
0000
0000
0000
0000
0000
ENDCHAR

STARTCHAR kor_A1A7
ENCODING 41383
SWIDTH 803 0
DWIDTH 16 0
BBX 16 16 0 -1
BITMAP
0000
0000
0E70
0E70
0000
0000
0000
0000
0000
0000
0000
0000
0000
0000
0000
0000
ENDCHAR

STARTCHAR kor_A1A8
ENCODING 41384
SWIDTH 803 0
DWIDTH 16 0
BBX 16 16 0 -1
BITMAP
0000
0000
0000
0000
0000
0330
03B8
0770
0660
0CC0
0000
0000
0000
0000
0000
0000
ENDCHAR

STARTCHAR kor_A1A9
ENCODING 41385
SWIDTH 803 0
DWIDTH 16 0
BBX 16 16 0 -1
BITMAP
0000
0000
0000
0000
0000
0000
0000
03F0
0000
0000
0000
0000
0000
0000
0000
0000
ENDCHAR

STARTCHAR kor_A1AA
ENCODING 41386
SWIDTH 803 0
DWIDTH 16 0
BBX 16 16 0 -1
BITMAP
0000
0000
0000
0000
0000
0000
0000
FFFF
0000
0000
0000
0000
0000
0000
0000
0000
ENDCHAR

STARTCHAR kor_A1AB
ENCODING 41387
SWIDTH 803 0
DWIDTH 16 0
BBX 16 16 0 -1
BITMAP
0660
0660
0660
0660
0660
0660
0660
0660
0660
0660
0660
0660
0660
0660
0660
0660
ENDCHAR

STARTCHAR kor_A1AC
ENCODING 41388
SWIDTH 803 0
DWIDTH 16 0
BBX 16 16 0 -1
BITMAP
C000
6000
3000
1800
0C00
0600
0300
0180
0180
00C0
0060
0030
0018
000C
0006
0003
ENDCHAR

STARTCHAR kor_A1AD
ENCODING 41389
SWIDTH 803 0
DWIDTH 16 0
BBX 16 16 0 -1
BITMAP
0000
0000
0000
0000
0000
0000
0F00
1986
30CC
0078
0000
0000
0000
0000
0000
0000
ENDCHAR

STARTCHAR kor_A1AE
ENCODING 41390
SWIDTH 803 0
DWIDTH 16 0
BBX 16 16 0 -1
BITMAP
0003
0006
000C
000E
000E
0000
0000
0000
0000
0000
0000
0000
0000
0000
0000
0000
ENDCHAR

STARTCHAR kor_A1AF
ENCODING 41391
SWIDTH 803 0
DWIDTH 16 0
BBX 16 16 0 -1
BITMAP
3800
3800
1800
3000
6000
0000
0000
0000
0000
0000
0000
0000
0000
0000
0000
0000
ENDCHAR

STARTCHAR kor_A1B0
ENCODING 41392
SWIDTH 803 0
DWIDTH 16 0
BBX 16 16 0 -1
BITMAP
001B
0036
006C
006E
006E
0000
0000
0000
0000
0000
0000
0000
0000
0000
0000
0000
ENDCHAR

STARTCHAR kor_A1B1
ENCODING 41393
SWIDTH 803 0
DWIDTH 16 0
BBX 16 16 0 -1
BITMAP
3700
3700
1B00
3600
6C00
0000
0000
0000
0000
0000
0000
0000
0000
0000
0000
0000
ENDCHAR

STARTCHAR kor_A1B2
ENCODING 41394
SWIDTH 803 0
DWIDTH 16 0
BBX 16 16 0 -1
BITMAP
0006
000C
0018
0030
0030
0030
0030
0030
0030
0030
0030
0030
0030
0018
000C
0006
ENDCHAR

STARTCHAR kor_A1B3
ENCODING 41395
SWIDTH 803 0
DWIDTH 16 0
BBX 16 16 0 -1
BITMAP
3000
1800
0C00
0600
0600
0600
0600
0600
0600
0600
0600
0600
0600
0C00
1800
3000
ENDCHAR

STARTCHAR kor_A1B4
ENCODING 41396
SWIDTH 803 0
DWIDTH 16 0
BBX 16 16 0 -1
BITMAP
0000
0006
000C
0018
0030
0060
00C0
0180
0300
0180
00C0
0060
0030
0018
000C
0006
ENDCHAR

STARTCHAR kor_A1B5
ENCODING 41397
SWIDTH 803 0
DWIDTH 16 0
BBX 16 16 0 -1
BITMAP
0000
3000
1800
0C00
0600
0300
0180
00C0
0060
00C0
0180
0300
0600
0C00
1800
3000
ENDCHAR

STARTCHAR kor_A1B6
ENCODING 41398
SWIDTH 803 0
DWIDTH 16 0
BBX 16 16 0 -1
BITMAP
0000
0016
002C
002C
0058
00B0
00B0
0160
02C0
0160
00B0
00B0
0058
002C
002C
0016
ENDCHAR

STARTCHAR kor_A1B7
ENCODING 41399
SWIDTH 803 0
DWIDTH 16 0
BBX 16 16 0 -1
BITMAP
0000
2C00
1600
1600
0B00
0580
0580
02C0
0160
02C0
0580
0580
0B00
1600
1600
2C00
ENDCHAR

STARTCHAR kor_A1B8
ENCODING 41400
SWIDTH 803 0
DWIDTH 16 0
BBX 16 16 0 -1
BITMAP
0000
003F
0030
0030
0030
0030
0030
0030
0000
0000
0000
0000
0000
0000
0000
0000
ENDCHAR

STARTCHAR kor_A1B9
ENCODING 41401
SWIDTH 803 0
DWIDTH 16 0
BBX 16 16 0 -1
BITMAP
0000
0000
0000
0000
0000
0000
0000
0000
0600
0600
0600
0600
0600
0600
7E00
0000
ENDCHAR

STARTCHAR kor_A1BA
ENCODING 41402
SWIDTH 803 0
DWIDTH 16 0
BBX 16 16 0 -1
BITMAP
0000
003F
003F
0038
0038
0038
0038
0038
0038
0000
0000
0000
0000
0000
0000
0000
ENDCHAR

STARTCHAR kor_A1BB
ENCODING 41403
SWIDTH 803 0
DWIDTH 16 0
BBX 16 16 0 -1
BITMAP
0000
0000
0000
0000
0000
0000
0000
0E00
0E00
0E00
0E00
0E00
0E00
7E00
7E00
0000
ENDCHAR

STARTCHAR kor_A1BC
ENCODING 41404
SWIDTH 803 0
DWIDTH 16 0
BBX 16 16 0 -1
BITMAP
0000
001F
001E
001C
001C
0018
0018
0018
0018
0018
0018
0018
001C
001C
001E
001F
ENDCHAR

STARTCHAR kor_A1BD
ENCODING 41405
SWIDTH 803 0
DWIDTH 16 0
BBX 16 16 0 -1
BITMAP
0000
7C00
3C00
1C00
1C00
0C00
0C00
0C00
0C00
0C00
0C00
0C00
1C00
1C00
3C00
7C00
ENDCHAR

STARTCHAR kor_A1BE
ENCODING 41406
SWIDTH 803 0
DWIDTH 16 0
BBX 16 16 0 -1
BITMAP
0000
0000
0180
0180
0180
0180
1FF8
0180
0180
0180
0180
0000
1FF8
0000
0000
0000
ENDCHAR

STARTCHAR kor_A1BF
ENCODING 41407
SWIDTH 803 0
DWIDTH 16 0
BBX 16 16 0 -1
BITMAP
0000
0000
0000
0000
1818
0C30
0660
02C0
0180
02C0
0660
0C30
1818
0000
0000
0000
ENDCHAR

STARTCHAR kor_A1C0
ENCODING 41408
SWIDTH 803 0
DWIDTH 16 0
BBX 16 16 0 -1
BITMAP
0000
0000
0000
01C0
01C0
0000
0000
1FFC
0000
0000
01C0
01C0
0000
0000
0000
0000
ENDCHAR

STARTCHAR kor_A1C1
ENCODING 41409
SWIDTH 803 0
DWIDTH 16 0
BBX 16 16 0 -1
BITMAP
0000
0000
0C00
0600
0300
1FFC
0180
00C0
1FFC
0060
0030
0018
0000
0000
0000
0000
ENDCHAR

STARTCHAR kor_A1C2
ENCODING 41410
SWIDTH 803 0
DWIDTH 16 0
BBX 16 16 0 -1
BITMAP
0000
0000
001C
0070
01C0
0700
1C00
0700
01C0
0070
001C
0000
0000
3FFE
0000
0000
ENDCHAR

STARTCHAR kor_A1C3
ENCODING 41411
SWIDTH 803 0
DWIDTH 16 0
BBX 16 16 0 -1
BITMAP
0000
0000
1C00
0700
01C0
0070
001C
0070
01C0
0700
1C00
0000
0000
3FFE
0000
0000
ENDCHAR

STARTCHAR kor_A1C4
ENCODING 41412
SWIDTH 803 0
DWIDTH 16 0
BBX 16 16 0 -1
BITMAP
0000
0000
0000
0000
1E78
32CC
6186
6186
32CC
1E78
0000
0000
0000
0000
0000
0000
ENDCHAR

STARTCHAR kor_A1C5
ENCODING 41413
SWIDTH 803 0
DWIDTH 16 0
BBX 16 16 0 -1
BITMAP
0000
0000
0000
01C0
01C0
0000
0000
0000
0000
0000
1C1C
1C1C
0000
0000
0000
0000
ENDCHAR

STARTCHAR kor_A1C6
ENCODING 41414
SWIDTH 803 0
DWIDTH 16 0
BBX 16 16 0 -1
BITMAP
0000
3800
6C00
6C00
3800
0000
0000
0000
0000
0000
0000
0000
0000
0000
0000
0000
ENDCHAR

STARTCHAR kor_A1C7
ENCODING 41415
SWIDTH 803 0
DWIDTH 16 0
BBX 16 16 0 -1
BITMAP
0000
1800
1800
3000
3000
6000
0000
0000
0000
0000
0000
0000
0000
0000
0000
0000
ENDCHAR

STARTCHAR kor_A1C8
ENCODING 41416
SWIDTH 803 0
DWIDTH 16 0
BBX 16 16 0 -1
BITMAP
0000
2C00
2C00
5800
5800
B000
0000
0000
0000
0000
0000
0000
0000
0000
0000
0000
ENDCHAR

STARTCHAR kor_A1C9
ENCODING 41417
SWIDTH 803 0
DWIDTH 16 0
BBX 16 16 0 -1
BITMAP
0000
3800
6CF6
6D8E
3B06
0600
0600
0600
0600
0600
0600
0306
018C
00F8
0000
0000
ENDCHAR

STARTCHAR kor_A1CA
ENCODING 41418
SWIDTH 803 0
DWIDTH 16 0
BBX 16 16 0 -1
BITMAP
0000
03C0
0660
0660
0560
03C0
02C0
0660
0660
0FF0
1818
1818
300C
300C
0000
0000
ENDCHAR

STARTCHAR kor_A1CB
ENCODING 41419
SWIDTH 803 0
DWIDTH 16 0
BBX 16 16 0 -1
BITMAP
0000
0180
0180
07D8
0DB8
1998
1980
1980
1980
1980
1998
0DB0
07E0
0180
0180
0000
ENDCHAR

STARTCHAR kor_A1CC
ENCODING 41420
SWIDTH 803 0
DWIDTH 16 0
BBX 16 16 0 -1
BITMAP
0000
0000
0038
006C
00CC
00CC
0198
3FE0
0180
0300
1F00
3300
3586
1CFC
0000
0000
ENDCHAR

STARTCHAR kor_A1CD
ENCODING 41421
SWIDTH 803 0
DWIDTH 16 0
BBX 16 16 0 -1
BITMAP
0000
0000
0000
3E7C
0C30
0660
02C0
3FFC
0180
3FFC
0180
0180
0180
07E0
0000
0000
ENDCHAR

STARTCHAR kor_A1CE
ENCODING 41422
SWIDTH 803 0
DWIDTH 16 0
BBX 16 16 0 -1
BITMAP
0000
0180
03C0
0560
0DB0
1998
0180
03C0
0660
0C30
0C30
0C30
0660
03C0
0000
0000
ENDCHAR

STARTCHAR kor_A1CF
ENCODING 41423
SWIDTH 803 0
DWIDTH 16 0
BBX 16 16 0 -1
BITMAP
0000
0000
03C0
0660
0C30
0C30
0C30
0660
03C0
0180
0180
1FF8
0180
0180
0000
0000
ENDCHAR

STARTCHAR kor_A1D0
ENCODING 41424
SWIDTH 803 0
DWIDTH 16 0
BBX 16 16 0 -1
BITMAP
0000
0000
0000
0030
0060
00C0
0180
0300
0600
0C00
1FFC
0000
0000
0000
0000
0000
ENDCHAR

STARTCHAR kor_A1D1
ENCODING 41425
SWIDTH 803 0
DWIDTH 16 0
BBX 16 16 0 -1
BITMAP
0000
0000
0000
0000
0180
0180
0180
0180
0180
0180
3FFC
0000
0000
0000
0000
0000
ENDCHAR

STARTCHAR kor_A1D2
ENCODING 41426
SWIDTH 803 0
DWIDTH 16 0
BBX 16 16 0 -1
BITMAP
0000
0000
0000
0000
0000
0000
0000
0FF8
180C
3006
0000
0000
0000
0000
0000
0000
ENDCHAR

STARTCHAR kor_A1D3
ENCODING 41427
SWIDTH 803 0
DWIDTH 16 0
BBX 16 16 0 -1
BITMAP
0000
03E0
0630
0018
0018
0018
03D8
0618
0C30
0C30
1830
1860
1860
18C0
0F80
0000
ENDCHAR

STARTCHAR kor_A1D4
ENCODING 41428
SWIDTH 803 0
DWIDTH 16 0
BBX 16 16 0 -1
BITMAP
0000
0000
0000
3FFC
300C
1818
0C30
0C30
0660
02C0
02C0
0180
0180
0000
0000
0000
ENDCHAR

STARTCHAR kor_A1D5
ENCODING 41429
SWIDTH 803 0
DWIDTH 16 0
BBX 16 16 0 -1
BITMAP
0000
0000
0000
0000
1FF8
0000
0000
1FF8
0000
0000
1FF8
0000
0000
0000
0000
0000
ENDCHAR

STARTCHAR kor_A1D6
ENCODING 41430
SWIDTH 803 0
DWIDTH 16 0
BBX 16 16 0 -1
BITMAP
0000
0000
0000
0E00
0E00
0000
1FF8
0000
0000
1FF8
0000
0070
0070
0000
0000
0000
ENDCHAR

STARTCHAR kor_A1D7
ENCODING 41431
SWIDTH 803 0
DWIDTH 16 0
BBX 16 16 0 -1
BITMAP
0000
03C0
0660
0600
0600
0380
02C0
0660
0660
06C0
0380
00C0
0060
0060
0660
03C0
ENDCHAR

STARTCHAR kor_A1D8
ENCODING 41432
SWIDTH 803 0
DWIDTH 16 0
BBX 16 16 0 -1
BITMAP
0000
0000
31C6
19CC
0C18
0630
0360
39CE
39CE
0360
0630
0C18
19CC
31C6
0000
0000
ENDCHAR

STARTCHAR kor_A1D9
ENCODING 41433
SWIDTH 803 0
DWIDTH 16 0
BBX 16 16 0 -1
BITMAP
0000
0000
0180
0180
02C0
02C0
0660
FE7F
700E
1C38
0C30
1998
16D8
3C3C
300C
0000
ENDCHAR

STARTCHAR kor_A1DA
ENCODING 41434
SWIDTH 803 0
DWIDTH 16 0
BBX 16 16 0 -1
BITMAP
0000
0000
0180
0180
03C0
03C0
07E0
FFFF
7FFE
1FF8
0FF0
1FF8
1EF8
3C3C
300C
0000
ENDCHAR

STARTCHAR kor_A1DB
ENCODING 41435
SWIDTH 803 0
DWIDTH 16 0
BBX 16 16 0 -1
BITMAP
0000
03E0
0E38
180C
3006
3006
6003
6003
6003
6003
3006
3006
180C
0E38
03E0
0000
ENDCHAR

STARTCHAR kor_A1DC
ENCODING 41436
SWIDTH 803 0
DWIDTH 16 0
BBX 16 16 0 -1
BITMAP
0000
03E0
0FF8
1FFC
3FFE
3FFE
7FFF
7FFF
7FFF
7FFF
3FFE
3FFE
1FFC
0FF8
03E0
0000
ENDCHAR

STARTCHAR kor_A1DD
ENCODING 41437
SWIDTH 803 0
DWIDTH 16 0
BBX 16 16 0 -1
BITMAP
0000
03E0
0E38
180C
31C6
3776
6633
6C1B
6C1B
6633
3776
31C6
180C
0E38
03E0
0000
ENDCHAR

STARTCHAR kor_A1DE
ENCODING 41438
SWIDTH 803 0
DWIDTH 16 0
BBX 16 16 0 -1
BITMAP
0000
0180
02C0
0660
0C30
1818
300C
6006
300C
1818
0C30
0660
02C0
0180
0000
0000
ENDCHAR

STARTCHAR kor_A1DF
ENCODING 41439
SWIDTH 803 0
DWIDTH 16 0
BBX 16 16 0 -1
BITMAP
0000
0180
03C0
07E0
0FF0
1FF8
3FFC
7FFE
3FFC
1FF8
0FF0
07E0
03C0
0180
0000
0000
ENDCHAR

STARTCHAR kor_A1E0
ENCODING 41440
SWIDTH 803 0
DWIDTH 16 0
BBX 16 16 0 -1
BITMAP
0000
0000
3FFE
3006
3006
3006
3006
3006
3006
3006
3006
3006
3006
3FFE
0000
0000
ENDCHAR

STARTCHAR kor_A1E1
ENCODING 41441
SWIDTH 803 0
DWIDTH 16 0
BBX 16 16 0 -1
BITMAP
0000
0000
3FFE
3FFE
3FFE
3FFE
3FFE
3FFE
3FFE
3FFE
3FFE
3FFE
3FFE
3FFE
0000
0000
ENDCHAR

STARTCHAR kor_A1E2
ENCODING 41442
SWIDTH 803 0
DWIDTH 16 0
BBX 16 16 0 -1
BITMAP
0000
0000
0180
0180
02C0
02C0
0660
0660
0C30
0C30
1818
1818
300C
3FFC
0000
0000
ENDCHAR

STARTCHAR kor_A1E3
ENCODING 41443
SWIDTH 803 0
DWIDTH 16 0
BBX 16 16 0 -1
BITMAP
0000
0000
0180
0180
03C0
03C0
07E0
07E0
0FF0
0FF0
1FF8
1FF8
3FFC
3FFC
0000
0000
ENDCHAR

STARTCHAR kor_A1E4
ENCODING 41444
SWIDTH 803 0
DWIDTH 16 0
BBX 16 16 0 -1
BITMAP
0000
0000
3FFC
300C
1818
1818
0C30
0C30
0660
0660
02C0
02C0
0180
0180
0000
0000
ENDCHAR

STARTCHAR kor_A1E5
ENCODING 41445
SWIDTH 803 0
DWIDTH 16 0
BBX 16 16 0 -1
BITMAP
0000
0000
3FFC
3FFC
1FD8
1FF8
0FF0
0FF0
07E0
07E0
03C0
03C0
0180
0180
0000
0000
ENDCHAR

STARTCHAR kor_A1E6
ENCODING 41446
SWIDTH 803 0
DWIDTH 16 0
BBX 16 16 0 -1
BITMAP
0000
0000
0000
0000
000C
0006
0003
7FFF
0003
0006
000C
0000
0000
0000
0000
0000
ENDCHAR

STARTCHAR kor_A1E7
ENCODING 41447
SWIDTH 803 0
DWIDTH 16 0
BBX 16 16 0 -1
BITMAP
0000
0000
0000
0000
1800
3000
6000
FFFF
6000
3000
1800
0000
0000
0000
0000
0000
ENDCHAR

STARTCHAR kor_A1E8
ENCODING 41448
SWIDTH 803 0
DWIDTH 16 0
BBX 16 16 0 -1
BITMAP
0180
03C0
0560
0DB0
1998
0180
0180
0180
0180
0180
0180
0180
0180
0180
0180
0180
ENDCHAR

STARTCHAR kor_A1E9
ENCODING 41449
SWIDTH 803 0
DWIDTH 16 0
BBX 16 16 0 -1
BITMAP
0180
0180
0180
0180
0180
0180
0180
0180
0180
0180
0180
1998
0DB0
0560
03C0
0180
ENDCHAR

STARTCHAR kor_A1EA
ENCODING 41450
SWIDTH 803 0
DWIDTH 16 0
BBX 16 16 0 -1
BITMAP
0000
0000
0000
0000
1818
300C
6006
FFFF
6006
300C
1818
0000
0000
0000
0000
0000
ENDCHAR

STARTCHAR kor_A1EB
ENCODING 41451
SWIDTH 803 0
DWIDTH 16 0
BBX 16 16 0 -1
BITMAP
0000
0000
0000
0000
0000
1FFC
1FFC
0000
0000
1FFC
1FFC
0000
0000
0000
0000
0000
ENDCHAR

STARTCHAR kor_A1EC
ENCODING 41452
SWIDTH 803 0
DWIDTH 16 0
BBX 16 16 0 -1
BITMAP
0000
0000
0000
0000
0036
00DC
01B0
06E0
1B80
06E0
01B0
00DC
0036
0000
0000
0000
ENDCHAR

STARTCHAR kor_A1ED
ENCODING 41453
SWIDTH 803 0
DWIDTH 16 0
BBX 16 16 0 -1
BITMAP
0000
0000
0000
0000
3600
1B80
06C0
0370
00DC
0370
06C0
1B80
3600
0000
0000
0000
ENDCHAR

STARTCHAR kor_A1EE
ENCODING 41454
SWIDTH 803 0
DWIDTH 16 0
BBX 16 16 0 -1
BITMAP
0000
0000
0FFF
0C00
0C00
0C00
0C00
0C00
0C00
6C00
2C00
1C00
0C00
0000
0000
0000
ENDCHAR

STARTCHAR kor_A1EF
ENCODING 41455
SWIDTH 803 0
DWIDTH 16 0
BBX 16 16 0 -1
BITMAP
0000
0000
0000
0000
0000
183C
3066
60C3
6183
3306
1E0C
0000
0000
0000
0000
0000
ENDCHAR

STARTCHAR kor_A1F0
ENCODING 41456
SWIDTH 803 0
DWIDTH 16 0
BBX 16 16 0 -1
BITMAP
0000
0000
0000
0000
000E
1F18
31B0
60E0
6060
60B0
319F
1F00
0000
0000
0000
0000
ENDCHAR

STARTCHAR kor_A1F1
ENCODING 41457
SWIDTH 803 0
DWIDTH 16 0
BBX 16 16 0 -1
BITMAP
0000
0000
0000
0000
1C1C
1C1C
0000
0000
0000
0000
01C0
01C0
0000
0000
0000
0000
ENDCHAR

STARTCHAR kor_A1F2
ENCODING 41458
SWIDTH 803 0
DWIDTH 16 0
BBX 16 16 0 -1
BITMAP
0078
00C0
0180
0180
0180
0180
0180
0180
0180
0180
0180
0180
0180
0180
0300
1E00
ENDCHAR

STARTCHAR kor_A1F3
ENCODING 41459
SWIDTH 803 0
DWIDTH 16 0
BBX 16 16 0 -1
BITMAP
00DE
01B0
0360
0360
0360
0360
0360
0360
0360
0360
0360
0360
0360
0360
06C0
3B80
ENDCHAR

STARTCHAR kor_A1F4
ENCODING 41460
SWIDTH 803 0
DWIDTH 16 0
BBX 16 16 0 -1
BITMAP
0000
0000
0000
0000
07FC
0C00
1800
1800
1FFC
1800
1800
0C00
07FC
0000
0000
0000
ENDCHAR

STARTCHAR kor_A1F5
ENCODING 41461
SWIDTH 803 0
DWIDTH 16 0
BBX 16 16 0 -1
BITMAP
0000
0000
0000
0000
1FF0
0018
000C
000C
1FFC
000C
000C
0018
1FF0
0000
0000
0000
ENDCHAR

STARTCHAR kor_A1F6
ENCODING 41462
SWIDTH 803 0
DWIDTH 16 0
BBX 16 16 0 -1
BITMAP
0000
0000
0000
07FC
0C00
1800
1800
1800
1800
0C00
07FC
0000
0000
1FFC
0000
0000
ENDCHAR

STARTCHAR kor_A1F7
ENCODING 41463
SWIDTH 803 0
DWIDTH 16 0
BBX 16 16 0 -1
BITMAP
0000
0000
0000
1FF0
0018
000C
000C
000C
000C
0018
1FF0
0000
0000
1FFC
0000
0000
ENDCHAR

STARTCHAR kor_A1F8
ENCODING 41464
SWIDTH 803 0
DWIDTH 16 0
BBX 16 16 0 -1
BITMAP
0000
0000
0000
0000
07FC
0C00
1800
1800
1800
1800
0C00
07FC
0000
0000
0000
0000
ENDCHAR

STARTCHAR kor_A1F9
ENCODING 41465
SWIDTH 803 0
DWIDTH 16 0
BBX 16 16 0 -1
BITMAP
0000
0000
0000
0000
1FF0
0018
000C
000C
000C
000C
0018
1FF0
0000
0000
0000
0000
ENDCHAR

STARTCHAR kor_A1FA
ENCODING 41466
SWIDTH 803 0
DWIDTH 16 0
BBX 16 16 0 -1
BITMAP
0000
0000
0000
1818
1818
1818
1818
1818
1818
1818
1818
0C30
07E0
0000
0000
0000
ENDCHAR

STARTCHAR kor_A1FB
ENCODING 41467
SWIDTH 803 0
DWIDTH 16 0
BBX 16 16 0 -1
BITMAP
0000
0000
0000
07E0
0C30
1818
1818
1818
1818
1818
1818
1818
1818
0000
0000
0000
ENDCHAR

STARTCHAR kor_A1FC
ENCODING 41468
SWIDTH 803 0
DWIDTH 16 0
BBX 16 16 0 -1
BITMAP
0000
0000
0000
0180
0180
02C0
02C0
0660
0660
0C30
0C30
1818
1818
0000
0000
0000
ENDCHAR

STARTCHAR kor_A1FD
ENCODING 41469
SWIDTH 803 0
DWIDTH 16 0
BBX 16 16 0 -1
BITMAP
0000
0000
0000
1818
1818
0C30
0C30
0660
0660
02C0
02C0
0180
0180
0000
0000
0000
ENDCHAR

STARTCHAR kor_A1FE
ENCODING 41470
SWIDTH 803 0
DWIDTH 16 0
BBX 16 16 0 -1
BITMAP
0000
0000
0000
0000
1FFC
000C
000C
000C
000C
0000
0000
0000
0000
0000
0000
0000
ENDCHAR

STARTCHAR kor_A2A1
ENCODING 41633
SWIDTH 803 0
DWIDTH 16 0
BBX 16 16 0 -1
BITMAP
0000
0000
0060
0030
0018
FFFC
0006
0003
0006
FFFC
0018
0030
0060
0000
0000
0000
ENDCHAR

STARTCHAR kor_A2A2
ENCODING 41634
SWIDTH 803 0
DWIDTH 16 0
BBX 16 16 0 -1
BITMAP
0000
0000
0000
0C30
1818
3FFC
6006
C003
6006
3FFC
1818
0C30
0000
0000
0000
0000
ENDCHAR

STARTCHAR kor_A2A3
ENCODING 41635
SWIDTH 803 0
DWIDTH 16 0
BBX 16 16 0 -1
BITMAP
0000
0000
6006
6006
300C
1818
1FF8
0C30
0660
0660
02C0
0180
0180
0000
0000
0000
ENDCHAR

STARTCHAR kor_A2A4
ENCODING 41636
SWIDTH 803 0
DWIDTH 16 0
BBX 16 16 0 -1
BITMAP
0000
0000
0FFC
000C
000C
000C
000C
0FFC
000C
000C
000C
000C
0FFC
0000
0000
0000
ENDCHAR

STARTCHAR kor_A2A5
ENCODING 41637
SWIDTH 803 0
DWIDTH 16 0
BBX 16 16 0 -1
BITMAP
00C0
0180
0000
0000
0000
0000
0000
0000
0000
0000
0000
0000
0000
0000
0000
0000
ENDCHAR

STARTCHAR kor_A2A6
ENCODING 41638
SWIDTH 803 0
DWIDTH 16 0
BBX 16 16 0 -1
BITMAP
03B0
06E0
0000
0000
0000
0000
0000
0000
0000
0000
0000
0000
0000
0000
0000
0000
ENDCHAR

STARTCHAR kor_A2A7
ENCODING 41639
SWIDTH 803 0
DWIDTH 16 0
BBX 16 16 0 -1
BITMAP
0160
00C0
0000
0000
0000
0000
0000
0000
0000
0000
0000
0000
0000
0000
0000
0000
ENDCHAR

STARTCHAR kor_A2A8
ENCODING 41640
SWIDTH 803 0
DWIDTH 16 0
BBX 16 16 0 -1
BITMAP
0330
01E0
0000
0000
0000
0000
0000
0000
0000
0000
0000
0000
0000
0000
0000
0000
ENDCHAR

STARTCHAR kor_A2A9
ENCODING 41641
SWIDTH 803 0
DWIDTH 16 0
BBX 16 16 0 -1
BITMAP
0160
02C0
0000
0000
0000
0000
0000
0000
0000
0000
0000
0000
0000
0000
0000
0000
ENDCHAR

STARTCHAR kor_A2AA
ENCODING 41642
SWIDTH 803 0
DWIDTH 16 0
BBX 16 16 0 -1
BITMAP
00C0
0160
00C0
0000
0000
0000
0000
0000
0000
0000
0000
0000
0000
0000
0000
0000
ENDCHAR

STARTCHAR kor_A2AB
ENCODING 41643
SWIDTH 803 0
DWIDTH 16 0
BBX 16 16 0 -1
BITMAP
01C0
01C0
0000
0000
0000
0000
0000
0000
0000
0000
0000
0000
0000
0000
0000
0000
ENDCHAR

STARTCHAR kor_A2AC
ENCODING 41644
SWIDTH 803 0
DWIDTH 16 0
BBX 16 16 0 -1
BITMAP
0000
0000
0000
0000
0000
0000
0000
0000
0000
0000
0000
0180
00C0
0060
00C0
0180
ENDCHAR

STARTCHAR kor_A2AD
ENCODING 41645
SWIDTH 803 0
DWIDTH 16 0
BBX 16 16 0 -1
BITMAP
0000
0000
0000
0000
0000
0000
0000
0000
0000
0000
0000
0060
00C0
0180
00C0
0060
ENDCHAR

STARTCHAR kor_A2AE
ENCODING 41646
SWIDTH 803 0
DWIDTH 16 0
BBX 16 16 0 -1
BITMAP
0000
00C0
00C0
0000
0000
0000
00C0
00C0
00C0
00C0
00C0
00C0
00C0
00C0
00C0
0000
ENDCHAR

STARTCHAR kor_A2AF
ENCODING 41647
SWIDTH 803 0
DWIDTH 16 0
BBX 16 16 0 -1
BITMAP
0000
00C0
00C0
0000
00C0
00C0
00C0
0180
0300
0600
0600
0600
0330
01E0
0000
0000
ENDCHAR

STARTCHAR kor_A2B0
ENCODING 41648
SWIDTH 803 0
DWIDTH 16 0
BBX 16 16 0 -1
BITMAP
0000
0000
0000
03C0
03C0
0180
0000
0000
0000
0000
0000
0180
03C0
03C0
0000
0000
ENDCHAR

STARTCHAR kor_A2B1
ENCODING 41649
SWIDTH 803 0
DWIDTH 16 0
BBX 16 16 0 -1
BITMAP
00E0
01B0
0180
0180
0180
00C0
00E0
01B0
0170
00E0
0060
0030
0030
0030
01B0
00E0
ENDCHAR

STARTCHAR kor_A2B2
ENCODING 41650
SWIDTH 803 0
DWIDTH 16 0
BBX 16 16 0 -1
BITMAP
0000
0000
1FF8
1818
0C18
0600
0600
0300
0600
0600
0C18
1818
1FF8
0000
0000
0000
ENDCHAR

STARTCHAR kor_A2B3
ENCODING 41651
SWIDTH 803 0
DWIDTH 16 0
BBX 16 16 0 -1
BITMAP
0000
0000
1FF8
0660
0660
0660
0660
0660
0660
0660
0660
0660
0660
0660
0000
0000
ENDCHAR

STARTCHAR kor_A2B4
ENCODING 41652
SWIDTH 803 0
DWIDTH 16 0
BBX 16 16 0 -1
BITMAP
0000
0000
0000
0000
0C18
05B0
0360
0630
0630
0360
05B0
0C18
0000
0000
0000
0000
ENDCHAR

STARTCHAR kor_A2B5
ENCODING 41653
SWIDTH 803 0
DWIDTH 16 0
BBX 16 16 0 -1
BITMAP
0000
1C00
37FE
3586
1D86
0180
0198
01F8
0198
0180
0180
0180
0180
03C0
0000
0000
ENDCHAR

STARTCHAR kor_A2B6
ENCODING 41654
SWIDTH 803 0
DWIDTH 16 0
BBX 16 16 0 -1
BITMAP
0000
0000
3860
6CC0
6CC0
6D80
3B00
0300
0600
0C00
0DCE
1B5B
335B
335B
61CE
0000
ENDCHAR

STARTCHAR kor_A2B7
ENCODING 41655
SWIDTH 803 0
DWIDTH 16 0
BBX 16 16 0 -1
BITMAP
0000
0000
0000
000E
0036
00E6
0386
0E06
3806
0E06
0386
00E6
0036
000E
0000
0000
ENDCHAR

STARTCHAR kor_A2B8
ENCODING 41656
SWIDTH 803 0
DWIDTH 16 0
BBX 16 16 0 -1
BITMAP
0000
0000
0000
000E
003E
00FE
03FE
0FFE
3FFE
0FFE
03FE
00FE
003E
000E
0000
0000
ENDCHAR

STARTCHAR kor_A2B9
ENCODING 41657
SWIDTH 803 0
DWIDTH 16 0
BBX 16 16 0 -1
BITMAP
0000
0000
0000
3800
2E00
3380
30E0
3038
300E
3038
30E0
3380
2E00
3800
0000
0000
ENDCHAR

STARTCHAR kor_A2BA
ENCODING 41658
SWIDTH 803 0
DWIDTH 16 0
BBX 16 16 0 -1
BITMAP
0000
0000
0000
3800
3E00
3F80
3FE0
3FF8
3FFE
3FF8
3FE0
3F80
3E00
3800
0000
0000
ENDCHAR

STARTCHAR kor_A2BB
ENCODING 41659
SWIDTH 803 0
DWIDTH 16 0
BBX 16 16 0 -1
BITMAP
0000
00C0
0160
0330
0618
0C0C
1806
3003
30C3
31E3
1AB6
0EDC
01E0
03F0
0000
0000
ENDCHAR

STARTCHAR kor_A2BC
ENCODING 41660
SWIDTH 803 0
DWIDTH 16 0
BBX 16 16 0 -1
BITMAP
0000
00C0
01E0
03F0
07F8
0FFC
1FFE
3FFF
3FFF
3FFF
1EBE
0EDC
01E0
03F0
0000
0000
ENDCHAR

STARTCHAR kor_A2BD
ENCODING 41661
SWIDTH 803 0
DWIDTH 16 0
BBX 16 16 0 -1
BITMAP
0000
0000
0F3C
1966
30C3
3003
3003
1806
1806
0C0C
0618
0330
0160
00C0
0000
0000
ENDCHAR

STARTCHAR kor_A2BE
ENCODING 41662
SWIDTH 803 0
DWIDTH 16 0
BBX 16 16 0 -1
BITMAP
0000
0000
0F3C
1F7E
3FFF
3FFF
3FFF
1FFE
1FFE
0FFC
07F8
03F0
01E0
00C0
0000
0000
ENDCHAR

STARTCHAR kor_A2BF
ENCODING 41663
SWIDTH 803 0
DWIDTH 16 0
BBX 16 16 0 -1
BITMAP
0000
01E0
0330
0618
0618
0330
0D5C
1AB6
3003
31E3
1AB6
0EDC
01E0
03F0
0000
0000
ENDCHAR

STARTCHAR kor_A2C0
ENCODING 41664
SWIDTH 803 0
DWIDTH 16 0
BBX 16 16 0 -1
BITMAP
0000
01E0
03F0
07F8
07F8
03F0
0DDC
1FFE
3FFF
3FFF
1EBE
0EDC
01E0
03F0
0000
0000
ENDCHAR

STARTCHAR kor_A2C1
ENCODING 41665
SWIDTH 803 0
DWIDTH 16 0
BBX 16 16 0 -1
BITMAP
0000
03E0
0E38
180C
3006
3006
61C3
63E3
63E3
61C3
3006
3006
180C
0E38
03E0
0000
ENDCHAR

STARTCHAR kor_A2C2
ENCODING 41666
SWIDTH 803 0
DWIDTH 16 0
BBX 16 16 0 -1
BITMAP
0000
00C0
0160
0330
0618
0CCC
19E6
33F3
19E6
0CCC
0618
0330
0160
00C0
0000
0000
ENDCHAR

STARTCHAR kor_A2C3
ENCODING 41667
SWIDTH 803 0
DWIDTH 16 0
BBX 16 16 0 -1
BITMAP
0000
0000
3FFE
3006
3006
37F6
37F6
37F6
37F6
37F6
37F6
3006
3006
3FFE
0000
0000
ENDCHAR

STARTCHAR kor_A2C4
ENCODING 41668
SWIDTH 803 0
DWIDTH 16 0
BBX 16 16 0 -1
BITMAP
0000
03E0
0FB8
1F8C
3F86
3F86
7F83
7F83
7F83
7F83
3F86
3F86
1F8C
0FB8
03E0
0000
ENDCHAR

STARTCHAR kor_A2C5
ENCODING 41669
SWIDTH 803 0
DWIDTH 16 0
BBX 16 16 0 -1
BITMAP
0000
03E0
0EF8
18FC
30FE
30FE
60FF
60FF
60FF
60FF
30FE
30FE
18FC
0EF8
03E0
0000
ENDCHAR

STARTCHAR kor_A2C6
ENCODING 41670
SWIDTH 803 0
DWIDTH 16 0
BBX 16 16 0 -1
BITMAP
0000
3FFF
3003
366B
3183
2C33
316B
3603
30DB
2C63
331B
2CC3
3033
3FFF
0000
0000
ENDCHAR

STARTCHAR kor_A2C7
ENCODING 41671
SWIDTH 803 0
DWIDTH 16 0
BBX 16 16 0 -1
BITMAP
0000
3FFF
3003
3003
3FFF
3003
3003
3FFF
3003
3003
3FFF
3003
3003
3FFF
0000
0000
ENDCHAR

STARTCHAR kor_A2C8
ENCODING 41672
SWIDTH 803 0
DWIDTH 16 0
BBX 16 16 0 -1
BITMAP
0000
3FFF
36DB
36DB
36DB
36DB
36DB
36DB
36DB
36DB
36DB
36DB
36DB
3FFF
0000
0000
ENDCHAR

STARTCHAR kor_A2C9
ENCODING 41673
SWIDTH 803 0
DWIDTH 16 0
BBX 16 16 0 -1
BITMAP
0000
3FFF
3667
2CCB
399B
3333
3667
2CCB
399B
3333
3667
2CCB
399B
3FFF
0000
0000
ENDCHAR

STARTCHAR kor_A2CA
ENCODING 41674
SWIDTH 803 0
DWIDTH 16 0
BBX 16 16 0 -1
BITMAP
0000
3FFF
399B
2CCB
3667
3333
399B
2CCB
3667
3333
399B
2CCB
3667
3FFF
0000
0000
ENDCHAR

STARTCHAR kor_A2CB
ENCODING 41675
SWIDTH 803 0
DWIDTH 16 0
BBX 16 16 0 -1
BITMAP
0000
3FFF
36DB
36DB
3FFF
36DB
36DB
3FFF
36DB
36DB
3FFF
36DB
36DB
3FFF
0000
0000
ENDCHAR

STARTCHAR kor_A2CC
ENCODING 41676
SWIDTH 803 0
DWIDTH 16 0
BBX 16 16 0 -1
BITMAP
0000
3FFF
3557
2CCB
3557
3333
3557
2CCB
3557
3333
3557
2CCB
3557
3FFF
0000
0000
ENDCHAR

STARTCHAR kor_A2CD
ENCODING 41677
SWIDTH 803 0
DWIDTH 16 0
BBX 16 16 0 -1
BITMAP
0000
0000
0DB0
1B60
1B60
1B60
0DB0
06D8
06D8
36D6
6DB3
6003
3006
1FFC
0000
0000
ENDCHAR

STARTCHAR kor_A2CE
ENCODING 41678
SWIDTH 803 0
DWIDTH 16 0
BBX 16 16 0 -1
BITMAP
0000
0000
07F8
1C0E
33F3
361B
3E1F
05D8
0B2C
1B36
1B36
19E6
1806
0FFC
0000
0000
ENDCHAR

STARTCHAR kor_A2CF
ENCODING 41679
SWIDTH 803 0
DWIDTH 16 0
BBX 16 16 0 -1
BITMAP
0000
0000
07F8
1FFE
3E1F
3BEF
3BEF
0738
0DDC
1DDE
1DDE
1F3E
1FFE
0FFC
0000
0000
ENDCHAR

STARTCHAR kor_A2D0
ENCODING 41680
SWIDTH 803 0
DWIDTH 16 0
BBX 16 16 0 -1
BITMAP
0000
0000
0000
001E
1FF6
3016
1F96
0616
0616
0616
03F6
0016
001E
0000
0000
0000
ENDCHAR

STARTCHAR kor_A2D1
ENCODING 41681
SWIDTH 803 0
DWIDTH 16 0
BBX 16 16 0 -1
BITMAP
0000
0000
0000
3C00
2FFC
2C06
2CFC
2C30
2C30
2C30
2FE0
2C00
3C00
0000
0000
0000
ENDCHAR

STARTCHAR kor_A2D2
ENCODING 41682
SWIDTH 803 0
DWIDTH 16 0
BBX 16 16 0 -1
BITMAP
0000
0000
07D8
0C58
1858
1858
1858
0C58
07D8
0058
0058
0058
0058
0058
0058
0000
ENDCHAR

STARTCHAR kor_A2D3
ENCODING 41683
SWIDTH 803 0
DWIDTH 16 0
BBX 16 16 0 -1
BITMAP
0000
00C0
00C0
00C0
1FFE
00C0
00C0
00C0
00C0
00C0
00C0
00C0
00C0
00C0
00C0
0000
ENDCHAR

STARTCHAR kor_A2D4
ENCODING 41684
SWIDTH 803 0
DWIDTH 16 0
BBX 16 16 0 -1
BITMAP
0000
00C0
00C0
0FFC
00C0
00C0
1FFE
00C0
00C0
00C0
00C0
00C0
00C0
00C0
00C0
0000
ENDCHAR

STARTCHAR kor_A2D5
ENCODING 41685
SWIDTH 803 0
DWIDTH 16 0
BBX 16 16 0 -1
BITMAP
00C0
01E0
02B0
06D8
00C0
00C0
00C0
00C0
00C0
00C0
00C0
00C0
06D8
02B0
01E0
00C0
ENDCHAR

STARTCHAR kor_A2D6
ENCODING 41686
SWIDTH 803 0
DWIDTH 16 0
BBX 16 16 0 -1
BITMAP
0000
00FC
001C
002C
002C
006C
00C0
0180
0180
0300
0600
0C00
0C00
1800
3000
0000
ENDCHAR

STARTCHAR kor_A2D7
ENCODING 41687
SWIDTH 803 0
DWIDTH 16 0
BBX 16 16 0 -1
BITMAP
0000
000C
0018
0030
0030
0060
00C0
0180
0180
0300
3600
2C00
2C00
3800
3F00
0000
ENDCHAR

STARTCHAR kor_A2D8
ENCODING 41688
SWIDTH 803 0
DWIDTH 16 0
BBX 16 16 0 -1
BITMAP
0000
3F00
3800
2C00
2C00
3600
0300
0180
0180
00C0
0060
0030
0030
0018
000C
0000
ENDCHAR

STARTCHAR kor_A2D9
ENCODING 41689
SWIDTH 803 0
DWIDTH 16 0
BBX 16 16 0 -1
BITMAP
0000
3000
1800
0C00
0C00
0600
0300
0180
0180
00C0
006C
002C
002C
001C
00FC
0000
ENDCHAR

STARTCHAR kor_A2DA
ENCODING 41690
SWIDTH 803 0
DWIDTH 16 0
BBX 16 16 0 -1
BITMAP
0000
0000
0300
0300
0300
0378
02CC
038C
030C
0318
0318
0330
02E0
0380
0000
0000
ENDCHAR

STARTCHAR kor_A2DB
ENCODING 41691
SWIDTH 803 0
DWIDTH 16 0
BBX 16 16 0 -1
BITMAP
0000
0030
0030
0030
0030
0030
0030
0030
0030
0030
03F0
07F0
07E0
03C0
0000
0000
ENDCHAR

STARTCHAR kor_A2DC
ENCODING 41692
SWIDTH 803 0
DWIDTH 16 0
BBX 16 16 0 -1
BITMAP
0000
00C0
00E0
00B0
00D8
00D8
00D8
00B0
00B0
00C0
0FC0
1FC0
1F80
0F00
0000
0000
ENDCHAR

STARTCHAR kor_A2DD
ENCODING 41693
SWIDTH 803 0
DWIDTH 16 0
BBX 16 16 0 -1
BITMAP
0000
0000
03FE
0306
0306
03FE
0306
0306
0306
0306
0306
1F3E
3F7E
3E7C
0000
0000
ENDCHAR

STARTCHAR kor_A2DE
ENCODING 41694
SWIDTH 803 0
DWIDTH 16 0
BBX 16 16 0 -1
BITMAP
0000
03E0
0E38
177C
3336
3366
62C3
7AC0
039F
62C3
3366
3336
177C
0E38
03E0
0000
ENDCHAR

STARTCHAR kor_A2DF
ENCODING 41695
SWIDTH 803 0
DWIDTH 16 0
BBX 16 16 0 -1
BITMAP
0000
0000
0C18
178C
18CC
3166
3336
3006
2FFE
30C6
30C6
18CC
0C6C
0618
0000
0000
ENDCHAR

STARTCHAR kor_A2E0
ENCODING 41696
SWIDTH 803 0
DWIDTH 16 0
BBX 16 16 0 -1
BITMAP
0000
0000
7780
3B00
3B00
3B00
2B00
2B70
2AD8
2AD8
36D8
36D8
36D7
7B77
0000
0000
ENDCHAR

STARTCHAR kor_A2E1
ENCODING 41697
SWIDTH 803 0
DWIDTH 16 0
BBX 16 16 0 -1
BITMAP
0000
0000
0E00
1B00
3000
3000
3000
3070
30D8
30D8
30D8
30D8
1AD7
0E77
0000
0000
ENDCHAR

STARTCHAR kor_A2E2
ENCODING 41698
SWIDTH 803 0
DWIDTH 16 0
BBX 16 16 0 -1
BITMAP
0000
0000
3ECC
2ADC
2ADC
0CDC
0CAC
0CAC
0CAC
0CCC
0CCC
0CCC
0CCC
1DDE
0000
0000
ENDCHAR

STARTCHAR kor_A2E3
ENCODING 41699
SWIDTH 803 0
DWIDTH 16 0
BBX 16 16 0 -1
BITMAP
0000
0000
0000
0000
0000
3CAC
0656
0656
3E56
6656
6656
6656
6656
3D55
0000
0000
ENDCHAR

STARTCHAR kor_A2E4
ENCODING 41700
SWIDTH 803 0
DWIDTH 16 0
BBX 16 16 0 -1
BITMAP
0000
0000
0000
0000
0000
7EAC
3356
3356
3356
3356
3356
3E56
3056
3155
3000
3000
ENDCHAR

STARTCHAR kor_A2E5
ENCODING 41701
SWIDTH 803 0
DWIDTH 16 0
BBX 16 16 0 -1
BITMAP
0000
0000
7F87
6D83
6D83
6D83
0C03
0CF3
0D9B
0B0B
0BFB
0B03
0D8B
1EFB
0000
0000
ENDCHAR

STARTCHAR default_char
ENCODING 41702
SWIDTH 803 0
DWIDTH 16 0
BBX 16 16 0 -1
BITMAP
3003
0000
0000
0000
0000
0000
0000
0000
0000
0000
0000
0000
0000
3003
0000
0000
ENDCHAR

STARTCHAR kor_A3A1
ENCODING 41889
SWIDTH 803 0
DWIDTH 16 0
BBX 16 16 0 -1
BITMAP
0000
0180
0180
0180
0180
0180
0180
0180
0180
0000
0000
0180
0180
0180
0180
0000
ENDCHAR

STARTCHAR kor_A3A2
ENCODING 41890
SWIDTH 803 0
DWIDTH 16 0
BBX 16 16 0 -1
BITMAP
0000
0D80
0D80
1B00
1B00
3600
3600
6C00
0000
0000
0000
0000
0000
0000
0000
0000
ENDCHAR

STARTCHAR kor_A3A3
ENCODING 41891
SWIDTH 803 0
DWIDTH 16 0
BBX 16 16 0 -1
BITMAP
0000
0000
0660
065C
0670
05E0
0F60
3660
065C
0670
05E0
0F60
3660
0660
0000
0000
ENDCHAR

STARTCHAR kor_A3A4
ENCODING 41892
SWIDTH 803 0
DWIDTH 16 0
BBX 16 16 0 -1
BITMAP
0000
0180
0180
07F0
0D98
1980
1980
0D80
03E0
01B0
0198
0198
19B0
0FE0
0180
0180
ENDCHAR

STARTCHAR kor_A3A5
ENCODING 41893
SWIDTH 803 0
DWIDTH 16 0
BBX 16 16 0 -1
BITMAP
0000
0000
0C18
1630
1630
1660
0CC0
0180
0180
0330
0658
0C58
0C58
1830
0000
0000
ENDCHAR

STARTCHAR kor_A3A6
ENCODING 41894
SWIDTH 803 0
DWIDTH 16 0
BBX 16 16 0 -1
BITMAP
0000
0180
02C0
02C0
0380
0380
0300
0580
0D80
18C0
18D8
1858
1830
0C5C
07C0
0000
ENDCHAR

STARTCHAR kor_A3A7
ENCODING 41895
SWIDTH 803 0
DWIDTH 16 0
BBX 16 16 0 -1
BITMAP
0000
1800
1800
3000
3000
6000
0000
0000
0000
0000
0000
0000
0000
0000
0000
0000
ENDCHAR

STARTCHAR kor_A3A8
ENCODING 41896
SWIDTH 803 0
DWIDTH 16 0
BBX 16 16 0 -1
BITMAP
000C
0018
0030
0030
0060
0060
0060
0060
0060
0060
0060
0060
0030
0030
0018
000C
ENDCHAR

STARTCHAR kor_A3A9
ENCODING 41897
SWIDTH 803 0
DWIDTH 16 0
BBX 16 16 0 -1
BITMAP
1800
0C00
0600
0600
0300
0300
0300
0300
0300
0300
0300
0300
0600
0600
0C00
1800
ENDCHAR

STARTCHAR kor_A3AA
ENCODING 41898
SWIDTH 803 0
DWIDTH 16 0
BBX 16 16 0 -1
BITMAP
0000
0000
0000
0000
0C30
0660
02C0
1FF8
02C0
0660
0C30
0000
0000
0000
0000
0000
ENDCHAR

STARTCHAR kor_A3AB
ENCODING 41899
SWIDTH 803 0
DWIDTH 16 0
BBX 16 16 0 -1
BITMAP
0000
0000
0000
0180
0180
0180
0180
1FF8
0180
0180
0180
0180
0000
0000
0000
0000
ENDCHAR

STARTCHAR kor_A3AC
ENCODING 41900
SWIDTH 803 0
DWIDTH 16 0
BBX 16 16 0 -1
BITMAP
0000
0000
0000
0000
0000
0000
0000
0000
0000
0000
0000
0000
3000
3000
6000
C000
ENDCHAR

STARTCHAR kor_A3AD
ENCODING 41901
SWIDTH 803 0
DWIDTH 16 0
BBX 16 16 0 -1
BITMAP
0000
0000
0000
0000
0000
0000
0000
1FFC
0000
0000
0000
0000
0000
0000
0000
0000
ENDCHAR

STARTCHAR kor_A3AE
ENCODING 41902
SWIDTH 803 0
DWIDTH 16 0
BBX 16 16 0 -1
BITMAP
0000
0000
0000
0000
0000
0000
0000
0000
0000
0000
0000
0000
0000
0000
7000
7000
ENDCHAR

STARTCHAR kor_A3AF
ENCODING 41903
SWIDTH 803 0
DWIDTH 16 0
BBX 16 16 0 -1
BITMAP
0000
0006
000C
0018
0030
0060
00C0
0180
0180
0300
0600
0C00
1800
3000
6000
0000
ENDCHAR

STARTCHAR kor_A3B0
ENCODING 41904
SWIDTH 803 0
DWIDTH 16 0
BBX 16 16 0 -1
BITMAP
0000
0000
07E0
0C30
1818
1818
1818
1818
1818
1818
1818
1818
0C30
07E0
0000
0000
ENDCHAR

STARTCHAR kor_A3B1
ENCODING 41905
SWIDTH 803 0
DWIDTH 16 0
BBX 16 16 0 -1
BITMAP
0000
0000
00C0
01C0
02C0
06C0
00C0
00C0
00C0
00C0
00C0
00C0
00C0
07F8
0000
0000
ENDCHAR

STARTCHAR kor_A3B2
ENCODING 41906
SWIDTH 803 0
DWIDTH 16 0
BBX 16 16 0 -1
BITMAP
0000
0000
07E0
0C30
1818
0018
0018
0030
00E0
0180
0300
0600
0C00
1FF8
0000
0000
ENDCHAR

STARTCHAR kor_A3B3
ENCODING 41907
SWIDTH 803 0
DWIDTH 16 0
BBX 16 16 0 -1
BITMAP
0000
0000
07E0
0C30
1818
0018
0030
01E0
0030
0018
0018
1818
0C30
07E0
0000
0000
ENDCHAR

STARTCHAR kor_A3B4
ENCODING 41908
SWIDTH 803 0
DWIDTH 16 0
BBX 16 16 0 -1
BITMAP
0000
0000
0060
00E0
0160
0160
0360
0660
0C60
0C60
1860
3FFC
0060
0060
0000
0000
ENDCHAR

STARTCHAR kor_A3B5
ENCODING 41909
SWIDTH 803 0
DWIDTH 16 0
BBX 16 16 0 -1
BITMAP
0000
0000
1FF8
1800
1800
1800
17E0
1C30
1818
0018
0018
1818
0C30
07E0
0000
0000
ENDCHAR

STARTCHAR kor_A3B6
ENCODING 41910
SWIDTH 803 0
DWIDTH 16 0
BBX 16 16 0 -1
BITMAP
0000
0000
07F0
0C18
1800
1800
1BE0
1630
1C18
1818
1818
1818
0C30
07E0
0000
0000
ENDCHAR

STARTCHAR kor_A3B7
ENCODING 41911
SWIDTH 803 0
DWIDTH 16 0
BBX 16 16 0 -1
BITMAP
0000
0000
1FF8
0018
0030
0030
0060
0060
00C0
00C0
0180
0180
0300
0300
0000
0000
ENDCHAR

STARTCHAR kor_A3B8
ENCODING 41912
SWIDTH 803 0
DWIDTH 16 0
BBX 16 16 0 -1
BITMAP
0000
0000
07E0
0C30
1818
1818
0C30
07E0
0C30
1818
1818
1818
0C30
07E0
0000
0000
ENDCHAR

STARTCHAR kor_A3B9
ENCODING 41913
SWIDTH 803 0
DWIDTH 16 0
BBX 16 16 0 -1
BITMAP
0000
0000
07E0
0C30
1818
1818
1818
0C38
07D8
0018
0018
0018
1830
0FE0
0000
0000
ENDCHAR

STARTCHAR kor_A3BA
ENCODING 41914
SWIDTH 803 0
DWIDTH 16 0
BBX 16 16 0 -1
BITMAP
0000
0000
0000
0000
01C0
01C0
0000
0000
0000
0000
01C0
01C0
0000
0000
0000
0000
ENDCHAR

STARTCHAR kor_A3BB
ENCODING 41915
SWIDTH 803 0
DWIDTH 16 0
BBX 16 16 0 -1
BITMAP
0000
0000
0000
0000
01C0
01C0
0000
0000
0000
0000
01C0
01C0
00C0
0180
0000
0000
ENDCHAR

STARTCHAR kor_A3BC
ENCODING 41916
SWIDTH 803 0
DWIDTH 16 0
BBX 16 16 0 -1
BITMAP
0000
0000
0000
0003
000E
0018
0070
00C0
0180
00C0
0070
0018
000E
0003
0000
0000
ENDCHAR

STARTCHAR kor_A3BD
ENCODING 41917
SWIDTH 803 0
DWIDTH 16 0
BBX 16 16 0 -1
BITMAP
0000
0000
0000
0000
0000
0000
1FF8
0000
0000
1FF8
0000
0000
0000
0000
0000
0000
ENDCHAR

STARTCHAR kor_A3BE
ENCODING 41918
SWIDTH 803 0
DWIDTH 16 0
BBX 16 16 0 -1
BITMAP
0000
0000
0000
6000
3800
0C00
0700
0180
00C0
0180
0700
0C00
3800
6000
0000
0000
ENDCHAR

STARTCHAR kor_A3BF
ENCODING 41919
SWIDTH 803 0
DWIDTH 16 0
BBX 16 16 0 -1
BITMAP
0000
0000
03F0
0618
0C0C
000C
0018
0030
0060
00C0
00C0
0000
00C0
00C0
0000
0000
ENDCHAR

STARTCHAR kor_A3C0
ENCODING 41920
SWIDTH 803 0
DWIDTH 16 0
BBX 16 16 0 -1
BITMAP
0000
0000
03E0
0630
0C18
0DD8
1B58
1658
1658
16B0
1BB0
0CE0
0600
03E0
0000
0000
ENDCHAR

STARTCHAR kor_A3C1
ENCODING 41921
SWIDTH 803 0
DWIDTH 16 0
BBX 16 16 0 -1
BITMAP
0000
0000
0180
0180
02C0
02C0
0660
0660
0C30
0FF0
1818
1818
300C
300C
0000
0000
ENDCHAR

STARTCHAR kor_A3C2
ENCODING 41922
SWIDTH 803 0
DWIDTH 16 0
BBX 16 16 0 -1
BITMAP
0000
0000
1FE0
1830
1818
1818
1830
1FE0
1830
1818
1818
1818
1830
1FE0
0000
0000
ENDCHAR

STARTCHAR kor_A3C3
ENCODING 41923
SWIDTH 803 0
DWIDTH 16 0
BBX 16 16 0 -1
BITMAP
0000
0000
03E0
0630
0C18
1800
1800
1800
1800
1800
1800
0C18
0630
03E0
0000
0000
ENDCHAR

STARTCHAR kor_A3C4
ENCODING 41924
SWIDTH 803 0
DWIDTH 16 0
BBX 16 16 0 -1
BITMAP
0000
0000
1FE0
1830
1818
1818
1818
1818
1818
1818
1818
1818
1830
1FE0
0000
0000
ENDCHAR

STARTCHAR kor_A3C5
ENCODING 41925
SWIDTH 803 0
DWIDTH 16 0
BBX 16 16 0 -1
BITMAP
0000
0000
1FF8
1800
1800
1800
1800
1FE0
1800
1800
1800
1800
1800
1FF8
0000
0000
ENDCHAR

STARTCHAR kor_A3C6
ENCODING 41926
SWIDTH 803 0
DWIDTH 16 0
BBX 16 16 0 -1
BITMAP
0000
0000
1FF8
1800
1800
1800
1800
1FE0
1800
1800
1800
1800
1800
1800
0000
0000
ENDCHAR

STARTCHAR kor_A3C7
ENCODING 41927
SWIDTH 803 0
DWIDTH 16 0
BBX 16 16 0 -1
BITMAP
0000
0000
03E0
0630
0C18
1800
1800
1800
18FC
1818
1818
0C18
0630
03E0
0000
0000
ENDCHAR

STARTCHAR kor_A3C8
ENCODING 41928
SWIDTH 803 0
DWIDTH 16 0
BBX 16 16 0 -1
BITMAP
0000
0000
1818
1818
1818
1818
1818
1FF8
1818
1818
1818
1818
1818
1818
0000
0000
ENDCHAR

STARTCHAR kor_A3C9
ENCODING 41929
SWIDTH 803 0
DWIDTH 16 0
BBX 16 16 0 -1
BITMAP
0000
0000
0FF0
0180
0180
0180
0180
0180
0180
0180
0180
0180
0180
0FF0
0000
0000
ENDCHAR

STARTCHAR kor_A3CA
ENCODING 41930
SWIDTH 803 0
DWIDTH 16 0
BBX 16 16 0 -1
BITMAP
0000
0000
07F8
0060
0060
0060
0060
0060
0060
0060
0060
1860
0CC0
0780
0000
0000
ENDCHAR

STARTCHAR kor_A3CB
ENCODING 41931
SWIDTH 803 0
DWIDTH 16 0
BBX 16 16 0 -1
BITMAP
0000
0000
1818
1830
1860
18C0
1980
1B00
1700
1D80
18C0
1860
1830
1818
0000
0000
ENDCHAR

STARTCHAR kor_A3CC
ENCODING 41932
SWIDTH 803 0
DWIDTH 16 0
BBX 16 16 0 -1
BITMAP
0000
0000
1800
1800
1800
1800
1800
1800
1800
1800
1800
1800
1800
1FF8
0000
0000
ENDCHAR

STARTCHAR kor_A3CD
ENCODING 41933
SWIDTH 803 0
DWIDTH 16 0
BBX 16 16 0 -1
BITMAP
0000
0000
1818
1C38
1C38
1658
1658
1AD8
1AD8
1998
1998
1998
1818
1818
0000
0000
ENDCHAR

STARTCHAR kor_A3CE
ENCODING 41934
SWIDTH 803 0
DWIDTH 16 0
BBX 16 16 0 -1
BITMAP
0000
0000
1818
1C18
1618
1618
1B18
1998
1998
18D8
1858
1858
1838
1818
0000
0000
ENDCHAR

STARTCHAR kor_A3CF
ENCODING 41935
SWIDTH 803 0
DWIDTH 16 0
BBX 16 16 0 -1
BITMAP
0000
0000
07E0
0C30
1818
1818
1818
1818
1818
1818
1818
1818
0C30
07E0
0000
0000
ENDCHAR

STARTCHAR kor_A3D0
ENCODING 41936
SWIDTH 803 0
DWIDTH 16 0
BBX 16 16 0 -1
BITMAP
0000
0000
1FE0
1830
1818
1818
1818
1830
1FE0
1800
1800
1800
1800
1800
0000
0000
ENDCHAR

STARTCHAR kor_A3D1
ENCODING 41937
SWIDTH 803 0
DWIDTH 16 0
BBX 16 16 0 -1
BITMAP
0000
0000
07E0
0C30
1818
1818
1818
1818
1818
1818
1998
18D8
0C70
07D8
0000
0000
ENDCHAR

STARTCHAR kor_A3D2
ENCODING 41938
SWIDTH 803 0
DWIDTH 16 0
BBX 16 16 0 -1
BITMAP
0000
0000
1FE0
1830
1818
1818
1818
1830
1FE0
1980
18C0
1860
1830
1818
0000
0000
ENDCHAR

STARTCHAR kor_A3D3
ENCODING 41939
SWIDTH 803 0
DWIDTH 16 0
BBX 16 16 0 -1
BITMAP
0000
0000
07E0
0C30
1818
1800
0C00
07C0
0070
0018
0018
1818
0C30
07E0
0000
0000
ENDCHAR

STARTCHAR kor_A3D4
ENCODING 41940
SWIDTH 803 0
DWIDTH 16 0
BBX 16 16 0 -1
BITMAP
0000
0000
1FF8
0180
0180
0180
0180
0180
0180
0180
0180
0180
0180
0180
0000
0000
ENDCHAR

STARTCHAR kor_A3D5
ENCODING 41941
SWIDTH 803 0
DWIDTH 16 0
BBX 16 16 0 -1
BITMAP
0000
0000
1818
1818
1818
1818
1818
1818
1818
1818
1818
1818
0C30
07E0
0000
0000
ENDCHAR

STARTCHAR kor_A3D6
ENCODING 41942
SWIDTH 803 0
DWIDTH 16 0
BBX 16 16 0 -1
BITMAP
0000
0000
1818
1818
0C30
0C30
0C30
0660
0660
02C0
02C0
02C0
0180
0180
0000
0000
ENDCHAR

STARTCHAR kor_A3D7
ENCODING 41943
SWIDTH 803 0
DWIDTH 16 0
BBX 16 16 0 -1
BITMAP
0000
0000
300C
300C
300C
1818
1998
1998
0DB0
0AB0
0AB0
0660
0660
0660
0000
0000
ENDCHAR

STARTCHAR kor_A3D8
ENCODING 41944
SWIDTH 803 0
DWIDTH 16 0
BBX 16 16 0 -1
BITMAP
0000
0000
1818
0C30
0C30
0660
02C0
0180
0180
02C0
0660
0C30
0C30
1818
0000
0000
ENDCHAR

STARTCHAR kor_A3D9
ENCODING 41945
SWIDTH 803 0
DWIDTH 16 0
BBX 16 16 0 -1
BITMAP
0000
0000
1818
0C30
0C30
0660
0660
02C0
0180
0180
0180
0180
0180
0180
0000
0000
ENDCHAR

STARTCHAR kor_A3DA
ENCODING 41946
SWIDTH 803 0
DWIDTH 16 0
BBX 16 16 0 -1
BITMAP
0000
0000
1FF8
0030
0060
0060
00C0
0180
0180
0300
0600
0600
0C00
1FF8
0000
0000
ENDCHAR

STARTCHAR kor_A3DB
ENCODING 41947
SWIDTH 803 0
DWIDTH 16 0
BBX 16 16 0 -1
BITMAP
0000
003E
0030
0030
0030
0030
0030
0030
0030
0030
0030
0030
0030
0030
003E
0000
ENDCHAR

STARTCHAR kor_A3DC
ENCODING 41948
SWIDTH 803 0
DWIDTH 16 0
BBX 16 16 0 -1
BITMAP
0000
0000
1818
1818
1998
1998
3FFC
0DB0
0AB0
3FFC
0AB0
0660
0660
0660
0000
0000
ENDCHAR

STARTCHAR kor_A3DD
ENCODING 41949
SWIDTH 803 0
DWIDTH 16 0
BBX 16 16 0 -1
BITMAP
0000
3E00
0600
0600
0600
0600
0600
0600
0600
0600
0600
0600
0600
0600
3E00
0000
ENDCHAR

STARTCHAR kor_A3DE
ENCODING 41950
SWIDTH 803 0
DWIDTH 16 0
BBX 16 16 0 -1
BITMAP
0000
0180
02C0
0660
0000
0000
0000
0000
0000
0000
0000
0000
0000
0000
0000
0000
ENDCHAR

STARTCHAR kor_A3DF
ENCODING 41951
SWIDTH 803 0
DWIDTH 16 0
BBX 16 16 0 -1
BITMAP
0000
0000
0000
0000
0000
0000
0000
0000
0000
0000
0000
0000
0000
0000
0000
3FFE
ENDCHAR

STARTCHAR kor_A3E0
ENCODING 41952
SWIDTH 803 0
DWIDTH 16 0
BBX 16 16 0 -1
BITMAP
0000
3000
1800
0C00
0600
0000
0000
0000
0000
0000
0000
0000
0000
0000
0000
0000
ENDCHAR

STARTCHAR kor_A3E1
ENCODING 41953
SWIDTH 803 0
DWIDTH 16 0
BBX 16 16 0 -1
BITMAP
0000
0000
0000
0000
0000
0FF0
0018
0018
0FD8
1838
1818
1818
1818
0FEE
0000
0000
ENDCHAR

STARTCHAR kor_A3E2
ENCODING 41954
SWIDTH 803 0
DWIDTH 16 0
BBX 16 16 0 -1
BITMAP
0000
0000
1800
1800
1800
1800
17E0
1C30
1818
1818
1818
1818
1C30
17E0
0000
0000
ENDCHAR

STARTCHAR kor_A3E3
ENCODING 41955
SWIDTH 803 0
DWIDTH 16 0
BBX 16 16 0 -1
BITMAP
0000
0000
0000
0000
0000
07E0
0C30
1818
1800
1800
1800
1800
0C18
07F0
0000
0000
ENDCHAR

STARTCHAR kor_A3E4
ENCODING 41956
SWIDTH 803 0
DWIDTH 16 0
BBX 16 16 0 -1
BITMAP
0000
0000
0018
0018
0018
0018
07D8
0C38
1818
1818
1818
1818
0C38
07D8
0000
0000
ENDCHAR

STARTCHAR kor_A3E5
ENCODING 41957
SWIDTH 803 0
DWIDTH 16 0
BBX 16 16 0 -1
BITMAP
0000
0000
0000
0000
0000
07E0
0C30
1818
1818
1FF8
1800
1800
0C00
07F8
0000
0000
ENDCHAR

STARTCHAR kor_A3E6
ENCODING 41958
SWIDTH 803 0
DWIDTH 16 0
BBX 16 16 0 -1
BITMAP
0000
0000
01F0
0318
0300
0300
0300
0300
1FF8
0300
0300
0300
0300
0300
0000
0000
ENDCHAR

STARTCHAR kor_A3E7
ENCODING 41959
SWIDTH 803 0
DWIDTH 16 0
BBX 16 16 0 -1
BITMAP
0000
0000
0000
0000
0000
07D8
0C38
1818
1818
1818
0C38
07D8
0018
0018
1818
0FF0
ENDCHAR

STARTCHAR kor_A3E8
ENCODING 41960
SWIDTH 803 0
DWIDTH 16 0
BBX 16 16 0 -1
BITMAP
0000
0000
1800
1800
1800
17E0
1C30
1818
1818
1818
1818
1818
1818
1818
0000
0000
ENDCHAR

STARTCHAR kor_A3E9
ENCODING 41961
SWIDTH 803 0
DWIDTH 16 0
BBX 16 16 0 -1
BITMAP
0000
0000
00C0
00C0
0000
07C0
00C0
00C0
00C0
00C0
00C0
00C0
00C0
00C0
0000
0000
ENDCHAR

STARTCHAR kor_A3EA
ENCODING 41962
SWIDTH 803 0
DWIDTH 16 0
BBX 16 16 0 -1
BITMAP
0000
0000
0060
0060
0000
03E0
0060
0060
0060
0060
0060
0060
0060
0060
0CC0
0780
ENDCHAR

STARTCHAR kor_A3EB
ENCODING 41963
SWIDTH 803 0
DWIDTH 16 0
BBX 16 16 0 -1
BITMAP
0000
0000
1800
1800
1800
1818
1830
18E0
1980
1780
1CC0
1860
1830
1818
0000
0000
ENDCHAR

STARTCHAR kor_A3EC
ENCODING 41964
SWIDTH 803 0
DWIDTH 16 0
BBX 16 16 0 -1
BITMAP
0000
0000
07C0
00C0
00C0
00C0
00C0
00C0
00C0
00C0
00C0
00C0
00C0
00C0
0000
0000
ENDCHAR

STARTCHAR kor_A3ED
ENCODING 41965
SWIDTH 803 0
DWIDTH 16 0
BBX 16 16 0 -1
BITMAP
0000
0000
0000
0000
0000
1778
1CCC
18CC
18CC
18CC
18CC
18CC
18CC
18CC
0000
0000
ENDCHAR

STARTCHAR kor_A3EE
ENCODING 41966
SWIDTH 803 0
DWIDTH 16 0
BBX 16 16 0 -1
BITMAP
0000
0000
0000
0000
0000
17E0
1C30
1818
1818
1818
1818
1818
1818
1818
0000
0000
ENDCHAR

STARTCHAR kor_A3EF
ENCODING 41967
SWIDTH 803 0
DWIDTH 16 0
BBX 16 16 0 -1
BITMAP
0000
0000
0000
0000
0000
07E0
0C30
1818
1818
1818
1818
1818
0C30
07E0
0000
0000
ENDCHAR

STARTCHAR kor_A3F0
ENCODING 41968
SWIDTH 803 0
DWIDTH 16 0
BBX 16 16 0 -1
BITMAP
0000
0000
0000
0000
0000
17E0
1C30
1818
1818
1818
1818
1C30
17E0
1800
1800
1800
ENDCHAR

STARTCHAR kor_A3F1
ENCODING 41969
SWIDTH 803 0
DWIDTH 16 0
BBX 16 16 0 -1
BITMAP
0000
0000
0000
0000
0000
07D8
0C38
1818
1818
1818
1818
0C38
07D8
0018
0018
0018
ENDCHAR

STARTCHAR kor_A3F2
ENCODING 41970
SWIDTH 803 0
DWIDTH 16 0
BBX 16 16 0 -1
BITMAP
0000
0000
0000
0000
0000
19F0
1B18
1600
1C00
1800
1800
1800
1800
1800
0000
0000
ENDCHAR

STARTCHAR kor_A3F3
ENCODING 41971
SWIDTH 803 0
DWIDTH 16 0
BBX 16 16 0 -1
BITMAP
0000
0000
0000
0000
0000
0FF0
1818
1800
1800
0FF0
0018
0018
1818
0FF0
0000
0000
ENDCHAR

STARTCHAR kor_A3F4
ENCODING 41972
SWIDTH 803 0
DWIDTH 16 0
BBX 16 16 0 -1
BITMAP
0000
0000
0300
0300
0300
1FF0
0300
0300
0300
0300
0300
0300
0318
01F0
0000
0000
ENDCHAR

STARTCHAR kor_A3F5
ENCODING 41973
SWIDTH 803 0
DWIDTH 16 0
BBX 16 16 0 -1
BITMAP
0000
0000
0000
0000
0000
1818
1818
1818
1818
1818
1818
1818
0C30
07E0
0000
0000
ENDCHAR

STARTCHAR kor_A3F6
ENCODING 41974
SWIDTH 803 0
DWIDTH 16 0
BBX 16 16 0 -1
BITMAP
0000
0000
0000
0000
0000
1818
0C30
0C30
0660
0660
02C0
02C0
0180
0180
0000
0000
ENDCHAR

STARTCHAR kor_A3F7
ENCODING 41975
SWIDTH 803 0
DWIDTH 16 0
BBX 16 16 0 -1
BITMAP
0000
0000
0000
0000
0000
300C
300C
1998
1998
0DB0
0AB0
0AB0
0660
0660
0000
0000
ENDCHAR

STARTCHAR kor_A3F8
ENCODING 41976
SWIDTH 803 0
DWIDTH 16 0
BBX 16 16 0 -1
BITMAP
0000
0000
0000
0000
0000
1818
0C30
0660
02C0
0180
02C0
0660
0C30
1818
0000
0000
ENDCHAR

STARTCHAR kor_A3F9
ENCODING 41977
SWIDTH 803 0
DWIDTH 16 0
BBX 16 16 0 -1
BITMAP
0000
0000
0000
0000
0000
1818
1818
0C30
0630
0660
0360
01C0
00C0
0180
3180
1F00
ENDCHAR

STARTCHAR kor_A3FA
ENCODING 41978
SWIDTH 803 0
DWIDTH 16 0
BBX 16 16 0 -1
BITMAP
0000
0000
0000
0000
0000
1FF8
0030
0060
00C0
0180
0300
0600
0C00
1FF8
0000
0000
ENDCHAR

STARTCHAR kor_A3FB
ENCODING 41979
SWIDTH 803 0
DWIDTH 16 0
BBX 16 16 0 -1
BITMAP
0000
000E
0018
0018
0018
0018
0018
0030
0018
0018
0018
0018
0018
0018
000E
0000
ENDCHAR

STARTCHAR kor_A3FC
ENCODING 41980
SWIDTH 803 0
DWIDTH 16 0
BBX 16 16 0 -1
BITMAP
0000
0180
0180
0180
0180
0180
0180
0180
0180
0180
0180
0180
0180
0180
0180
0000
ENDCHAR

STARTCHAR kor_A3FD
ENCODING 41981
SWIDTH 803 0
DWIDTH 16 0
BBX 16 16 0 -1
BITMAP
0000
3800
0C00
0C00
0C00
0C00
0C00
0600
0C00
0C00
0C00
0C00
0C00
0C00
3800
0000
ENDCHAR

STARTCHAR kor_A3FE
ENCODING 41982
SWIDTH 803 0
DWIDTH 16 0
BBX 16 16 0 -1
BITMAP
0000
3FFE
0000
0000
0000
0000
0000
0000
0000
0000
0000
0000
0000
0000
0000
0000
ENDCHAR

STARTCHAR kor_A4A1
ENCODING 42145
SWIDTH 803 0
DWIDTH 16 0
BBX 16 16 0 -1
BITMAP
0000
0000
0000
0000
0000
0FE0
0070
0030
0030
0030
0060
0000
0000
0000
0000
0000
ENDCHAR

STARTCHAR kor_A4A2
ENCODING 42146
SWIDTH 803 0
DWIDTH 16 0
BBX 16 16 0 -1
BITMAP
0000
0000
0000
0000
0000
0000
0F78
018C
018C
0318
0000
0000
0000
0000
0000
0000
ENDCHAR

STARTCHAR kor_A4A3
ENCODING 42147
SWIDTH 803 0
DWIDTH 16 0
BBX 16 16 0 -1
BITMAP
0000
0000
0000
0000
0000
0FB0
00B0
00B0
0158
016C
02C6
0000
0000
0000
0000
0000
ENDCHAR

STARTCHAR kor_A4A4
ENCODING 42148
SWIDTH 803 0
DWIDTH 16 0
BBX 16 16 0 -1
BITMAP
0000
0000
0000
0000
0300
0600
0600
0600
063C
03E0
0000
0000
0000
0000
0000
0000
ENDCHAR

STARTCHAR kor_A4A5
ENCODING 42149
SWIDTH 803 0
DWIDTH 16 0
BBX 16 16 0 -1
BITMAP
0000
0000
0000
0000
0C00
0CF8
0C0C
0C18
0C38
07EC
0006
0000
0000
0000
0000
0000
ENDCHAR

STARTCHAR kor_A4A6
ENCODING 42150
SWIDTH 803 0
DWIDTH 16 0
BBX 16 16 0 -1
BITMAP
0000
0000
0000
00C0
0C60
0C38
0DFC
0C36
0C36
07BC
0000
0000
0000
0000
0000
0000
ENDCHAR

STARTCHAR kor_A4A7
ENCODING 42151
SWIDTH 803 0
DWIDTH 16 0
BBX 16 16 0 -1
BITMAP
0000
0000
0000
0000
0000
0FF8
0600
0600
0600
03F8
0000
0000
0000
0000
0000
0000
ENDCHAR

STARTCHAR kor_A4A8
ENCODING 42152
SWIDTH 803 0
DWIDTH 16 0
BBX 16 16 0 -1
BITMAP
0000
0000
0000
0000
0000
0000
1FFE
0C60
0C60
0C60
07BE
0000
0000
0000
0000
0000
ENDCHAR

STARTCHAR kor_A4A9
ENCODING 42153
SWIDTH 803 0
DWIDTH 16 0
BBX 16 16 0 -1
BITMAP
0000
0000
0000
0000
0000
0000
0F80
00D8
0198
0330
01E0
0000
0000
0000
0000
0000
ENDCHAR

STARTCHAR kor_A4AA
ENCODING 42154
SWIDTH 803 0
DWIDTH 16 0
BBX 16 16 0 -1
BITMAP
0000
0000
0000
0000
0000
0F78
018C
030C
060C
07CC
0000
0000
0000
0000
0000
0000
ENDCHAR

STARTCHAR kor_A4AB
ENCODING 42155
SWIDTH 803 0
DWIDTH 16 0
BBX 16 16 0 -1
BITMAP
0000
0000
0000
0000
0000
1F7C
0366
0666
0DEC
0F5E
0000
0000
0000
0000
0000
0000
ENDCHAR

STARTCHAR kor_A4AC
ENCODING 42156
SWIDTH 803 0
DWIDTH 16 0
BBX 16 16 0 -1
BITMAP
0000
0000
0000
0000
0000
1F6C
036C
067C
0DEC
0F7C
0000
0000
0000
0000
0000
0000
ENDCHAR

STARTCHAR kor_A4AD
ENCODING 42157
SWIDTH 803 0
DWIDTH 16 0
BBX 16 16 0 -1
BITMAP
0000
0000
0000
0000
0000
1E30
0330
0658
0DCC
0EC6
0000
0000
0000
0000
0000
0000
ENDCHAR

STARTCHAR kor_A4AE
ENCODING 42158
SWIDTH 803 0
DWIDTH 16 0
BBX 16 16 0 -1
BITMAP
0000
0000
0000
0000
0000
1F78
01C0
06F8
0CC0
1BC0
0E78
0000
0000
0000
0000
0000
ENDCHAR

STARTCHAR kor_A4AF
ENCODING 42159
SWIDTH 803 0
DWIDTH 16 0
BBX 16 16 0 -1
BITMAP
0000
0000
0000
0000
0000
1EFE
036C
066C
0C58
1B58
1EFE
0000
0000
0000
0000
0000
ENDCHAR

STARTCHAR kor_A4B0
ENCODING 42160
SWIDTH 803 0
DWIDTH 16 0
BBX 16 16 0 -1
BITMAP
0000
0000
0000
0000
3E70
0318
05FC
0C36
196C
0F38
0000
0000
0000
0000
0000
0000
ENDCHAR

STARTCHAR kor_A4B1
ENCODING 42161
SWIDTH 803 0
DWIDTH 16 0
BBX 16 16 0 -1
BITMAP
0000
0000
0000
0000
0000
05E0
0730
0630
0660
06B8
06E0
0000
0000
0000
0000
0000
ENDCHAR

STARTCHAR kor_A4B2
ENCODING 42162
SWIDTH 803 0
DWIDTH 16 0
BBX 16 16 0 -1
BITMAP
0000
0000
0000
0000
0618
0618
06F8
0598
0598
02F0
0000
0000
0000
0000
0000
0000
ENDCHAR

STARTCHAR kor_A4B3
ENCODING 42163
SWIDTH 803 0
DWIDTH 16 0
BBX 16 16 0 -1
BITMAP
0000
0000
0000
0000
0DD8
0DD8
0FF8
0DD8
0DD8
07F0
0000
0000
0000
0000
0000
0000
ENDCHAR

STARTCHAR kor_A4B4
ENCODING 42164
SWIDTH 803 0
DWIDTH 16 0
BBX 16 16 0 -1
BITMAP
0000
0000
0000
0000
1B30
1B30
1760
1AF0
1AD8
0F8C
0000
0000
0000
0000
0000
0000
ENDCHAR

STARTCHAR kor_A4B5
ENCODING 42165
SWIDTH 803 0
DWIDTH 16 0
BBX 16 16 0 -1
BITMAP
0000
0000
0000
0000
0180
0300
0700
05C0
0C70
181C
0000
0000
0000
0000
0000
0000
ENDCHAR

STARTCHAR kor_A4B6
ENCODING 42166
SWIDTH 803 0
DWIDTH 16 0
BBX 16 16 0 -1
BITMAP
0000
0000
0000
0000
0000
0330
0630
0B58
19CC
3186
0000
0000
0000
0000
0000
0000
ENDCHAR

STARTCHAR kor_A4B7
ENCODING 42167
SWIDTH 803 0
DWIDTH 16 0
BBX 16 16 0 -1
BITMAP
0000
0000
0000
0000
0000
01E0
0330
0630
0660
03C0
0000
0000
0000
0000
0000
0000
ENDCHAR

STARTCHAR kor_A4B8
ENCODING 42168
SWIDTH 803 0
DWIDTH 16 0
BBX 16 16 0 -1
BITMAP
0000
0000
0000
0000
0000
0F80
00C0
00C0
00C0
0160
0338
060C
0000
0000
0000
0000
ENDCHAR

STARTCHAR kor_A4B9
ENCODING 42169
SWIDTH 803 0
DWIDTH 16 0
BBX 16 16 0 -1
BITMAP
0000
0000
0000
0000
1DE0
0330
0330
0660
0770
0DD8
198C
0000
0000
0000
0000
0000
ENDCHAR

STARTCHAR kor_A4BA
ENCODING 42170
SWIDTH 803 0
DWIDTH 16 0
BBX 16 16 0 -1
BITMAP
0000
0000
0000
0380
00C0
07C0
0060
00C0
0160
0330
0618
0000
0000
0000
0000
0000
ENDCHAR

STARTCHAR kor_A4BB
ENCODING 42171
SWIDTH 803 0
DWIDTH 16 0
BBX 16 16 0 -1
BITMAP
0000
0000
0000
0000
0000
07E0
0030
07F0
0030
0030
0060
0000
0000
0000
0000
0000
ENDCHAR

STARTCHAR kor_A4BC
ENCODING 42172
SWIDTH 803 0
DWIDTH 16 0
BBX 16 16 0 -1
BITMAP
0000
0000
0000
0000
0000
0000
0FF8
0600
07F8
0600
03F8
0000
0000
0000
0000
0000
ENDCHAR

STARTCHAR kor_A4BD
ENCODING 42173
SWIDTH 803 0
DWIDTH 16 0
BBX 16 16 0 -1
BITMAP
0000
0000
0000
0000
0000
3FFC
0330
0360
02C0
07F8
0000
0000
0000
0000
0000
0000
ENDCHAR

STARTCHAR kor_A4BE
ENCODING 42174
SWIDTH 803 0
DWIDTH 16 0
BBX 16 16 0 -1
BITMAP
0000
0000
0000
0000
0180
00C0
07E0
00E0
01B0
0330
0330
01E0
0000
0000
0000
0000
ENDCHAR

STARTCHAR kor_A4BF
ENCODING 42175
SWIDTH 803 0
DWIDTH 16 0
BBX 16 16 0 -1
BITMAP
0000
0000
0000
00C0
00C0
00C0
00C0
00F0
00C0
00C0
00C0
00C0
00C0
0060
0000
0000
ENDCHAR

STARTCHAR kor_A4C0
ENCODING 42176
SWIDTH 803 0
DWIDTH 16 0
BBX 16 16 0 -1
BITMAP
0000
0000
0000
00B0
01B0
01B0
01B0
01F0
01B0
01B0
01B0
01B0
01B0
0030
0000
0000
ENDCHAR

STARTCHAR kor_A4C1
ENCODING 42177
SWIDTH 803 0
DWIDTH 16 0
BBX 16 16 0 -1
BITMAP
0000
0000
0000
00C0
00C0
00C0
00F8
00C0
00C0
00F8
00C0
00C0
00C0
0060
0000
0000
ENDCHAR

STARTCHAR kor_A4C2
ENCODING 42178
SWIDTH 803 0
DWIDTH 16 0
BBX 16 16 0 -1
BITMAP
0000
0000
0160
0360
0360
0360
03E0
0360
03E0
0360
0360
0360
0360
0360
0000
0000
ENDCHAR

STARTCHAR kor_A4C3
ENCODING 42179
SWIDTH 803 0
DWIDTH 16 0
BBX 16 16 0 -1
BITMAP
0000
0000
0060
0060
0060
0060
0760
01E0
0060
0060
0060
0060
0060
0060
0000
0000
ENDCHAR

STARTCHAR kor_A4C4
ENCODING 42180
SWIDTH 803 0
DWIDTH 16 0
BBX 16 16 0 -1
BITMAP
0000
0000
00B0
01B0
01B0
01B0
0DB0
07B0
01B0
01B0
01B0
01B0
01B0
0030
0000
0000
ENDCHAR

STARTCHAR kor_A4C5
ENCODING 42181
SWIDTH 803 0
DWIDTH 16 0
BBX 16 16 0 -1
BITMAP
0000
0000
0030
0060
0060
07E0
0060
07E0
0060
0060
0060
0060
0060
0060
0000
0000
ENDCHAR

STARTCHAR kor_A4C6
ENCODING 42182
SWIDTH 803 0
DWIDTH 16 0
BBX 16 16 0 -1
BITMAP
0000
0000
00D8
00D8
01B0
07B0
01B0
0FB0
01B0
01B0
01B0
01B0
00B0
0018
0000
0000
ENDCHAR

STARTCHAR kor_A4C7
ENCODING 42183
SWIDTH 803 0
DWIDTH 16 0
BBX 16 16 0 -1
BITMAP
0000
0000
0000
0000
0000
0000
00C0
00C0
00C0
07FE
0C00
0000
0000
0000
0000
0000
ENDCHAR

STARTCHAR kor_A4C8
ENCODING 42184
SWIDTH 803 0
DWIDTH 16 0
BBX 16 16 0 -1
BITMAP
0000
0000
0000
0018
0018
0030
003C
1836
1870
18B0
1BB0
0E30
0018
0000
0000
0000
ENDCHAR

STARTCHAR kor_A4C9
ENCODING 42185
SWIDTH 803 0
DWIDTH 16 0
BBX 16 16 0 -1
BITMAP
0000
0000
001B
0036
0036
002C
183C
186C
18EC
196C
0F6C
006C
0000
0000
0000
0000
ENDCHAR

STARTCHAR kor_A4CA
ENCODING 42186
SWIDTH 803 0
DWIDTH 16 0
BBX 16 16 0 -1
BITMAP
0000
0000
0000
0006
000C
000C
000C
0C0C
0C1C
0C2C
06EC
038C
000C
0000
0000
0000
ENDCHAR

STARTCHAR kor_A4CB
ENCODING 42187
SWIDTH 803 0
DWIDTH 16 0
BBX 16 16 0 -1
BITMAP
0000
0000
0000
0000
0000
0000
06C0
06C0
06C0
06C6
037C
0000
0000
0000
0000
0000
ENDCHAR

STARTCHAR kor_A4CC
ENCODING 42188
SWIDTH 803 0
DWIDTH 16 0
BBX 16 16 0 -1
BITMAP
0000
0000
0000
0000
0000
0000
007E
3FC0
00C0
00C0
00C0
00C0
00C0
0000
0000
0000
ENDCHAR

STARTCHAR kor_A4CD
ENCODING 42189
SWIDTH 803 0
DWIDTH 16 0
BBX 16 16 0 -1
BITMAP
0000
0000
0000
0006
0006
000C
000C
000C
3F0C
017C
018C
018C
0306
0000
0000
0000
ENDCHAR

STARTCHAR kor_A4CE
ENCODING 42190
SWIDTH 803 0
DWIDTH 16 0
BBX 16 16 0 -1
BITMAP
0000
0000
0000
0006
0016
002C
002C
3FEC
032C
02EC
032C
01AC
000C
0000
0000
0000
ENDCHAR

STARTCHAR kor_A4CF
ENCODING 42191
SWIDTH 803 0
DWIDTH 16 0
BBX 16 16 0 -1
BITMAP
0000
0000
0006
000C
000C
000C
000C
3FEC
030C
030C
030C
018C
0000
0000
0000
0000
ENDCHAR

STARTCHAR kor_A4D0
ENCODING 42192
SWIDTH 803 0
DWIDTH 16 0
BBX 16 16 0 -1
BITMAP
0000
0000
0000
0000
0000
0000
1FFE
3360
0360
0360
0360
0360
0360
0000
0000
0000
ENDCHAR

STARTCHAR kor_A4D1
ENCODING 42193
SWIDTH 803 0
DWIDTH 16 0
BBX 16 16 0 -1
BITMAP
0000
0000
0000
0000
0000
0000
0000
3006
1FFC
0000
0000
0000
0000
0000
0000
0000
ENDCHAR

STARTCHAR kor_A4D2
ENCODING 42194
SWIDTH 803 0
DWIDTH 16 0
BBX 16 16 0 -1
BITMAP
0000
0000
0006
000C
000C
000C
000C
000C
000C
01FC
7F0C
000C
000C
0000
0000
0000
ENDCHAR

STARTCHAR kor_A4D3
ENCODING 42195
SWIDTH 803 0
DWIDTH 16 0
BBX 16 16 0 -1
BITMAP
0000
0000
0060
0060
0060
00C0
00C0
00C0
00C0
00C0
00C0
00C0
0060
0060
0000
0000
ENDCHAR

STARTCHAR kor_A4D4
ENCODING 42196
SWIDTH 803 0
DWIDTH 16 0
BBX 16 16 0 -1
BITMAP
0000
0000
0000
0000
0000
0000
0000
0000
0000
0000
0000
0000
0000
0000
0000
0000
ENDCHAR

STARTCHAR kor_A4D5
ENCODING 42197
SWIDTH 803 0
DWIDTH 16 0
BBX 16 16 0 -1
BITMAP
0000
0000
0000
0000
0000
0C30
0C60
0C60
0CE6
07BC
0000
0000
0000
0000
0000
0000
ENDCHAR

STARTCHAR kor_A4D6
ENCODING 42198
SWIDTH 803 0
DWIDTH 16 0
BBX 16 16 0 -1
BITMAP
0000
0000
0000
0000
0000
0000
19FC
18C0
18C0
18C0
0FFC
0000
0000
0000
0000
0000
ENDCHAR

STARTCHAR kor_A4D7
ENCODING 42199
SWIDTH 803 0
DWIDTH 16 0
BBX 16 16 0 -1
BITMAP
0000
0000
0000
0000
0000
0000
0C30
0C30
0C38
0CEC
0766
0000
0000
0000
0000
0000
ENDCHAR

STARTCHAR kor_A4D8
ENCODING 42200
SWIDTH 803 0
DWIDTH 16 0
BBX 16 16 0 -1
BITMAP
0000
0000
0000
0000
0000
1830
1858
18D8
198C
0FFC
0000
0000
0000
0000
0000
0000
ENDCHAR

STARTCHAR kor_A4D9
ENCODING 42201
SWIDTH 803 0
DWIDTH 16 0
BBX 16 16 0 -1
BITMAP
0000
0000
0000
0000
0000
3BCC
066C
0C58
185C
3776
1CC3
0000
0000
0000
0000
0000
ENDCHAR

STARTCHAR kor_A4DA
ENCODING 42202
SWIDTH 803 0
DWIDTH 16 0
BBX 16 16 0 -1
BITMAP
0000
0000
0000
0000
0000
1DFC
02C0
06C0
0CC0
19CC
0F78
0000
0000
0000
0000
0000
ENDCHAR

STARTCHAR kor_A4DB
ENCODING 42203
SWIDTH 803 0
DWIDTH 16 0
BBX 16 16 0 -1
BITMAP
0000
0000
0000
0000
0000
3B6C
076C
1BDC
3356
3773
1DE0
0000
0000
0000
0000
0000
ENDCHAR

STARTCHAR kor_A4DC
ENCODING 42204
SWIDTH 803 0
DWIDTH 16 0
BBX 16 16 0 -1
BITMAP
0000
0000
0000
0000
0000
0000
1E30
0358
0658
0DCC
1ACC
0EFC
0000
0000
0000
0000
ENDCHAR

STARTCHAR kor_A4DD
ENCODING 42205
SWIDTH 803 0
DWIDTH 16 0
BBX 16 16 0 -1
BITMAP
0000
0000
0000
0000
0000
0000
1EFE
0180
0738
0C6C
196C
0F38
0000
0000
0000
0000
ENDCHAR

STARTCHAR kor_A4DE
ENCODING 42206
SWIDTH 803 0
DWIDTH 16 0
BBX 16 16 0 -1
BITMAP
0000
0000
0000
0000
0000
0000
1766
1D66
197E
1B66
17BC
0000
0000
0000
0000
0000
ENDCHAR

STARTCHAR kor_A4DF
ENCODING 42207
SWIDTH 803 0
DWIDTH 16 0
BBX 16 16 0 -1
BITMAP
0000
0000
0000
0000
0000
0000
170C
1D8C
1998
1BB8
166C
17E6
0000
0000
0000
0000
ENDCHAR

STARTCHAR kor_A4E0
ENCODING 42208
SWIDTH 803 0
DWIDTH 16 0
BBX 16 16 0 -1
BITMAP
0000
0000
0000
0000
0000
170C
1D9C
19B6
19B6
1B63
177F
0000
0000
0000
0000
0000
ENDCHAR

STARTCHAR kor_A4E1
ENCODING 42209
SWIDTH 803 0
DWIDTH 16 0
BBX 16 16 0 -1
BITMAP
0000
0000
05E0
0730
0630
0630
0660
05F0
0000
03E0
0630
0630
0630
03E0
0000
0000
ENDCHAR

STARTCHAR kor_A4E2
ENCODING 42210
SWIDTH 803 0
DWIDTH 16 0
BBX 16 16 0 -1
BITMAP
0000
0000
0000
0000
0000
0C00
197C
1986
1F86
198C
1998
0F30
0000
0000
0000
0000
ENDCHAR

STARTCHAR kor_A4E3
ENCODING 42211
SWIDTH 803 0
DWIDTH 16 0
BBX 16 16 0 -1
BITMAP
0000
0000
0000
0000
1800
31FE
3160
3760
2D60
2DBE
1700
0000
0000
0000
0000
0000
ENDCHAR

STARTCHAR kor_A4E4
ENCODING 42212
SWIDTH 803 0
DWIDTH 16 0
BBX 16 16 0 -1
BITMAP
0000
0000
0000
0000
3030
333E
3363
2F63
3AB3
32DB
1D8B
0000
0000
0000
0000
0000
ENDCHAR

STARTCHAR kor_A4E5
ENCODING 42213
SWIDTH 803 0
DWIDTH 16 0
BBX 16 16 0 -1
BITMAP
0000
0000
0000
0000
0000
3060
667F
66D8
5ED8
75D8
75B9
3F0F
0000
0000
0000
0000
ENDCHAR

STARTCHAR kor_A4E6
ENCODING 42214
SWIDTH 803 0
DWIDTH 16 0
BBX 16 16 0 -1
BITMAP
0000
0000
0000
0000
3000
317C
3186
2F8C
399C
39B7
1EE3
0000
0000
0000
0000
0000
ENDCHAR

STARTCHAR kor_A4E7
ENCODING 42215
SWIDTH 803 0
DWIDTH 16 0
BBX 16 16 0 -1
BITMAP
0000
0000
0000
0000
1800
19FC
1960
1F7C
1960
1960
0F3C
0000
0000
0000
0000
0000
ENDCHAR

STARTCHAR kor_A4E8
ENCODING 42216
SWIDTH 803 0
DWIDTH 16 0
BBX 16 16 0 -1
BITMAP
0000
0600
0630
0630
05F0
0730
0730
03E0
0000
03E0
0630
0630
0630
03E0
0000
0000
ENDCHAR

STARTCHAR kor_A4E9
ENCODING 42217
SWIDTH 803 0
DWIDTH 16 0
BBX 16 16 0 -1
BITMAP
0000
0000
0DD8
0DD8
0DD8
0FF8
0DD8
07F0
0000
03E0
0630
0630
0630
03E0
0000
0000
ENDCHAR

STARTCHAR kor_A4EA
ENCODING 42218
SWIDTH 803 0
DWIDTH 16 0
BBX 16 16 0 -1
BITMAP
0000
0000
0000
0000
06F8
060C
0C0C
0E0C
1B18
3170
0000
0000
0000
0000
0000
0000
ENDCHAR

STARTCHAR kor_A4EB
ENCODING 42219
SWIDTH 803 0
DWIDTH 16 0
BBX 16 16 0 -1
BITMAP
0000
0000
0000
0000
0360
0360
0660
0B60
1967
30BC
0000
0000
0000
0000
0000
0000
ENDCHAR

STARTCHAR kor_A4EC
ENCODING 42220
SWIDTH 803 0
DWIDTH 16 0
BBX 16 16 0 -1
BITMAP
0000
0000
0000
0000
0300
02FF
0660
0660
0B60
19E7
303C
0000
0000
0000
0000
0000
ENDCHAR

STARTCHAR kor_A4ED
ENCODING 42221
SWIDTH 803 0
DWIDTH 16 0
BBX 16 16 0 -1
BITMAP
0000
0000
0000
0000
02C6
06C6
06C6
0EBE
1AE6
3166
007C
0000
0000
0000
0000
0000
ENDCHAR

STARTCHAR kor_A4EE
ENCODING 42222
SWIDTH 803 0
DWIDTH 16 0
BBX 16 16 0 -1
BITMAP
0000
0000
0000
0000
0600
05F0
0C18
0C30
1670
33D8
018C
0000
0000
0000
0000
0000
ENDCHAR

STARTCHAR kor_A4EF
ENCODING 42223
SWIDTH 803 0
DWIDTH 16 0
BBX 16 16 0 -1
BITMAP
0000
0000
0000
0000
0000
0180
01C0
0360
0330
0630
07F0
0000
0000
0000
0000
0000
ENDCHAR

STARTCHAR kor_A4F0
ENCODING 42224
SWIDTH 803 0
DWIDTH 16 0
BBX 16 16 0 -1
BITMAP
0000
0000
0000
0000
0000
0F78
0B58
19CC
19CC
19CC
0F78
0000
0000
0000
0000
0000
ENDCHAR

STARTCHAR kor_A4F1
ENCODING 42225
SWIDTH 803 0
DWIDTH 16 0
BBX 16 16 0 -1
BITMAP
0000
0000
0000
0000
0000
03E0
0630
0630
0630
03E0
0000
0000
0000
0000
0000
0000
ENDCHAR

STARTCHAR kor_A4F2
ENCODING 42226
SWIDTH 803 0
DWIDTH 16 0
BBX 16 16 0 -1
BITMAP
0000
0000
0000
0000
0F18
0B30
19B0
1970
1958
0ECC
0000
0000
0000
0000
0000
0000
ENDCHAR

STARTCHAR kor_A4F3
ENCODING 42227
SWIDTH 803 0
DWIDTH 16 0
BBX 16 16 0 -1
BITMAP
0000
0000
0000
0000
0E30
0B30
1958
1958
19CC
0EFC
0000
0000
0000
0000
0000
0000
ENDCHAR

STARTCHAR kor_A4F4
ENCODING 42228
SWIDTH 803 0
DWIDTH 16 0
BBX 16 16 0 -1
BITMAP
0000
0000
0000
0FF8
0360
0360
02C0
0FF0
0000
03E0
0630
0630
0630
03E0
0000
0000
ENDCHAR

STARTCHAR kor_A4F5
ENCODING 42229
SWIDTH 803 0
DWIDTH 16 0
BBX 16 16 0 -1
BITMAP
0000
0000
0000
0E70
0018
1FF0
0338
056C
0CCC
0DD8
0770
0000
0000
0000
0000
0000
ENDCHAR

STARTCHAR kor_A4F6
ENCODING 42230
SWIDTH 803 0
DWIDTH 16 0
BBX 16 16 0 -1
BITMAP
0000
0000
0000
0000
0000
1FFC
0000
03E0
0630
0630
0630
03E0
0000
0000
0000
0000
ENDCHAR

STARTCHAR kor_A4F7
ENCODING 42231
SWIDTH 803 0
DWIDTH 16 0
BBX 16 16 0 -1
BITMAP
0000
0000
0000
0000
0018
0018
0018
001E
0018
059E
0598
3FF8
0018
001C
0000
0000
ENDCHAR

STARTCHAR kor_A4F8
ENCODING 42232
SWIDTH 803 0
DWIDTH 16 0
BBX 16 16 0 -1
BITMAP
0000
0000
002C
006C
006C
006C
007C
006C
0B7C
0B6C
3FEC
002C
0006
0000
0000
0000
ENDCHAR

STARTCHAR kor_A4F9
ENCODING 42233
SWIDTH 803 0
DWIDTH 16 0
BBX 16 16 0 -1
BITMAP
0000
0000
000C
000C
000C
000C
000C
058C
058C
058C
1FEC
000C
000C
0000
0000
0000
ENDCHAR

STARTCHAR kor_A4FA
ENCODING 42234
SWIDTH 803 0
DWIDTH 16 0
BBX 16 16 0 -1
BITMAP
0000
000C
0018
0018
0018
01F8
0018
01F8
0018
3FF8
0D98
0D98
0D98
000C
0000
0000
ENDCHAR

STARTCHAR kor_A4FB
ENCODING 42235
SWIDTH 803 0
DWIDTH 16 0
BBX 16 16 0 -1
BITMAP
0000
0016
0016
0016
0016
00F6
0016
00F6
0016
3FD6
0D96
0D96
0D9B
0000
0000
0000
ENDCHAR

STARTCHAR kor_A4FC
ENCODING 42236
SWIDTH 803 0
DWIDTH 16 0
BBX 16 16 0 -1
BITMAP
0000
0000
000C
000C
000C
000C
000C
000C
000C
03FC
3ECC
06CC
06C0
0000
0000
0000
ENDCHAR

STARTCHAR kor_A4FD
ENCODING 42237
SWIDTH 803 0
DWIDTH 16 0
BBX 16 16 0 -1
BITMAP
0000
0000
0000
0000
0000
0000
0000
01C0
01C0
0000
0000
0000
0000
0000
0000
0000
ENDCHAR

STARTCHAR kor_A4FE
ENCODING 42238
SWIDTH 803 0
DWIDTH 16 0
BBX 16 16 0 -1
BITMAP
0000
0000
0000
0030
0030
0030
0030
0730
0730
0030
0030
0030
0030
0030
0000
0000
ENDCHAR

STARTCHAR kor_A5A1
ENCODING 42401
SWIDTH 803 0
DWIDTH 16 0
BBX 16 16 0 -1
BITMAP
0000
0000
0180
0180
0000
0000
0180
0380
0180
0180
0180
0180
0180
07E0
0000
0000
ENDCHAR

STARTCHAR kor_A5A2
ENCODING 42402
SWIDTH 803 0
DWIDTH 16 0
BBX 16 16 0 -1
BITMAP
0000
0000
0660
0660
0000
0000
0660
0EE0
0660
0660
0660
0660
0660
1EF8
0000
0000
ENDCHAR

STARTCHAR kor_A5A3
ENCODING 42403
SWIDTH 803 0
DWIDTH 16 0
BBX 16 16 0 -1
BITMAP
0000
0000
0DB0
0DB0
0000
0000
0DB0
1B70
0DB0
0DB0
0DB0
0DB0
0DB0
3D7C
0000
0000
ENDCHAR

STARTCHAR kor_A5A4
ENCODING 42404
SWIDTH 803 0
DWIDTH 16 0
BBX 16 16 0 -1
BITMAP
0000
0000
0C00
0C00
0000
0000
0BBC
1D98
0D98
0CB0
0CB0
0CB0
0C60
3E60
0000
0000
ENDCHAR

STARTCHAR kor_A5A5
ENCODING 42405
SWIDTH 803 0
DWIDTH 16 0
BBX 16 16 0 -1
BITMAP
0000
0000
0000
0000
0000
0000
1E78
0C30
0660
0660
02C0
02C0
0180
0180
0000
0000
ENDCHAR

STARTCHAR kor_A5A6
ENCODING 42406
SWIDTH 803 0
DWIDTH 16 0
BBX 16 16 0 -1
BITMAP
0000
0000
0000
0030
0030
0000
3BB0
1970
19B0
0B30
0B30
0B30
0630
06FC
0000
0000
ENDCHAR

STARTCHAR kor_A5A7
ENCODING 42407
SWIDTH 803 0
DWIDTH 16 0
BBX 16 16 0 -1
BITMAP
0000
0000
002C
002C
0000
0000
3BAC
197C
19AC
0B2C
0B2C
0B2C
062C
067E
0000
0000
ENDCHAR

STARTCHAR kor_A5A8
ENCODING 42408
SWIDTH 803 0
DWIDTH 16 0
BBX 16 16 0 -1
BITMAP
0000
0000
0056
0056
0000
0000
3BD6
197E
1956
0B56
0B56
0B56
0656
06FF
0000
0000
ENDCHAR

STARTCHAR kor_A5A9
ENCODING 42409
SWIDTH 803 0
DWIDTH 16 0
BBX 16 16 0 -1
BITMAP
0000
0000
1800
1800
0000
0000
1BBC
3998
18B0
1860
1860
18B0
1998
7BBC
0000
0000
ENDCHAR

STARTCHAR kor_A5AA
ENCODING 42410
SWIDTH 803 0
DWIDTH 16 0
BBX 16 16 0 -1
BITMAP
0000
0000
0000
0000
0000
0000
1E78
0C30
0660
03C0
03C0
0660
0C30
1E78
0000
0000
ENDCHAR

STARTCHAR kor_A5B0
ENCODING 42416
SWIDTH 803 0
DWIDTH 16 0
BBX 16 16 0 -1
BITMAP
0000
0000
0FF0
0180
0180
0180
0180
0180
0180
0180
0180
0180
0180
0FF0
0000
0000
ENDCHAR

STARTCHAR kor_A5B1
ENCODING 42417
SWIDTH 803 0
DWIDTH 16 0
BBX 16 16 0 -1
BITMAP
0000
0000
1FF8
0660
0660
0660
0660
0660
0660
0660
0660
0660
0660
1FF8
0000
0000
ENDCHAR

STARTCHAR kor_A5B2
ENCODING 42418
SWIDTH 803 0
DWIDTH 16 0
BBX 16 16 0 -1
BITMAP
0000
0000
3FFC
0DB0
0DB0
0DB0
0DB0
0DB0
0DB0
0DB0
0DB0
0DB0
0DB0
3FFC
0000
0000
ENDCHAR

STARTCHAR kor_A5B3
ENCODING 42419
SWIDTH 803 0
DWIDTH 16 0
BBX 16 16 0 -1
BITMAP
0000
0000
7F9F
1B0C
1B0C
1998
1998
1998
18B0
18B0
18B0
1860
1860
7E60
0000
0000
ENDCHAR

STARTCHAR kor_A5B4
ENCODING 42420
SWIDTH 803 0
DWIDTH 16 0
BBX 16 16 0 -1
BITMAP
0000
0000
7C3E
1818
1818
0C30
0C30
0660
0660
0660
02C0
02C0
0180
0180
0000
0000
ENDCHAR

STARTCHAR kor_A5B5
ENCODING 42421
SWIDTH 803 0
DWIDTH 16 0
BBX 16 16 0 -1
BITMAP
0000
0000
7CFF
186C
186C
0CCC
0CCC
0CCC
058C
058C
058C
030C
030C
033F
0000
0000
ENDCHAR

STARTCHAR kor_A5B6
ENCODING 42422
SWIDTH 803 0
DWIDTH 16 0
BBX 16 16 0 -1
BITMAP
0000
0000
79FF
30B6
30B6
19B6
19B6
19B6
0B36
0B36
0B36
0636
0636
067F
0000
0000
ENDCHAR

STARTCHAR kor_A5B7
ENCODING 42423
SWIDTH 803 0
DWIDTH 16 0
BBX 16 16 0 -1
BITMAP
0000
0000
77FF
3356
3356
3356
1656
1656
1656
1656
0C56
0C56
0C56
0CFF
0000
0000
ENDCHAR

STARTCHAR kor_A5B8
ENCODING 42424
SWIDTH 803 0
DWIDTH 16 0
BBX 16 16 0 -1
BITMAP
0000
0000
7F9E
1B0C
1998
1998
18B0
1860
1860
18B0
1998
1998
1B0C
7F9E
0000
0000
ENDCHAR

STARTCHAR kor_A5B9
ENCODING 42425
SWIDTH 803 0
DWIDTH 16 0
BBX 16 16 0 -1
BITMAP
0000
0000
7C3E
1818
0C30
0660
02C0
0180
0180
02C0
0660
0C30
1818
7C3E
0000
0000
ENDCHAR

STARTCHAR kor_A5C1
ENCODING 42433
SWIDTH 803 0
DWIDTH 16 0
BBX 16 16 0 -1
BITMAP
0000
0000
0180
0180
02C0
02C0
0660
0660
0C30
0FF0
1818
1818
300C
781E
0000
0000
ENDCHAR

STARTCHAR kor_A5C2
ENCODING 42434
SWIDTH 803 0
DWIDTH 16 0
BBX 16 16 0 -1
BITMAP
0000
0000
1FF0
0C18
0C0C
0C0C
0C18
0FF0
0C18
0C0C
0C0C
0C0C
0C18
1FF0
0000
0000
ENDCHAR

STARTCHAR kor_A5C3
ENCODING 42435
SWIDTH 803 0
DWIDTH 16 0
BBX 16 16 0 -1
BITMAP
0000
0000
3FFC
0C0C
0C0C
0C0C
0C00
0C00
0C00
0C00
0C00
0C00
0C00
3F00
0000
0000
ENDCHAR

STARTCHAR kor_A5C4
ENCODING 42436
SWIDTH 803 0
DWIDTH 16 0
BBX 16 16 0 -1
BITMAP
0000
0000
0180
0180
02C0
02C0
0660
0660
0C30
0C30
1818
1818
300C
3FFC
0000
0000
ENDCHAR

STARTCHAR kor_A5C5
ENCODING 42437
SWIDTH 803 0
DWIDTH 16 0
BBX 16 16 0 -1
BITMAP
0000
0000
1FFC
0C0C
0C0C
0C00
0C30
0FF0
0C30
0C00
0C00
0C0C
0C0C
1FFC
0000
0000
ENDCHAR

STARTCHAR kor_A5C6
ENCODING 42438
SWIDTH 803 0
DWIDTH 16 0
BBX 16 16 0 -1
BITMAP
0000
0000
1FFC
180C
1818
0030
0060
00C0
0180
0300
060C
0C0C
180C
1FFC
0000
0000
ENDCHAR

STARTCHAR kor_A5C7
ENCODING 42439
SWIDTH 803 0
DWIDTH 16 0
BBX 16 16 0 -1
BITMAP
0000
0000
3C3C
1818
1818
1818
1818
1FF8
1818
1818
1818
1818
1818
3C3C
0000
0000
ENDCHAR

STARTCHAR kor_A5C8
ENCODING 42440
SWIDTH 803 0
DWIDTH 16 0
BBX 16 16 0 -1
BITMAP
0000
0000
03E0
0630
0C18
180C
162C
17EC
162C
180C
180C
0C18
0630
03E0
0000
0000
ENDCHAR

STARTCHAR kor_A5C9
ENCODING 42441
SWIDTH 803 0
DWIDTH 16 0
BBX 16 16 0 -1
BITMAP
0000
0000
07E0
0180
0180
0180
0180
0180
0180
0180
0180
0180
0180
07E0
0000
0000
ENDCHAR

STARTCHAR kor_A5CA
ENCODING 42442
SWIDTH 803 0
DWIDTH 16 0
BBX 16 16 0 -1
BITMAP
0000
0000
3C3C
1818
1830
18E0
1980
1B00
1D80
18C0
1860
1830
1818
3C3C
0000
0000
ENDCHAR

STARTCHAR kor_A5CB
ENCODING 42443
SWIDTH 803 0
DWIDTH 16 0
BBX 16 16 0 -1
BITMAP
0000
0000
0180
0180
02C0
02C0
0660
0660
0C30
0C30
1818
1818
300C
781E
0000
0000
ENDCHAR

STARTCHAR kor_A5CC
ENCODING 42444
SWIDTH 803 0
DWIDTH 16 0
BBX 16 16 0 -1
BITMAP
0000
0000
381C
1C38
1C38
1658
1658
1AD8
1AD8
1998
1998
1818
1818
3C3C
0000
0000
ENDCHAR

STARTCHAR kor_A5CD
ENCODING 42445
SWIDTH 803 0
DWIDTH 16 0
BBX 16 16 0 -1
BITMAP
0000
0000
381E
1C0C
160C
1B0C
1B0C
198C
18CC
186C
186C
182C
181C
3C0E
0000
0000
ENDCHAR

STARTCHAR kor_A5CE
ENCODING 42446
SWIDTH 803 0
DWIDTH 16 0
BBX 16 16 0 -1
BITMAP
0000
0000
1FFC
180C
180C
0630
0630
07F0
0630
0630
0000
180C
180C
1FFC
0000
0000
ENDCHAR

STARTCHAR kor_A5CF
ENCODING 42447
SWIDTH 803 0
DWIDTH 16 0
BBX 16 16 0 -1
BITMAP
0000
0000
03E0
0630
0C18
180C
180C
180C
180C
180C
180C
0C18
0630
03E0
0000
0000
ENDCHAR

STARTCHAR kor_A5D0
ENCODING 42448
SWIDTH 803 0
DWIDTH 16 0
BBX 16 16 0 -1
BITMAP
0000
0000
3FFC
0C30
0C30
0C30
0C30
0C30
0C30
0C30
0C30
0C30
0C30
3E7C
0000
0000
ENDCHAR

STARTCHAR kor_A5D1
ENCODING 42449
SWIDTH 803 0
DWIDTH 16 0
BBX 16 16 0 -1
BITMAP
0000
0000
3FF0
0C18
0C0C
0C0C
0C0C
0C0C
0C18
0FF0
0C00
0C00
0C00
3F00
0000
0000
ENDCHAR

STARTCHAR kor_A5D2
ENCODING 42450
SWIDTH 803 0
DWIDTH 16 0
BBX 16 16 0 -1
BITMAP
0000
0000
1FFC
0C0C
060C
0600
0300
0180
0180
0300
0600
060C
0C0C
1FFC
0000
0000
ENDCHAR

STARTCHAR kor_A5D3
ENCODING 42451
SWIDTH 803 0
DWIDTH 16 0
BBX 16 16 0 -1
BITMAP
0000
0000
3FFC
318C
318C
318C
0180
0180
0180
0180
0180
0180
0180
07E0
0000
0000
ENDCHAR

STARTCHAR kor_A5D4
ENCODING 42452
SWIDTH 803 0
DWIDTH 16 0
BBX 16 16 0 -1
BITMAP
0000
0000
0E70
1AD8
32CC
0180
0180
0180
0180
0180
0180
0180
0180
07E0
0000
0000
ENDCHAR

STARTCHAR kor_A5D5
ENCODING 42453
SWIDTH 803 0
DWIDTH 16 0
BBX 16 16 0 -1
BITMAP
0000
0000
07E0
0180
0FF0
1998
318C
318C
318C
318C
1998
0FF0
0180
07E0
0000
0000
ENDCHAR

STARTCHAR kor_A5D6
ENCODING 42454
SWIDTH 803 0
DWIDTH 16 0
BBX 16 16 0 -1
BITMAP
0000
0000
1E3C
0C18
0630
0360
0360
01C0
01C0
0360
0360
0630
0C18
1E3C
0000
0000
ENDCHAR

STARTCHAR kor_A5D7
ENCODING 42455
SWIDTH 803 0
DWIDTH 16 0
BBX 16 16 0 -1
BITMAP
0000
0000
33CC
1998
1998
1998
1998
1998
0DB0
07E0
0180
0180
0180
07E0
0000
0000
ENDCHAR

STARTCHAR kor_A5D8
ENCODING 42456
SWIDTH 803 0
DWIDTH 16 0
BBX 16 16 0 -1
BITMAP
0000
0000
03E0
0630
0C18
180C
180C
180C
180C
0C18
0630
1B6C
1B6C
1F7C
0000
0000
ENDCHAR

STARTCHAR kor_A5E1
ENCODING 42465
SWIDTH 803 0
DWIDTH 16 0
BBX 16 16 0 -1
BITMAP
0000
0000
0000
0000
01F6
0716
0C16
181C
180C
3018
3018
303B
1856
0FCC
0000
0000
ENDCHAR

STARTCHAR kor_A5E2
ENCODING 42466
SWIDTH 803 0
DWIDTH 16 0
BBX 16 16 0 -1
BITMAP
0000
0000
01F8
030C
0606
0606
060C
0BF8
0C18
0C0C
180C
180C
1C18
37F0
3000
3000
ENDCHAR

STARTCHAR kor_A5E3
ENCODING 42467
SWIDTH 803 0
DWIDTH 16 0
BBX 16 16 0 -1
BITMAP
0000
0000
0000
0000
1F3F
3160
00C0
0180
0180
0300
0300
0300
0600
0600
0600
0000
ENDCHAR

STARTCHAR kor_A5E4
ENCODING 42468
SWIDTH 803 0
DWIDTH 16 0
BBX 16 16 0 -1
BITMAP
0000
0000
03F0
0618
030C
01E0
07B0
0C18
1818
3018
3018
3030
3030
18E0
0F80
0000
ENDCHAR

STARTCHAR kor_A5E5
ENCODING 42469
SWIDTH 803 0
DWIDTH 16 0
BBX 16 16 0 -1
BITMAP
0000
0000
0000
07F0
0C18
180C
1800
0FC0
1C00
3000
3000
1818
0FF0
0000
0000
0000
ENDCHAR

STARTCHAR kor_A5E6
ENCODING 42470
SWIDTH 803 0
DWIDTH 16 0
BBX 16 16 0 -1
BITMAP
0700
0C0C
1838
0FE0
0180
0300
0600
0C00
0C00
1800
1800
1800
0C00
07F0
0018
00F0
ENDCHAR

STARTCHAR kor_A5E7
ENCODING 42471
SWIDTH 803 0
DWIDTH 16 0
BBX 16 16 0 -1
BITMAP
0000
0000
0F78
19CC
0186
0306
030C
060C
060C
0018
0018
0018
0030
0030
0030
0000
ENDCHAR

STARTCHAR kor_A5E8
ENCODING 42472
SWIDTH 803 0
DWIDTH 16 0
BBX 16 16 0 -1
BITMAP
0000
0000
03F0
0618
0C0C
0C0C
180C
180C
1FFC
3018
3018
3030
3030
1860
0FC0
0000
ENDCHAR

STARTCHAR kor_A5E9
ENCODING 42473
SWIDTH 803 0
DWIDTH 16 0
BBX 16 16 0 -1
BITMAP
0000
0000
0000
0300
0300
0300
0600
0600
0630
0C30
0C60
0C60
07C0
0000
0000
0000
ENDCHAR

STARTCHAR kor_A5EA
ENCODING 42474
SWIDTH 803 0
DWIDTH 16 0
BBX 16 16 0 -1
BITMAP
0000
0000
0300
0306
061C
0670
0DC0
0F00
1C00
1980
3180
3330
6360
61C0
0000
0000
ENDCHAR

STARTCHAR kor_A5EB
ENCODING 42475
SWIDTH 803 0
DWIDTH 16 0
BBX 16 16 0 -1
BITMAP
03E0
0030
0030
0030
0030
0030
0070
0070
00B0
01B0
0330
0630
0C30
381E
0000
0000
ENDCHAR

STARTCHAR kor_A5EC
ENCODING 42476
SWIDTH 803 0
DWIDTH 16 0
BBX 16 16 0 -1
BITMAP
0000
0000
0000
0C18
0C18
0C18
0C18
1830
1830
1830
1830
2C6C
37B8
3000
3000
0000
ENDCHAR

STARTCHAR kor_A5ED
ENCODING 42477
SWIDTH 803 0
DWIDTH 16 0
BBX 16 16 0 -1
BITMAP
0000
0000
0000
1818
0C0C
060C
060C
060C
0618
0618
0C70
0DC0
1F00
0000
0000
0000
ENDCHAR

STARTCHAR kor_A5EE
ENCODING 42478
SWIDTH 803 0
DWIDTH 16 0
BBX 16 16 0 -1
BITMAP
01E0
0300
01FC
0700
0C00
0C00
07F0
1C00
3000
3000
1800
0FF0
0018
0018
01F0
0000
ENDCHAR

STARTCHAR kor_A5EF
ENCODING 42479
SWIDTH 803 0
DWIDTH 16 0
BBX 16 16 0 -1
BITMAP
0000
0000
0000
03E0
0630
0C18
180C
180C
180C
180C
180C
0C18
0630
03E0
0000
0000
ENDCHAR

STARTCHAR kor_A5F0
ENCODING 42480
SWIDTH 803 0
DWIDTH 16 0
BBX 16 16 0 -1
BITMAP
0000
0000
0000
1FFE
3330
0330
0330
0330
0660
0660
0C60
0C60
1866
303C
0000
0000
ENDCHAR

STARTCHAR kor_A5F1
ENCODING 42481
SWIDTH 803 0
DWIDTH 16 0
BBX 16 16 0 -1
BITMAP
0000
0000
01F8
030C
0606
0606
0606
0C06
0C0C
0E0C
0B18
19F0
1800
1800
1800
1800
ENDCHAR

STARTCHAR kor_A5F2
ENCODING 42482
SWIDTH 803 0
DWIDTH 16 0
BBX 16 16 0 -1
BITMAP
0000
0000
0000
07FC
0C60
1830
3018
3018
3018
3018
3018
1C70
07C0
0000
0000
0000
ENDCHAR

STARTCHAR kor_A5F3
ENCODING 42483
SWIDTH 803 0
DWIDTH 16 0
BBX 16 16 0 -1
BITMAP
0000
0000
0000
0000
0FFE
18C0
30C0
0180
0180
0180
0300
0318
0330
01E0
0000
0000
ENDCHAR

STARTCHAR kor_A5F4
ENCODING 42484
SWIDTH 803 0
DWIDTH 16 0
BBX 16 16 0 -1
BITMAP
0000
0000
0000
0C18
360C
060C
060C
0C0C
0C0C
0C18
0C18
0630
03E0
0000
0000
0000
ENDCHAR

STARTCHAR kor_A5F5
ENCODING 42485
SWIDTH 803 0
DWIDTH 16 0
BBX 16 16 0 -1
BITMAP
0000
0030
0030
03F0
0658
0C6C
18CC
18CC
318C
3198
3198
3330
1B60
0FC0
0600
0600
ENDCHAR

STARTCHAR kor_A5F6
ENCODING 42486
SWIDTH 803 0
DWIDTH 16 0
BBX 16 16 0 -1
BITMAP
0000
0000
1C06
360C
0618
0318
01B0
0160
01C0
0160
0360
0630
0618
0C1B
180E
0000
ENDCHAR

STARTCHAR kor_A5F7
ENCODING 42487
SWIDTH 803 0
DWIDTH 16 0
BBX 16 16 0 -1
BITMAP
0000
0060
0060
0060
0C6C
0CCC
0CCC
18CC
18D8
1998
1998
0DB0
07E0
0300
0300
0300
ENDCHAR

STARTCHAR kor_A5F8
ENCODING 42488
SWIDTH 803 0
DWIDTH 16 0
BBX 16 16 0 -1
BITMAP
0000
0000
0000
0000
060C
0C06
1803
30C3
30C3
30C3
3163
3366
1E3C
0000
0000
0000
ENDCHAR

STARTCHAR kor_A6A1
ENCODING 42657
SWIDTH 803 0
DWIDTH 16 0
BBX 16 16 0 -1
BITMAP
0000
0000
0000
0000
0000
0000
0000
FFFF
0000
0000
0000
0000
0000
0000
0000
0000
ENDCHAR

STARTCHAR kor_A6A2
ENCODING 42658
SWIDTH 803 0
DWIDTH 16 0
BBX 16 16 0 -1
BITMAP
0180
0180
0180
0180
0180
0180
0180
0180
0180
0180
0180
0180
0180
0180
0180
0180
ENDCHAR

STARTCHAR kor_A6A3
ENCODING 42659
SWIDTH 803 0
DWIDTH 16 0
BBX 16 16 0 -1
BITMAP
0000
0000
0000
0000
0000
0000
0000
01FF
0180
0180
0180
0180
0180
0180
0180
0180
ENDCHAR

STARTCHAR kor_A6A4
ENCODING 42660
SWIDTH 803 0
DWIDTH 16 0
BBX 16 16 0 -1
BITMAP
0000
0000
0000
0000
0000
0000
0000
FF80
0180
0180
0180
0180
0180
0180
0180
0180
ENDCHAR

STARTCHAR kor_A6A5
ENCODING 42661
SWIDTH 803 0
DWIDTH 16 0
BBX 16 16 0 -1
BITMAP
0180
0180
0180
0180
0180
0180
0180
FF80
0000
0000
0000
0000
0000
0000
0000
0000
ENDCHAR

STARTCHAR kor_A6A6
ENCODING 42662
SWIDTH 803 0
DWIDTH 16 0
BBX 16 16 0 -1
BITMAP
0180
0180
0180
0180
0180
0180
0180
01FF
0000
0000
0000
0000
0000
0000
0000
0000
ENDCHAR

STARTCHAR kor_A6A7
ENCODING 42663
SWIDTH 803 0
DWIDTH 16 0
BBX 16 16 0 -1
BITMAP
0180
0180
0180
0180
0180
0180
0180
01FF
0180
0180
0180
0180
0180
0180
0180
0180
ENDCHAR

STARTCHAR kor_A6A8
ENCODING 42664
SWIDTH 803 0
DWIDTH 16 0
BBX 16 16 0 -1
BITMAP
0000
0000
0000
0000
0000
0000
0000
FFFF
0180
0180
0180
0180
0180
0180
0180
0180
ENDCHAR

STARTCHAR kor_A6A9
ENCODING 42665
SWIDTH 803 0
DWIDTH 16 0
BBX 16 16 0 -1
BITMAP
0180
0180
0180
0180
0180
0180
0180
FF80
0180
0180
0180
0180
0180
0180
0180
0180
ENDCHAR

STARTCHAR kor_A6AA
ENCODING 42666
SWIDTH 803 0
DWIDTH 16 0
BBX 16 16 0 -1
BITMAP
0180
0180
0180
0180
0180
0180
0180
FFFF
0000
0000
0000
0000
0000
0000
0000
0000
ENDCHAR

STARTCHAR kor_A6AB
ENCODING 42667
SWIDTH 803 0
DWIDTH 16 0
BBX 16 16 0 -1
BITMAP
0180
0180
0180
0180
0180
0180
0180
FFFF
0180
0180
0180
0180
0180
0180
0180
0180
ENDCHAR

STARTCHAR kor_A6AC
ENCODING 42668
SWIDTH 803 0
DWIDTH 16 0
BBX 16 16 0 -1
BITMAP
0000
0000
0000
0000
0000
0000
FFFF
FFFF
FFFF
0000
0000
0000
0000
0000
0000
0000
ENDCHAR

STARTCHAR kor_A6AD
ENCODING 42669
SWIDTH 803 0
DWIDTH 16 0
BBX 16 16 0 -1
BITMAP
03C0
03C0
03C0
03C0
03C0
03C0
03C0
03C0
03C0
03C0
03C0
03C0
03C0
03C0
03C0
03C0
ENDCHAR

STARTCHAR kor_A6AE
ENCODING 42670
SWIDTH 803 0
DWIDTH 16 0
BBX 16 16 0 -1
BITMAP
0000
0000
0000
0000
0000
0000
03FF
03FF
03FF
03C0
03C0
03C0
03C0
03C0
03C0
03C0
ENDCHAR

STARTCHAR kor_A6AF
ENCODING 42671
SWIDTH 803 0
DWIDTH 16 0
BBX 16 16 0 -1
BITMAP
0000
0000
0000
0000
0000
0000
FFC0
FFC0
FFC0
03C0
03C0
03C0
03C0
03C0
03C0
03C0
ENDCHAR

STARTCHAR kor_A6B0
ENCODING 42672
SWIDTH 803 0
DWIDTH 16 0
BBX 16 16 0 -1
BITMAP
03C0
03C0
03C0
03C0
03C0
03C0
FFC0
FFC0
FFC0
0000
0000
0000
0000
0000
0000
0000
ENDCHAR

STARTCHAR kor_A6B1
ENCODING 42673
SWIDTH 803 0
DWIDTH 16 0
BBX 16 16 0 -1
BITMAP
03C0
03C0
03C0
03C0
03C0
03C0
03FF
03FF
03FF
0000
0000
0000
0000
0000
0000
0000
ENDCHAR

STARTCHAR kor_A6B2
ENCODING 42674
SWIDTH 803 0
DWIDTH 16 0
BBX 16 16 0 -1
BITMAP
03C0
03C0
03C0
03C0
03C0
03C0
03FF
03FF
03FF
03C0
03C0
03C0
03C0
03C0
03C0
03C0
ENDCHAR

STARTCHAR kor_A6B3
ENCODING 42675
SWIDTH 803 0
DWIDTH 16 0
BBX 16 16 0 -1
BITMAP
0000
0000
0000
0000
0000
0000
FFFF
FFFF
FFFF
03C0
03C0
03C0
03C0
03C0
03C0
03C0
ENDCHAR

STARTCHAR kor_A6B4
ENCODING 42676
SWIDTH 803 0
DWIDTH 16 0
BBX 16 16 0 -1
BITMAP
03C0
03C0
03C0
03C0
03C0
03C0
FFC0
FFC0
FFC0
03C0
03C0
03C0
03C0
03C0
03C0
03C0
ENDCHAR

STARTCHAR kor_A6B5
ENCODING 42677
SWIDTH 803 0
DWIDTH 16 0
BBX 16 16 0 -1
BITMAP
03C0
03C0
03C0
03C0
03C0
03C0
FFFF
FFFF
FFFF
0000
0000
0000
0000
0000
0000
0000
ENDCHAR

STARTCHAR kor_A6B6
ENCODING 42678
SWIDTH 803 0
DWIDTH 16 0
BBX 16 16 0 -1
BITMAP
03C0
03C0
03C0
03C0
03C0
03C0
FFFF
FFFF
FFFF
03C0
03C0
03C0
03C0
03C0
03C0
03C0
ENDCHAR

STARTCHAR kor_A6B7
ENCODING 42679
SWIDTH 803 0
DWIDTH 16 0
BBX 16 16 0 -1
BITMAP
03C0
03C0
03C0
03C0
03C0
03C0
03C0
03FF
03C0
03C0
03C0
03C0
03C0
03C0
03C0
03C0
ENDCHAR

STARTCHAR kor_A6B8
ENCODING 42680
SWIDTH 803 0
DWIDTH 16 0
BBX 16 16 0 -1
BITMAP
0000
0000
0000
0000
0000
0000
FFFF
FFFF
FFFF
0180
0180
0180
0180
0180
0180
0180
ENDCHAR

STARTCHAR kor_A6B9
ENCODING 42681
SWIDTH 803 0
DWIDTH 16 0
BBX 16 16 0 -1
BITMAP
03C0
03C0
03C0
03C0
03C0
03C0
03C0
FFC0
03C0
03C0
03C0
03C0
03C0
03C0
03C0
03C0
ENDCHAR

STARTCHAR kor_A6BA
ENCODING 42682
SWIDTH 803 0
DWIDTH 16 0
BBX 16 16 0 -1
BITMAP
0180
0180
0180
0180
0180
0180
FFFF
FFFF
FFFF
0000
0000
0000
0000
0000
0000
0000
ENDCHAR

STARTCHAR kor_A6BB
ENCODING 42683
SWIDTH 803 0
DWIDTH 16 0
BBX 16 16 0 -1
BITMAP
0180
0180
0180
0180
0180
0180
FFFF
FFFF
FFFF
0180
0180
0180
0180
0180
0180
0180
ENDCHAR

STARTCHAR kor_A6BC
ENCODING 42684
SWIDTH 803 0
DWIDTH 16 0
BBX 16 16 0 -1
BITMAP
0180
0180
0180
0180
0180
0180
01FF
01FF
01FF
0180
0180
0180
0180
0180
0180
0180
ENDCHAR

STARTCHAR kor_A6BD
ENCODING 42685
SWIDTH 803 0
DWIDTH 16 0
BBX 16 16 0 -1
BITMAP
0000
0000
0000
0000
0000
0000
0000
FFFF
03C0
03C0
03C0
03C0
03C0
03C0
03C0
03C0
ENDCHAR

STARTCHAR kor_A6BE
ENCODING 42686
SWIDTH 803 0
DWIDTH 16 0
BBX 16 16 0 -1
BITMAP
0180
0180
0180
0180
0180
0180
FF80
FF80
FF80
0180
0180
0180
0180
0180
0180
0180
ENDCHAR

STARTCHAR kor_A6BF
ENCODING 42687
SWIDTH 803 0
DWIDTH 16 0
BBX 16 16 0 -1
BITMAP
03C0
03C0
03C0
03C0
03C0
03C0
03C0
FFFF
0000
0000
0000
0000
0000
0000
0000
0000
ENDCHAR

STARTCHAR kor_A6C0
ENCODING 42688
SWIDTH 803 0
DWIDTH 16 0
BBX 16 16 0 -1
BITMAP
03C0
03C0
03C0
03C0
03C0
03C0
03C0
FFFF
03C0
03C0
03C0
03C0
03C0
03C0
03C0
03C0
ENDCHAR

STARTCHAR kor_A6C1
ENCODING 42689
SWIDTH 803 0
DWIDTH 16 0
BBX 16 16 0 -1
BITMAP
0000
0000
0000
0000
0000
0000
0000
FFC0
03C0
03C0
03C0
03C0
03C0
03C0
03C0
03C0
ENDCHAR

STARTCHAR kor_A6C2
ENCODING 42690
SWIDTH 803 0
DWIDTH 16 0
BBX 16 16 0 -1
BITMAP
0000
0000
0000
0000
0000
0000
FF80
FF80
FF80
0180
0180
0180
0180
0180
0180
0180
ENDCHAR

STARTCHAR kor_A6C3
ENCODING 42691
SWIDTH 803 0
DWIDTH 16 0
BBX 16 16 0 -1
BITMAP
03C0
03C0
03C0
03C0
03C0
03C0
03C0
FFC0
0000
0000
0000
0000
0000
0000
0000
0000
ENDCHAR

STARTCHAR kor_A6C4
ENCODING 42692
SWIDTH 803 0
DWIDTH 16 0
BBX 16 16 0 -1
BITMAP
0180
0180
0180
0180
0180
0180
FF80
FF80
FF80
0000
0000
0000
0000
0000
0000
0000
ENDCHAR

STARTCHAR kor_A6C5
ENCODING 42693
SWIDTH 803 0
DWIDTH 16 0
BBX 16 16 0 -1
BITMAP
03C0
03C0
03C0
03C0
03C0
03C0
03C0
03FF
0000
0000
0000
0000
0000
0000
0000
0000
ENDCHAR

STARTCHAR kor_A6C6
ENCODING 42694
SWIDTH 803 0
DWIDTH 16 0
BBX 16 16 0 -1
BITMAP
0180
0180
0180
0180
0180
0180
01FF
01FF
01FF
0000
0000
0000
0000
0000
0000
0000
ENDCHAR

STARTCHAR kor_A6C7
ENCODING 42695
SWIDTH 803 0
DWIDTH 16 0
BBX 16 16 0 -1
BITMAP
0000
0000
0000
0000
0000
0000
0000
03FF
03C0
03C0
03C0
03C0
03C0
03C0
03C0
03C0
ENDCHAR

STARTCHAR kor_A6C8
ENCODING 42696
SWIDTH 803 0
DWIDTH 16 0
BBX 16 16 0 -1
BITMAP
0000
0000
0000
0000
0000
0000
01FF
01FF
01FF
0180
0180
0180
0180
0180
0180
0180
ENDCHAR

STARTCHAR kor_A6C9
ENCODING 42697
SWIDTH 803 0
DWIDTH 16 0
BBX 16 16 0 -1
BITMAP
03C0
03C0
03C0
03C0
03C0
03C0
03C0
03FF
0180
0180
0180
0180
0180
0180
0180
0180
ENDCHAR

STARTCHAR kor_A6CA
ENCODING 42698
SWIDTH 803 0
DWIDTH 16 0
BBX 16 16 0 -1
BITMAP
0180
0180
0180
0180
0180
0180
0180
03FF
03C0
03C0
03C0
03C0
03C0
03C0
03C0
03C0
ENDCHAR

STARTCHAR kor_A6CB
ENCODING 42699
SWIDTH 803 0
DWIDTH 16 0
BBX 16 16 0 -1
BITMAP
03C0
03C0
03C0
03C0
03C0
03C0
03FF
03FF
03FF
0180
0180
0180
0180
0180
0180
0180
ENDCHAR

STARTCHAR kor_A6CC
ENCODING 42700
SWIDTH 803 0
DWIDTH 16 0
BBX 16 16 0 -1
BITMAP
0180
0180
0180
0180
0180
0180
03FF
03FF
03FF
03C0
03C0
03C0
03C0
03C0
03C0
03C0
ENDCHAR

STARTCHAR kor_A6CD
ENCODING 42701
SWIDTH 803 0
DWIDTH 16 0
BBX 16 16 0 -1
BITMAP
03C0
03C0
03C0
03C0
03C0
03C0
03C0
FFC0
0180
0180
0180
0180
0180
0180
0180
0180
ENDCHAR

STARTCHAR kor_A6CE
ENCODING 42702
SWIDTH 803 0
DWIDTH 16 0
BBX 16 16 0 -1
BITMAP
0180
0180
0180
0180
0180
0180
0180
FFC0
03C0
03C0
03C0
03C0
03C0
03C0
03C0
03C0
ENDCHAR

STARTCHAR kor_A6CF
ENCODING 42703
SWIDTH 803 0
DWIDTH 16 0
BBX 16 16 0 -1
BITMAP
03C0
03C0
03C0
03C0
03C0
03C0
FFC0
FFC0
FFC0
0180
0180
0180
0180
0180
0180
0180
ENDCHAR

STARTCHAR kor_A6D0
ENCODING 42704
SWIDTH 803 0
DWIDTH 16 0
BBX 16 16 0 -1
BITMAP
0180
0180
0180
0180
0180
0180
FFC0
FFC0
FFC0
03C0
03C0
03C0
03C0
03C0
03C0
03C0
ENDCHAR

STARTCHAR kor_A6D1
ENCODING 42705
SWIDTH 803 0
DWIDTH 16 0
BBX 16 16 0 -1
BITMAP
0000
0000
0000
0000
0000
0000
FF80
FFFF
FF80
0180
0180
0180
0180
0180
0180
0180
ENDCHAR

STARTCHAR kor_A6D2
ENCODING 42706
SWIDTH 803 0
DWIDTH 16 0
BBX 16 16 0 -1
BITMAP
0000
0000
0000
0000
0000
0000
01FF
FFFF
01FF
0180
0180
0180
0180
0180
0180
0180
ENDCHAR

STARTCHAR kor_A6D3
ENCODING 42707
SWIDTH 803 0
DWIDTH 16 0
BBX 16 16 0 -1
BITMAP
0000
0000
0000
0000
0000
0000
FFC0
FFFF
FFC0
03C0
03C0
03C0
03C0
03C0
03C0
03C0
ENDCHAR

STARTCHAR kor_A6D4
ENCODING 42708
SWIDTH 803 0
DWIDTH 16 0
BBX 16 16 0 -1
BITMAP
0000
0000
0000
0000
0000
0000
03FF
FFFF
03FF
03C0
03C0
03C0
03C0
03C0
03C0
03C0
ENDCHAR

STARTCHAR kor_A6D5
ENCODING 42709
SWIDTH 803 0
DWIDTH 16 0
BBX 16 16 0 -1
BITMAP
0180
0180
0180
0180
0180
0180
FF80
FFFF
FF80
0000
0000
0000
0000
0000
0000
0000
ENDCHAR

STARTCHAR kor_A6D6
ENCODING 42710
SWIDTH 803 0
DWIDTH 16 0
BBX 16 16 0 -1
BITMAP
0180
0180
0180
0180
0180
0180
01FF
FFFF
01FF
0000
0000
0000
0000
0000
0000
0000
ENDCHAR

STARTCHAR kor_A6D7
ENCODING 42711
SWIDTH 803 0
DWIDTH 16 0
BBX 16 16 0 -1
BITMAP
03C0
03C0
03C0
03C0
03C0
03C0
FFC0
FFFF
FFC0
0000
0000
0000
0000
0000
0000
0000
ENDCHAR

STARTCHAR kor_A6D8
ENCODING 42712
SWIDTH 803 0
DWIDTH 16 0
BBX 16 16 0 -1
BITMAP
03C0
03C0
03C0
03C0
03C0
03C0
03FF
FFFF
03FF
0000
0000
0000
0000
0000
0000
0000
ENDCHAR

STARTCHAR kor_A6D9
ENCODING 42713
SWIDTH 803 0
DWIDTH 16 0
BBX 16 16 0 -1
BITMAP
0180
0180
0180
0180
0180
0180
FF80
FFFF
FF80
0180
0180
0180
0180
0180
0180
0180
ENDCHAR

STARTCHAR kor_A6DA
ENCODING 42714
SWIDTH 803 0
DWIDTH 16 0
BBX 16 16 0 -1
BITMAP
0180
0180
0180
0180
0180
0180
01FF
FFFF
01FF
0180
0180
0180
0180
0180
0180
0180
ENDCHAR

STARTCHAR kor_A6DB
ENCODING 42715
SWIDTH 803 0
DWIDTH 16 0
BBX 16 16 0 -1
BITMAP
03C0
03C0
03C0
03C0
03C0
03C0
03C0
FFFF
0180
0180
0180
0180
0180
0180
0180
0180
ENDCHAR

STARTCHAR kor_A6DC
ENCODING 42716
SWIDTH 803 0
DWIDTH 16 0
BBX 16 16 0 -1
BITMAP
0180
0180
0180
0180
0180
0180
0180
FFFF
03C0
03C0
03C0
03C0
03C0
03C0
03C0
03C0
ENDCHAR

STARTCHAR kor_A6DD
ENCODING 42717
SWIDTH 803 0
DWIDTH 16 0
BBX 16 16 0 -1
BITMAP
03C0
03C0
03C0
03C0
03C0
03C0
FFC0
FFFF
FFC0
0180
0180
0180
0180
0180
0180
0180
ENDCHAR

STARTCHAR kor_A6DE
ENCODING 42718
SWIDTH 803 0
DWIDTH 16 0
BBX 16 16 0 -1
BITMAP
03C0
03C0
03C0
03C0
03C0
03C0
03FF
FFFF
03FF
0180
0180
0180
0180
0180
0180
0180
ENDCHAR

STARTCHAR kor_A6DF
ENCODING 42719
SWIDTH 803 0
DWIDTH 16 0
BBX 16 16 0 -1
BITMAP
0180
0180
0180
0180
0180
0180
FFC0
FFFF
FFC0
03C0
03C0
03C0
03C0
03C0
03C0
03C0
ENDCHAR

STARTCHAR kor_A6E0
ENCODING 42720
SWIDTH 803 0
DWIDTH 16 0
BBX 16 16 0 -1
BITMAP
0180
0180
0180
0180
0180
0180
03FF
FFFF
03FF
03C0
03C0
03C0
03C0
03C0
03C0
03C0
ENDCHAR

STARTCHAR kor_A6E1
ENCODING 42721
SWIDTH 803 0
DWIDTH 16 0
BBX 16 16 0 -1
BITMAP
03C0
03C0
03C0
03C0
03C0
03C0
FFFF
FFFF
FFFF
0180
0180
0180
0180
0180
0180
0180
ENDCHAR

STARTCHAR kor_A6E2
ENCODING 42722
SWIDTH 803 0
DWIDTH 16 0
BBX 16 16 0 -1
BITMAP
0180
0180
0180
0180
0180
0180
FFFF
FFFF
FFFF
03C0
03C0
03C0
03C0
03C0
03C0
03C0
ENDCHAR

STARTCHAR kor_A6E3
ENCODING 42723
SWIDTH 803 0
DWIDTH 16 0
BBX 16 16 0 -1
BITMAP
03C0
03C0
03C0
03C0
03C0
03C0
FFC0
FFFF
FFC0
03C0
03C0
03C0
03C0
03C0
03C0
03C0
ENDCHAR

STARTCHAR kor_A6E4
ENCODING 42724
SWIDTH 803 0
DWIDTH 16 0
BBX 16 16 0 -1
BITMAP
03C0
03C0
03C0
03C0
03C0
03C0
03FF
FFFF
03FF
03C0
03C0
03C0
03C0
03C0
03C0
03C0
ENDCHAR

STARTCHAR kor_A7A1
ENCODING 42913
SWIDTH 803 0
DWIDTH 16 0
BBX 16 16 0 -1
BITMAP
0000
0000
000E
000B
001B
001B
0CB6
0CB6
0CB6
18AC
19AC
1998
19B8
2EEE
3000
3000
ENDCHAR

STARTCHAR kor_A7A2
ENCODING 42914
SWIDTH 803 0
DWIDTH 16 0
BBX 16 16 0 -1
BITMAP
0000
0000
000E
000B
001B
001B
5BB6
36B6
36B6
36AC
36AC
36D8
36B8
36EE
0000
0000
ENDCHAR

STARTCHAR kor_A7A3
ENCODING 42915
SWIDTH 803 0
DWIDTH 16 0
BBX 16 16 0 -1
BITMAP
0000
0000
019C
0396
01B6
01B6
0D6C
1B6C
316C
3158
3158
31B0
1B70
0DDC
0000
0000
ENDCHAR

STARTCHAR kor_A7A4
ENCODING 42916
SWIDTH 803 0
DWIDTH 16 0
BBX 16 16 0 -1
BITMAP
0000
0000
00E0
01B0
01B0
0330
0360
0360
0360
02C0
02C0
0180
0380
06E0
0000
0000
ENDCHAR

STARTCHAR kor_A7A5
ENCODING 42917
SWIDTH 803 0
DWIDTH 16 0
BBX 16 16 0 -1
BITMAP
0000
0000
301C
7016
3036
3036
316C
336C
366C
2C58
3C58
3630
3370
79DC
0000
0000
ENDCHAR

STARTCHAR kor_A7A6
ENCODING 42918
SWIDTH 803 0
DWIDTH 16 0
BBX 16 16 0 -1
BITMAP
0000
0000
0000
0000
0000
0000
0F1E
19B3
3060
3060
3060
3060
19B3
0F1E
0000
0000
ENDCHAR

STARTCHAR kor_A7A7
ENCODING 42919
SWIDTH 803 0
DWIDTH 16 0
BBX 16 16 0 -1
BITMAP
000F
0001
0007
0001
000F
0000
5B6E
36DB
36DB
36DB
36DB
36DB
36DB
36DB
0000
0000
ENDCHAR

STARTCHAR kor_A7A8
ENCODING 42920
SWIDTH 803 0
DWIDTH 16 0
BBX 16 16 0 -1
BITMAP
000F
0001
0007
0001
000F
0000
1D6E
32DB
60DB
60DB
60DB
60DB
32DB
1EDB
0000
0000
ENDCHAR

STARTCHAR kor_A7A9
ENCODING 42921
SWIDTH 803 0
DWIDTH 16 0
BBX 16 16 0 -1
BITMAP
0000
000F
0001
0007
0001
000F
2EF0
1998
1998
1998
1998
1998
1998
1998
0000
0000
ENDCHAR

STARTCHAR kor_A7AA
ENCODING 42922
SWIDTH 803 0
DWIDTH 16 0
BBX 16 16 0 -1
BITMAP
000F
0001
3007
7001
300F
3000
316E
32DB
36DB
2CDB
3CDB
36DB
32DB
79DB
0000
0000
ENDCHAR

STARTCHAR kor_A7AB
ENCODING 42923
SWIDTH 803 0
DWIDTH 16 0
BBX 16 16 0 -1
BITMAP
0000
0000
0700
0C00
1800
1800
1800
7EDC
19B6
19B6
19B6
19B6
19B6
3DB6
0000
0000
ENDCHAR

STARTCHAR kor_A7AC
ENCODING 42924
SWIDTH 803 0
DWIDTH 16 0
BBX 16 16 0 -1
BITMAP
0000
0000
0000
0000
0000
0000
2E6E
7ADB
32DB
32DB
32DB
32DB
32DB
32DB
0000
0000
ENDCHAR

STARTCHAR kor_A7AD
ENCODING 42925
SWIDTH 803 0
DWIDTH 16 0
BBX 16 16 0 -1
BITMAP
0000
0000
0000
0000
0000
0000
1B6E
1ADB
1ADB
32DB
36DB
36DB
36DB
5BDB
6000
6000
ENDCHAR

STARTCHAR kor_A7AE
ENCODING 42926
SWIDTH 803 0
DWIDTH 16 0
BBX 16 16 0 -1
BITMAP
0000
0000
0000
0000
0000
0000
5B6E
36DB
36DB
36DB
36DB
36DB
36DB
36DB
0000
0000
ENDCHAR

STARTCHAR kor_A7AF
ENCODING 42927
SWIDTH 803 0
DWIDTH 16 0
BBX 16 16 0 -1
BITMAP
0000
0000
0000
0000
0000
0000
1D6E
32DB
60DB
60DB
60DB
60DB
32DB
1EDB
0000
0000
ENDCHAR

STARTCHAR kor_A7B0
ENCODING 42928
SWIDTH 803 0
DWIDTH 16 0
BBX 16 16 0 -1
BITMAP
0000
0000
3000
7000
3000
3000
316E
32DB
36DB
2CDB
3CDB
36DB
32DB
79DB
0000
0000
ENDCHAR

STARTCHAR kor_A7B1
ENCODING 42929
SWIDTH 803 0
DWIDTH 16 0
BBX 16 16 0 -1
BITMAP
0000
000F
0003
0006
000F
0000
5B6E
36DB
36DB
36DB
36DB
36DB
36DB
36DB
0000
0000
ENDCHAR

STARTCHAR kor_A7B2
ENCODING 42930
SWIDTH 803 0
DWIDTH 16 0
BBX 16 16 0 -1
BITMAP
0000
000F
0003
0006
000F
0000
1D6E
32DB
60DB
60DB
60DB
60DB
32DB
1EDB
0000
0000
ENDCHAR

STARTCHAR kor_A7B3
ENCODING 42931
SWIDTH 803 0
DWIDTH 16 0
BBX 16 16 0 -1
BITMAP
0000
000F
0003
0006
000F
0000
2EF0
1998
1998
1998
1998
1998
1998
1998
0000
0000
ENDCHAR

STARTCHAR kor_A7B4
ENCODING 42932
SWIDTH 803 0
DWIDTH 16 0
BBX 16 16 0 -1
BITMAP
0000
000F
3003
7006
300F
3000
316E
32DB
36DB
2CDB
3CDB
36DB
32DB
79DB
0000
0000
ENDCHAR

STARTCHAR kor_A7B5
ENCODING 42933
SWIDTH 803 0
DWIDTH 16 0
BBX 16 16 0 -1
BITMAP
0000
0000
3000
7000
3000
307C
2E06
3B06
333E
3366
3366
3366
3366
77BB
0000
0000
ENDCHAR

STARTCHAR kor_A7B6
ENCODING 42934
SWIDTH 803 0
DWIDTH 16 0
BBX 16 16 0 -1
BITMAP
0000
0000
0000
0000
0000
0007
19BC
1966
1966
31BC
3330
333E
3363
5DE3
6063
603E
ENDCHAR

STARTCHAR kor_A7B7
ENCODING 42935
SWIDTH 803 0
DWIDTH 16 0
BBX 16 16 0 -1
BITMAP
0000
0000
0000
0000
0000
0007
B73C
6D66
6D66
6DBC
6DB0
6DBE
6D63
6D63
0063
003E
ENDCHAR

STARTCHAR kor_A7B8
ENCODING 42936
SWIDTH 803 0
DWIDTH 16 0
BBX 16 16 0 -1
BITMAP
0000
0000
3000
7000
3000
3007
31BC
3366
3666
2C3C
3C30
363E
3363
7963
0063
003E
ENDCHAR

STARTCHAR kor_A7B9
ENCODING 42937
SWIDTH 803 0
DWIDTH 16 0
BBX 16 16 0 -1
BITMAP
0000
0000
1830
3830
1830
1830
18FE
19B0
1B30
1630
1E30
1B30
19B6
3CDC
0000
0000
ENDCHAR

STARTCHAR kor_A7BA
ENCODING 42938
SWIDTH 803 0
DWIDTH 16 0
BBX 16 16 0 -1
BITMAP
0000
0006
000E
0006
0006
1DF6
3616
6016
60F6
6196
6196
6196
3596
1CEF
0000
0000
ENDCHAR

STARTCHAR kor_A7BB
ENCODING 42939
SWIDTH 803 0
DWIDTH 16 0
BBX 16 16 0 -1
BITMAP
0000
0000
6001
E003
6001
65BD
6B65
6B05
5B1D
5B35
7335
5B35
6B75
F5DB
0000
0000
ENDCHAR

STARTCHAR kor_A7BC
ENCODING 42940
SWIDTH 803 0
DWIDTH 16 0
BBX 16 16 0 -1
BITMAP
0000
0000
02FC
0766
0363
0363
1B66
377C
6366
6363
6363
6363
3766
1BFC
0000
0000
ENDCHAR

STARTCHAR kor_A7BD
ENCODING 42941
SWIDTH 803 0
DWIDTH 16 0
BBX 16 16 0 -1
BITMAP
0000
0060
0060
0060
0060
0060
ACDE
56B3
56B0
56DC
56C6
5583
55B3
559E
0180
0180
ENDCHAR

STARTCHAR kor_A7BE
ENCODING 42942
SWIDTH 803 0
DWIDTH 16 0
BBX 16 16 0 -1
BITMAP
0000
0067
0061
0063
0067
0060
ACDE
56B3
56B0
56DC
56C6
5583
55B3
559E
0180
0180
ENDCHAR

STARTCHAR kor_A7BF
ENCODING 42943
SWIDTH 803 0
DWIDTH 16 0
BBX 16 16 0 -1
BITMAP
0000
0000
0000
0000
0000
0000
3F3E
1963
1960
19B8
198E
1F03
1863
183E
1800
3C00
ENDCHAR

STARTCHAR kor_A7C0
ENCODING 42944
SWIDTH 803 0
DWIDTH 16 0
BBX 16 16 0 -1
BITMAP
0000
0000
0000
0000
0000
0000
173E
3D63
1960
19B8
198E
1983
1963
3DBE
0000
0000
ENDCHAR

STARTCHAR kor_A7C1
ENCODING 42945
SWIDTH 803 0
DWIDTH 16 0
BBX 16 16 0 -1
BITMAP
0000
0000
0000
0000
0000
0000
19BE
1963
1960
31B8
330E
3303
3363
5DBE
6000
6000
ENDCHAR

STARTCHAR kor_A7C2
ENCODING 42946
SWIDTH 803 0
DWIDTH 16 0
BBX 16 16 0 -1
BITMAP
0000
0000
0000
0000
0000
0000
B73E
6D63
6D60
6DB8
6D8E
6D83
6D63
6DBE
0000
0000
ENDCHAR

STARTCHAR kor_A7C3
ENCODING 42947
SWIDTH 803 0
DWIDTH 16 0
BBX 16 16 0 -1
BITMAP
0000
0000
01E7
00C3
00C3
0066
7F66
3166
31AC
31AC
31AC
3F18
3018
3018
3000
7800
ENDCHAR

STARTCHAR kor_A7C4
ENCODING 42948
SWIDTH 803 0
DWIDTH 16 0
BBX 16 16 0 -1
BITMAP
0000
0000
01E7
00C3
00C3
0066
2F66
7966
31AC
31AC
31AC
3198
3198
7BD8
0000
0000
ENDCHAR

STARTCHAR kor_A7C5
ENCODING 42949
SWIDTH 803 0
DWIDTH 16 0
BBX 16 16 0 -1
BITMAP
0000
0000
01E7
00C3
00C3
0066
1966
1966
19AC
31AC
332C
3318
3318
5DD8
6000
6000
ENDCHAR

STARTCHAR kor_A7C6
ENCODING 42950
SWIDTH 803 0
DWIDTH 16 0
BBX 16 16 0 -1
BITMAP
0000
0000
01E7
00C3
00C3
0066
B766
6D66
6DAC
6DAC
6DAC
6D98
6D98
6D98
0000
0000
ENDCHAR

STARTCHAR kor_A7C7
ENCODING 42951
SWIDTH 803 0
DWIDTH 16 0
BBX 16 16 0 -1
BITMAP
0000
0000
31E7
70C3
30C3
3066
3166
3366
362C
2C2C
3C2C
3618
3318
7998
0000
0000
ENDCHAR

STARTCHAR kor_A7C8
ENCODING 42952
SWIDTH 803 0
DWIDTH 16 0
BBX 16 16 0 -1
BITMAP
0000
0000
73E7
32C3
36C3
3766
3F66
2B66
2B2C
332C
332C
3318
3318
7798
0000
0000
ENDCHAR

STARTCHAR kor_A7C9
ENCODING 42953
SWIDTH 803 0
DWIDTH 16 0
BBX 16 16 0 -1
BITMAP
0000
0000
0018
0018
0018
002C
FE2C
632C
6366
637E
6366
7EC3
60C3
61E7
6000
F000
ENDCHAR

STARTCHAR kor_A7CA
ENCODING 42954
SWIDTH 803 0
DWIDTH 16 0
BBX 16 16 0 -1
BITMAP
0000
0000
0018
0018
0018
002C
5C2C
F62C
6666
667E
6666
66C3
66C3
F5E7
0000
0000
ENDCHAR

STARTCHAR kor_A7CB
ENCODING 42955
SWIDTH 803 0
DWIDTH 16 0
BBX 16 16 0 -1
BITMAP
0000
0000
0018
0018
0018
002C
332C
332C
3366
637E
6666
66C3
66C3
BBE7
C000
C000
ENDCHAR

STARTCHAR kor_A7CC
ENCODING 42956
SWIDTH 803 0
DWIDTH 16 0
BBX 16 16 0 -1
BITMAP
0000
0000
0018
0018
0018
002C
B72C
6DAC
6D66
6D7E
6D66
6DC3
6DC3
6DE7
0000
0000
ENDCHAR

STARTCHAR kor_A7CD
ENCODING 42957
SWIDTH 803 0
DWIDTH 16 0
BBX 16 16 0 -1
BITMAP
0000
0000
6018
E018
6018
602C
632C
662C
6C66
587E
7866
6CC3
66C3
F3E7
0000
0000
ENDCHAR

STARTCHAR kor_A7CE
ENCODING 42958
SWIDTH 803 0
DWIDTH 16 0
BBX 16 16 0 -1
BITMAP
0000
0000
01E7
00C3
00C3
00C3
FEC3
62DB
6356
6356
636E
7E6E
6066
6066
6000
F000
ENDCHAR

STARTCHAR kor_A7CF
ENCODING 42959
SWIDTH 803 0
DWIDTH 16 0
BBX 16 16 0 -1
BITMAP
0000
0000
01E7
00C3
00C3
00C3
5EC3
F2DB
6356
6356
636E
636E
6366
F766
0000
0000
ENDCHAR

STARTCHAR kor_A7D0
ENCODING 42960
SWIDTH 803 0
DWIDTH 16 0
BBX 16 16 0 -1
BITMAP
0000
0000
01E7
00C3
00C3
00C3
32C3
32DB
3356
6356
666E
666E
6666
BB66
C000
C000
ENDCHAR

STARTCHAR kor_A7D1
ENCODING 42961
SWIDTH 803 0
DWIDTH 16 0
BBX 16 16 0 -1
BITMAP
0000
0000
01E7
00C3
00C3
00C3
EEC3
DADB
DB56
DB56
DB6E
DB6E
DB66
DB66
0000
0000
ENDCHAR

STARTCHAR kor_A7D2
ENCODING 42962
SWIDTH 803 0
DWIDTH 16 0
BBX 16 16 0 -1
BITMAP
0000
0000
61E7
E0C3
60C3
60C3
62C3
66DB
6C56
5856
786E
6C6E
6666
F366
0000
0000
ENDCHAR

STARTCHAR kor_A7D3
ENCODING 42963
SWIDTH 803 0
DWIDTH 16 0
BBX 16 16 0 -1
BITMAP
0000
0000
73E7
32C3
36C3
36C3
36C3
2ADB
2B56
2B56
336E
336E
3366
7766
0000
0000
ENDCHAR

STARTCHAR kor_A7D4
ENCODING 42964
SWIDTH 803 0
DWIDTH 16 0
BBX 16 16 0 -1
BITMAP
0000
0000
7BC0
3180
3180
3180
317F
3F66
318C
318C
3198
3198
31B3
7BFF
0000
0000
ENDCHAR

STARTCHAR kor_A7D5
ENCODING 42965
SWIDTH 803 0
DWIDTH 16 0
BBX 16 16 0 -1
BITMAP
0000
0000
61B0
E1B0
61B0
61B0
63AF
65ED
6DB3
59B3
79B6
6DB6
65AD
F3AF
0000
0000
ENDCHAR

STARTCHAR kor_A7D6
ENCODING 42966
SWIDTH 803 0
DWIDTH 16 0
BBX 16 16 0 -1
BITMAP
0000
0000
E7B0
65B0
6DB0
6DB0
6DAF
55ED
55B3
55B3
65B6
65B6
65AD
EFAF
0000
0000
ENDCHAR

STARTCHAR kor_A7D7
ENCODING 42967
SWIDTH 803 0
DWIDTH 16 0
BBX 16 16 0 -1
BITMAP
0000
0000
39B0
6DB0
C5B0
C5B0
C1AF
C1ED
DDB3
C5B3
C5B6
C5B6
6DAD
39AF
0000
0000
ENDCHAR

STARTCHAR kor_A7D8
ENCODING 42968
SWIDTH 803 0
DWIDTH 16 0
BBX 16 16 0 -1
BITMAP
0000
0000
7DB0
55B0
55B0
19B0
19AF
19ED
19B3
19B3
19B6
19B6
19AD
3DAF
0000
0000
ENDCHAR

STARTCHAR kor_A7D9
ENCODING 42969
SWIDTH 803 0
DWIDTH 16 0
BBX 16 16 0 -1
BITMAP
0000
0000
03E0
0630
0C18
0C18
0C18
0C18
0C18
0630
0630
1B6C
1B6C
1F7C
0000
0000
ENDCHAR

STARTCHAR kor_A7DA
ENCODING 42970
SWIDTH 803 0
DWIDTH 16 0
BBX 16 16 0 -1
BITMAP
0000
0000
303C
7066
30C3
30C3
31C3
32C3
36C3
2CC3
3C66
362D
33AD
79EF
0000
0000
ENDCHAR

STARTCHAR kor_A7DB
ENCODING 42971
SWIDTH 803 0
DWIDTH 16 0
BBX 16 16 0 -1
BITMAP
0000
0000
73BC
3366
36C3
36C3
3EC3
2AC3
2AC3
32C3
3366
332D
332D
77EF
0000
0000
ENDCHAR

STARTCHAR kor_A7DC
ENCODING 42972
SWIDTH 803 0
DWIDTH 16 0
BBX 16 16 0 -1
BITMAP
0000
0000
00FF
0063
0063
0060
7F6C
317C
316C
3160
3160
3F60
3060
30F0
3000
7800
ENDCHAR

STARTCHAR kor_A7DD
ENCODING 42973
SWIDTH 803 0
DWIDTH 16 0
BBX 16 16 0 -1
BITMAP
0000
0000
00FF
0063
0063
0060
176C
3D7C
196C
1960
1960
1960
1960
3BF0
0000
0000
ENDCHAR

STARTCHAR kor_A7DE
ENCODING 42974
SWIDTH 803 0
DWIDTH 16 0
BBX 16 16 0 -1
BITMAP
0000
0000
007F
0031
0031
0030
19B6
19BE
19B6
31B0
3330
3330
3330
5D78
6000
6000
ENDCHAR

STARTCHAR kor_A7DF
ENCODING 42975
SWIDTH 803 0
DWIDTH 16 0
BBX 16 16 0 -1
BITMAP
0000
0000
0003
0007
0003
0003
B73B
6D6B
6D6B
6D6B
6D6B
6D6B
6D6B
6DB7
0000
0000
ENDCHAR

STARTCHAR kor_A7E0
ENCODING 42976
SWIDTH 803 0
DWIDTH 16 0
BBX 16 16 0 -1
BITMAP
0000
0000
0006
000E
0006
0006
1E36
336E
60C6
60C6
60C6
60C6
336E
1E37
0000
0000
ENDCHAR

STARTCHAR kor_A7E1
ENCODING 42977
SWIDTH 803 0
DWIDTH 16 0
BBX 16 16 0 -1
BITMAP
0000
0000
0003
0007
0003
0003
5BCF
F65B
705B
63DB
635B
635B
635B
F1EF
0000
0000
ENDCHAR

STARTCHAR kor_A7E2
ENCODING 42978
SWIDTH 803 0
DWIDTH 16 0
BBX 16 16 0 -1
BITMAP
0000
000C
006C
006C
006C
006C
ACD7
D55D
E55C
CD56
D55B
D571
D56D
CEF7
0030
0030
ENDCHAR

STARTCHAR kor_A7E3
ENCODING 42979
SWIDTH 803 0
DWIDTH 16 0
BBX 16 16 0 -1
BITMAP
0000
000F
006D
006B
006F
006C
ACD7
D55D
E55C
CD56
D55B
D571
D56D
CEF7
0030
0030
ENDCHAR

STARTCHAR kor_A7E4
ENCODING 42980
SWIDTH 803 0
DWIDTH 16 0
BBX 16 16 0 -1
BITMAP
0000
0000
0000
0000
0000
0000
3E5E
62F3
6060
3860
0E60
0360
6360
3EF0
0000
0000
ENDCHAR

STARTCHAR kor_A7E5
ENCODING 42981
SWIDTH 803 0
DWIDTH 16 0
BBX 16 16 0 -1
BITMAP
0000
0000
7E00
3300
3180
317E
3183
3183
333F
3E63
3063
3063
3063
783D
0000
0000
ENDCHAR

STARTCHAR kor_A7E6
ENCODING 42982
SWIDTH 803 0
DWIDTH 16 0
BBX 16 16 0 -1
BITMAP
0000
0000
63E0
E1B0
61B0
61AE
63B3
65B3
6DAF
59DB
799B
6D9B
659B
F3CD
0000
0000
ENDCHAR

STARTCHAR kor_A7E7
ENCODING 42983
SWIDTH 803 0
DWIDTH 16 0
BBX 16 16 0 -1
BITMAP
0000
0000
E7E0
65B0
6DB0
6DBE
6DB3
55B3
55AF
55DB
559B
659B
659B
EFCD
0000
0000
ENDCHAR

STARTCHAR kor_A7E8
ENCODING 42984
SWIDTH 803 0
DWIDTH 16 0
BBX 16 16 0 -1
BITMAP
0000
0000
3BE0
6DB0
C5B0
C5AE
C1B3
C1B3
DDAF
C5DB
C59B
C59B
6D9B
3BCD
0000
0000
ENDCHAR

STARTCHAR kor_A7E9
ENCODING 42985
SWIDTH 803 0
DWIDTH 16 0
BBX 16 16 0 -1
BITMAP
0000
0000
F3E0
6160
6160
6160
615E
6D73
2B63
2B63
3763
3763
3373
335E
0000
0000
ENDCHAR

STARTCHAR kor_A7EA
ENCODING 42986
SWIDTH 803 0
DWIDTH 16 0
BBX 16 16 0 -1
BITMAP
0000
0000
1800
3800
1800
1800
1ADC
19B6
19B6
19B6
19B6
19B6
19B6
3BAF
0000
0000
ENDCHAR

STARTCHAR kor_A7EB
ENCODING 42987
SWIDTH 803 0
DWIDTH 16 0
BBX 16 16 0 -1
BITMAP
0000
0000
1800
3800
1800
1800
1BDE
198C
18D8
1870
1870
18D8
198C
3BDE
0000
0000
ENDCHAR

STARTCHAR kor_A7EC
ENCODING 42988
SWIDTH 803 0
DWIDTH 16 0
BBX 16 16 0 -1
BITMAP
0000
0000
7F00
3180
3180
3180
31BF
3F63
3163
3163
3163
31BF
3183
7F03
0003
0007
ENDCHAR

STARTCHAR kor_A7ED
ENCODING 42989
SWIDTH 803 0
DWIDTH 16 0
BBX 16 16 0 -1
BITMAP
0000
0000
1C00
3600
6300
6300
63EF
60C6
6F66
636C
632C
6338
3618
1C30
0030
00E0
ENDCHAR

STARTCHAR kor_A7EE
ENCODING 42990
SWIDTH 803 0
DWIDTH 16 0
BBX 16 16 0 -1
BITMAP
0000
0000
3E00
6300
6300
6000
31E7
1CC3
0666
0366
032C
632C
6318
3E18
0000
0000
ENDCHAR

STARTCHAR kor_A7EF
ENCODING 42991
SWIDTH 803 0
DWIDTH 16 0
BBX 16 16 0 -1
BITMAP
0000
0180
0180
01C0
01C0
01C3
72D7
DAAB
C2AB
C2E6
C2E7
C6AD
D6AD
76DD
060D
0607
ENDCHAR

STARTCHAR kor_A8A1
ENCODING 43169
SWIDTH 803 0
DWIDTH 16 0
BBX 16 16 0 -1
BITMAP
0000
0000
01FE
0180
0180
02C0
02C0
02FE
0660
07E0
0660
0C30
0C30
3E7E
0000
0000
ENDCHAR

STARTCHAR kor_A8A2
ENCODING 43170
SWIDTH 803 0
DWIDTH 16 0
BBX 16 16 0 -1
BITMAP
0000
0000
1FE0
0C30
0C18
0C18
0C18
3F98
0C18
0C18
0C18
0C18
0C30
1FE0
0000
0000
ENDCHAR

STARTCHAR kor_A8A3
ENCODING 43171
SWIDTH 803 0
DWIDTH 16 0
BBX 16 16 0 -1
BITMAP
0000
0000
03E0
0630
0C18
0018
03D8
0638
0C18
0C18
0638
03EE
0000
1FFE
0000
0000
ENDCHAR

STARTCHAR kor_A8A4
ENCODING 43172
SWIDTH 803 0
DWIDTH 16 0
BBX 16 16 0 -1
BITMAP
0000
0000
3E7C
0C30
3FFC
0C30
0C30
0FF0
0C30
0C30
0C30
0C30
0C30
3E7C
0000
0000
ENDCHAR

STARTCHAR kor_A8A6
ENCODING 43174
SWIDTH 803 0
DWIDTH 16 0
BBX 16 16 0 -1
BITMAP
0000
0000
1F7C
0630
0630
0630
0630
0630
0630
0630
0630
0630
1FB0
0030
0330
01E0
ENDCHAR

STARTCHAR kor_A8A8
ENCODING 43176
SWIDTH 803 0
DWIDTH 16 0
BBX 16 16 0 -1
BITMAP
0000
0000
1F80
0600
0600
0600
0670
0670
0600
0600
0600
060C
0618
1FF8
0000
0000
ENDCHAR

STARTCHAR kor_A8A9
ENCODING 43177
SWIDTH 803 0
DWIDTH 16 0
BBX 16 16 0 -1
BITMAP
0000
0000
1F80
0600
0600
05C0
0F00
3600
0600
0600
0600
060C
0618
1FF8
0000
0000
ENDCHAR

STARTCHAR kor_A8AA
ENCODING 43178
SWIDTH 803 0
DWIDTH 16 0
BBX 16 16 0 -1
BITMAP
0000
0000
03EC
0638
0C38
0C58
0CD8
0CD8
0D98
0D98
0B18
0E18
0E30
1BE0
0000
0000
ENDCHAR

STARTCHAR kor_A8AB
ENCODING 43179
SWIDTH 803 0
DWIDTH 16 0
BBX 16 16 0 -1
BITMAP
0000
0000
0780
0CFE
1860
1860
1860
187E
1860
1860
1860
1860
0CFE
0780
0000
0000
ENDCHAR

STARTCHAR kor_A8AC
ENCODING 43180
SWIDTH 803 0
DWIDTH 16 0
BBX 16 16 0 -1
BITMAP
0000
0000
03E0
0630
0C18
0C18
0C18
0C18
0C18
0630
03E0
0000
0000
1FFC
0000
0000
ENDCHAR

STARTCHAR kor_A8AD
ENCODING 43181
SWIDTH 803 0
DWIDTH 16 0
BBX 16 16 0 -1
BITMAP
0000
0000
1F00
0600
07E0
0630
0618
0618
0618
0618
0630
07E0
0600
1F00
0000
0000
ENDCHAR

STARTCHAR kor_A8AE
ENCODING 43182
SWIDTH 803 0
DWIDTH 16 0
BBX 16 16 0 -1
BITMAP
0000
0000
1FF8
1998
1998
0180
0180
1FF8
0180
0180
0180
0180
0180
07E0
0000
0000
ENDCHAR

STARTCHAR kor_A8AF
ENCODING 43183
SWIDTH 803 0
DWIDTH 16 0
BBX 16 16 0 -1
BITMAP
0000
0000
0DE0
0B30
0E18
0C18
0C18
0C18
0C18
0C18
0B30
0DE0
0C00
0C00
0C00
0C00
ENDCHAR

STARTCHAR kor_A8B1
ENCODING 43185
SWIDTH 803 0
DWIDTH 16 0
BBX 16 16 0 -1
BITMAP
0000
0000
03E0
0E38
180C
17EC
3036
3036
3066
30C6
1B8C
180C
0C38
07E0
0000
0000
ENDCHAR

STARTCHAR kor_A8B2
ENCODING 43186
SWIDTH 803 0
DWIDTH 16 0
BBX 16 16 0 -1
BITMAP
0000
0000
03E0
0E38
180C
2C0C
2C06
2C06
2C06
2C16
37F6
180C
0C18
07F0
0000
0000
ENDCHAR

STARTCHAR kor_A8B3
ENCODING 43187
SWIDTH 803 0
DWIDTH 16 0
BBX 16 16 0 -1
BITMAP
0000
0000
03E0
0E38
180C
17EC
3606
3606
3606
3616
1BF6
180C
0C18
07F0
0000
0000
ENDCHAR

STARTCHAR kor_A8B4
ENCODING 43188
SWIDTH 803 0
DWIDTH 16 0
BBX 16 16 0 -1
BITMAP
0000
0000
03E0
0E38
1B8C
30CC
30C6
3386
3606
3616
1BEC
180C
0E38
03E0
0000
0000
ENDCHAR

STARTCHAR kor_A8B5
ENCODING 43189
SWIDTH 803 0
DWIDTH 16 0
BBX 16 16 0 -1
BITMAP
0000
0000
07E0
0C38
160C
37EC
3636
3636
3666
36B6
15EC
0C1C
0630
03E0
0000
0000
ENDCHAR

STARTCHAR kor_A8B6
ENCODING 43190
SWIDTH 803 0
DWIDTH 16 0
BBX 16 16 0 -1
BITMAP
0000
0000
07F0
0C18
160C
1636
3636
35F6
35B6
35B6
32E6
180C
0C18
07F0
0000
0000
ENDCHAR

STARTCHAR kor_A8B7
ENCODING 43191
SWIDTH 803 0
DWIDTH 16 0
BBX 16 16 0 -1
BITMAP
0000
0000
03E0
0E38
18CC
38C6
3186
31C6
32E6
3636
1C0C
1818
0E30
03E0
0000
0000
ENDCHAR

STARTCHAR kor_A8B8
ENCODING 43192
SWIDTH 803 0
DWIDTH 16 0
BBX 16 16 0 -1
BITMAP
0000
0000
03E0
0E38
180C
3BCC
3666
3636
3636
3336
31EC
180C
1C38
07E0
0000
0000
ENDCHAR

STARTCHAR kor_A8B9
ENCODING 43193
SWIDTH 803 0
DWIDTH 16 0
BBX 16 16 0 -1
BITMAP
0000
0000
07F0
0C18
17CC
186C
3066
30C6
3166
3736
3016
180C
0C18
07F0
0000
0000
ENDCHAR

STARTCHAR kor_A8BA
ENCODING 43194
SWIDTH 803 0
DWIDTH 16 0
BBX 16 16 0 -1
BITMAP
0000
0000
07E0
0C38
1BCC
3866
2FC6
3066
30C6
3166
1B2C
161C
0E18
03F0
0000
0000
ENDCHAR

STARTCHAR kor_A8BB
ENCODING 43195
SWIDTH 803 0
DWIDTH 16 0
BBX 16 16 0 -1
BITMAP
0000
0000
03E0
0E38
1BCC
3876
3016
37F6
3016
3036
1866
19CC
0C18
07F0
0000
0000
ENDCHAR

STARTCHAR kor_A8BC
ENCODING 43196
SWIDTH 803 0
DWIDTH 16 0
BBX 16 16 0 -1
BITMAP
0000
0000
03E0
0E38
180C
2FEC
3606
3606
37F6
3606
3606
1BEC
0C38
07E0
0000
0000
ENDCHAR

STARTCHAR kor_A8BD
ENCODING 43197
SWIDTH 803 0
DWIDTH 16 0
BBX 16 16 0 -1
BITMAP
0000
0000
03E0
0E38
180C
2FFC
3366
3366
3366
32C6
2FF6
180C
0C38
07F0
0000
0000
ENDCHAR

STARTCHAR kor_A8BE
ENCODING 43198
SWIDTH 803 0
DWIDTH 16 0
BBX 16 16 0 -1
BITMAP
0000
0000
07E0
0E38
1B1C
198C
2EC6
31E6
3336
3636
3666
33CC
1818
0FF0
0000
0000
ENDCHAR

STARTCHAR kor_A8BF
ENCODING 43199
SWIDTH 803 0
DWIDTH 16 0
BBX 16 16 0 -1
BITMAP
0000
0000
03F0
0E18
182C
2F36
31B6
31B6
3336
3636
2C36
182C
0C18
07F0
0000
0000
ENDCHAR

STARTCHAR kor_A8C0
ENCODING 43200
SWIDTH 803 0
DWIDTH 16 0
BBX 16 16 0 -1
BITMAP
0000
0000
03E0
0E38
182C
2C2C
2C36
2C3E
2C36
3636
33B6
182C
0C18
07F0
0000
0000
ENDCHAR

STARTCHAR kor_A8C1
ENCODING 43201
SWIDTH 803 0
DWIDTH 16 0
BBX 16 16 0 -1
BITMAP
0000
0000
03E0
0E38
181C
3FAE
2C36
2C36
2C36
2C36
37B6
182C
0C18
07F0
0000
0000
ENDCHAR

STARTCHAR kor_A8C2
ENCODING 43202
SWIDTH 803 0
DWIDTH 16 0
BBX 16 16 0 -1
BITMAP
0000
0000
03E0
0E38
180C
3E2E
3336
337E
36B6
2DB6
3736
182C
0C18
07F0
0000
0000
ENDCHAR

STARTCHAR kor_A8C3
ENCODING 43203
SWIDTH 803 0
DWIDTH 16 0
BBX 16 16 0 -1
BITMAP
0000
0000
03E0
0E38
180C
382E
2FB6
2DB6
2DB6
2B36
2FB6
182C
0C38
07E0
0000
0000
ENDCHAR

STARTCHAR kor_A8C4
ENCODING 43204
SWIDTH 803 0
DWIDTH 16 0
BBX 16 16 0 -1
BITMAP
0000
0000
03F0
0E38
1CAC
1CAC
2CB6
2BBE
2EB6
2CB6
37B6
182C
0C18
07F0
0000
0000
ENDCHAR

STARTCHAR kor_A8C5
ENCODING 43205
SWIDTH 803 0
DWIDTH 16 0
BBX 16 16 0 -1
BITMAP
0000
0000
03E0
0E38
19AC
19AC
3336
373E
2DB6
38B6
3036
182C
0C18
07F0
0000
0000
ENDCHAR

STARTCHAR kor_A8C6
ENCODING 43206
SWIDTH 803 0
DWIDTH 16 0
BBX 16 16 0 -1
BITMAP
0000
0000
03E0
0E38
182C
172C
2DB6
2DB6
3736
3036
3036
182C
0C18
07F0
0000
0000
ENDCHAR

STARTCHAR kor_A8C7
ENCODING 43207
SWIDTH 803 0
DWIDTH 16 0
BBX 16 16 0 -1
BITMAP
0000
0000
03E0
0E38
182C
1F2C
31B6
31BE
3336
35B6
2CB6
182C
0E18
07F0
0000
0000
ENDCHAR

STARTCHAR kor_A8C8
ENCODING 43208
SWIDTH 803 0
DWIDTH 16 0
BBX 16 16 0 -1
BITMAP
0000
0000
03E0
0E38
1B2C
19AC
2FB6
31B6
33B6
36B6
3C76
182C
0C18
07F0
0000
0000
ENDCHAR

STARTCHAR kor_A8C9
ENCODING 43209
SWIDTH 803 0
DWIDTH 16 0
BBX 16 16 0 -1
BITMAP
0000
0000
03E0
0E38
182C
3F2C
31B6
2FB6
31B6
3336
3636
182C
0C18
07F0
0000
0000
ENDCHAR

STARTCHAR kor_A8CA
ENCODING 43210
SWIDTH 803 0
DWIDTH 16 0
BBX 16 16 0 -1
BITMAP
0000
0000
03E0
0E38
182C
1FAC
2C36
2FBE
2C36
37B6
3036
182C
0C18
07F0
0000
0000
ENDCHAR

STARTCHAR kor_A8CB
ENCODING 43211
SWIDTH 803 0
DWIDTH 16 0
BBX 16 16 0 -1
BITMAP
0000
0000
03E0
0E38
182C
1FAC
35B6
35BE
2FB6
3036
3036
180C
0C38
07E0
0000
0000
ENDCHAR

STARTCHAR kor_A8CC
ENCODING 43212
SWIDTH 803 0
DWIDTH 16 0
BBX 16 16 0 -1
BITMAP
0000
0000
03E0
0E38
172C
19AC
3F36
35BE
2CB6
2CB6
37B6
182C
0C18
07F0
0000
0000
ENDCHAR

STARTCHAR kor_A8CD
ENCODING 43213
SWIDTH 803 0
DWIDTH 16 0
BBX 16 16 0 -1
BITMAP
0000
03E0
0E38
180C
3006
3006
67E3
6033
63F3
6633
3636
33DE
180C
0E38
03E0
0000
ENDCHAR

STARTCHAR kor_A8CE
ENCODING 43214
SWIDTH 803 0
DWIDTH 16 0
BBX 16 16 0 -1
BITMAP
0000
03E0
0E38
160C
3606
3606
67E3
6633
6633
6633
3636
2FE6
180C
0E38
03E0
0000
ENDCHAR

STARTCHAR kor_A8CF
ENCODING 43215
SWIDTH 803 0
DWIDTH 16 0
BBX 16 16 0 -1
BITMAP
0000
03E0
0E38
180C
3006
3006
63E3
6633
6603
6603
3636
33E6
180C
0E38
03E0
0000
ENDCHAR

STARTCHAR kor_A8D0
ENCODING 43216
SWIDTH 803 0
DWIDTH 16 0
BBX 16 16 0 -1
BITMAP
0000
03E0
0E38
182C
3036
3036
63F3
6633
6633
6633
3636
33F6
180C
0E38
03E0
0000
ENDCHAR

STARTCHAR kor_A8D1
ENCODING 43217
SWIDTH 803 0
DWIDTH 16 0
BBX 16 16 0 -1
BITMAP
0000
03E0
0E38
180C
3006
3006
63E3
6633
6633
67F3
3606
33F6
180C
0E38
03E0
0000
ENDCHAR

STARTCHAR kor_A8D2
ENCODING 43218
SWIDTH 803 0
DWIDTH 16 0
BBX 16 16 0 -1
BITMAP
0000
03E0
0E38
18EC
31B6
3186
6183
67E3
6183
6183
3186
37E6
180C
0E38
03E0
0000
ENDCHAR

STARTCHAR kor_A8D3
ENCODING 43219
SWIDTH 803 0
DWIDTH 16 0
BBX 16 16 0 -1
BITMAP
0000
03E0
0E38
180C
3006
3076
63C3
6663
6663
63C3
3186
33F6
161C
0E38
03E0
0000
ENDCHAR

STARTCHAR kor_A8D4
ENCODING 43220
SWIDTH 803 0
DWIDTH 16 0
BBX 16 16 0 -1
BITMAP
0000
03E0
0E38
160C
3606
3606
65E3
6733
6633
6633
3636
2F76
180C
0E38
03E0
0000
ENDCHAR

STARTCHAR kor_A8D5
ENCODING 43221
SWIDTH 803 0
DWIDTH 16 0
BBX 16 16 0 -1
BITMAP
0000
03E0
0E38
198C
3186
3006
6383
6183
6183
6183
3186
33C6
180C
0E38
03E0
0000
ENDCHAR

STARTCHAR kor_A8D6
ENCODING 43222
SWIDTH 803 0
DWIDTH 16 0
BBX 16 16 0 -1
BITMAP
0000
03E0
0E38
186C
3066
3006
61E3
6063
6063
6063
3066
3066
186C
0EB8
03E0
0000
ENDCHAR

STARTCHAR kor_A8D7
ENCODING 43223
SWIDTH 803 0
DWIDTH 16 0
BBX 16 16 0 -1
BITMAP
0000
03E0
0E38
160C
3606
3606
667B
66E3
6783
65C3
3666
2F76
180C
0E38
03E0
0000
ENDCHAR

STARTCHAR kor_A8D8
ENCODING 43224
SWIDTH 803 0
DWIDTH 16 0
BBX 16 16 0 -1
BITMAP
0000
03E0
0E38
18CC
31C6
30C6
60C3
60C3
60C3
60C3
30C6
30C6
1BEC
0E38
03E0
0000
ENDCHAR

STARTCHAR kor_A8D9
ENCODING 43225
SWIDTH 803 0
DWIDTH 16 0
BBX 16 16 0 -1
BITMAP
0000
03E0
0E38
180C
3006
3006
6B73
66DB
66DB
66DB
36D6
2EBE
180C
0E38
03E0
0000
ENDCHAR

STARTCHAR kor_A8DA
ENCODING 43226
SWIDTH 803 0
DWIDTH 16 0
BBX 16 16 0 -1
BITMAP
0000
03E0
0E38
180C
3006
3006
6BE3
6633
6633
6633
3636
2F76
180C
0E38
03E0
0000
ENDCHAR

STARTCHAR kor_A8DB
ENCODING 43227
SWIDTH 803 0
DWIDTH 16 0
BBX 16 16 0 -1
BITMAP
0000
03E0
0E38
180C
3006
3006
63E3
6633
6633
6633
3636
33E6
180C
0E38
03E0
0000
ENDCHAR

STARTCHAR kor_A8DC
ENCODING 43228
SWIDTH 803 0
DWIDTH 16 0
BBX 16 16 0 -1
BITMAP
0000
03E0
0E38
180C
3006
3006
6FE3
6633
6633
6633
37E6
3606
160C
0E38
03E0
0000
ENDCHAR

STARTCHAR kor_A8DD
ENCODING 43229
SWIDTH 803 0
DWIDTH 16 0
BBX 16 16 0 -1
BITMAP
0000
03E0
0E38
180C
3006
3006
63FB
6633
6633
6633
33F6
3036
182C
0E38
03E0
0000
ENDCHAR

STARTCHAR kor_A8DE
ENCODING 43230
SWIDTH 803 0
DWIDTH 16 0
BBX 16 16 0 -1
BITMAP
0000
03E0
0E38
180C
3006
3006
6773
62DB
6383
6303
3306
3786
180C
0E38
03E0
0000
ENDCHAR

STARTCHAR kor_A8DF
ENCODING 43231
SWIDTH 803 0
DWIDTH 16 0
BBX 16 16 0 -1
BITMAP
0000
03E0
0E38
180C
3006
3006
63F3
6603
63E3
6033
3636
33E6
180C
0E38
03E0
0000
ENDCHAR

STARTCHAR kor_A8E0
ENCODING 43232
SWIDTH 803 0
DWIDTH 16 0
BBX 16 16 0 -1
BITMAP
0000
03E0
0E38
198C
3186
3186
67F3
6183
6183
6183
3186
30F6
180C
0E38
03E0
0000
ENDCHAR

STARTCHAR kor_A8E1
ENCODING 43233
SWIDTH 803 0
DWIDTH 16 0
BBX 16 16 0 -1
BITMAP
0000
03E0
0E38
180C
3006
3006
6E33
6633
6633
6633
3636
33D6
180C
0E38
03E0
0000
ENDCHAR

STARTCHAR kor_A8E2
ENCODING 43234
SWIDTH 803 0
DWIDTH 16 0
BBX 16 16 0 -1
BITMAP
0000
03E0
0E38
180C
3006
3006
673B
6333
6333
6163
3166
30C6
180C
0E38
03E0
0000
ENDCHAR

STARTCHAR kor_A8E3
ENCODING 43235
SWIDTH 803 0
DWIDTH 16 0
BBX 16 16 0 -1
BITMAP
0000
03E0
0E38
180C
3006
3006
5EDF
6CCB
66DB
655B
3376
3336
180C
0E38
03E0
0000
ENDCHAR

STARTCHAR kor_A8E4
ENCODING 43236
SWIDTH 803 0
DWIDTH 16 0
BBX 16 16 0 -1
BITMAP
0000
03E0
0E38
180C
3006
3006
6F7B
6633
62E3
6363
3636
2F76
180C
0E38
03E0
0000
ENDCHAR

STARTCHAR kor_A8E5
ENCODING 43237
SWIDTH 803 0
DWIDTH 16 0
BBX 16 16 0 -1
BITMAP
0000
03E0
0E38
180C
3006
3006
671B
631B
61B3
60B3
3066
3066
18CC
0FB8
03E0
0000
ENDCHAR

STARTCHAR kor_A8E6
ENCODING 43238
SWIDTH 803 0
DWIDTH 16 0
BBX 16 16 0 -1
BITMAP
0000
03E0
0E38
180C
3006
3006
67FB
6633
6003
61C3
3316
37F6
180C
0E38
03E0
0000
ENDCHAR

STARTCHAR kor_A8E7
ENCODING 43239
SWIDTH 803 0
DWIDTH 16 0
BBX 16 16 0 -1
BITMAP
0000
03E0
0E38
180C
30C6
31C6
60C3
60C3
60C3
60C3
30C6
33F6
180C
0E38
03E0
0000
ENDCHAR

STARTCHAR kor_A8E8
ENCODING 43240
SWIDTH 803 0
DWIDTH 16 0
BBX 16 16 0 -1
BITMAP
0000
03E0
0E38
180C
33E6
3636
6033
6063
61C3
6303
3606
37F6
180C
0E38
03E0
0000
ENDCHAR

STARTCHAR kor_A8E9
ENCODING 43241
SWIDTH 803 0
DWIDTH 16 0
BBX 16 16 0 -1
BITMAP
0000
03E0
0E38
180C
33E6
3636
6033
61E3
6063
6033
3636
33E6
180C
0E38
03E0
0000
ENDCHAR

STARTCHAR kor_A8EA
ENCODING 43242
SWIDTH 803 0
DWIDTH 16 0
BBX 16 16 0 -1
BITMAP
0000
03E0
0E38
180C
3066
30E6
6163
6363
6663
67FB
3066
30F6
180C
0E38
03E0
0000
ENDCHAR

STARTCHAR kor_A8EB
ENCODING 43243
SWIDTH 803 0
DWIDTH 16 0
BBX 16 16 0 -1
BITMAP
0000
03E0
0E38
180C
37F6
3606
6603
67E3
6633
6033
3636
33E6
180C
0E38
03E0
0000
ENDCHAR

STARTCHAR kor_A8EC
ENCODING 43244
SWIDTH 803 0
DWIDTH 16 0
BBX 16 16 0 -1
BITMAP
0000
03E0
0E38
180C
33E6
3636
6603
65E3
6733
6633
3636
33E6
180C
0E38
03E0
0000
ENDCHAR

STARTCHAR kor_A8ED
ENCODING 43245
SWIDTH 803 0
DWIDTH 16 0
BBX 16 16 0 -1
BITMAP
0000
03E0
0E38
180C
37F6
3036
6033
6063
6063
60C3
30C6
30C6
180C
0E38
03E0
0000
ENDCHAR

STARTCHAR kor_A8EE
ENCODING 43246
SWIDTH 803 0
DWIDTH 16 0
BBX 16 16 0 -1
BITMAP
0000
03E0
0E38
180C
33E6
3636
6633
63E3
6633
6633
3636
33E6
180C
0E38
03E0
0000
ENDCHAR

STARTCHAR kor_A8EF
ENCODING 43247
SWIDTH 803 0
DWIDTH 16 0
BBX 16 16 0 -1
BITMAP
0000
03E0
0E38
180C
33E6
3636
6633
6673
63B3
6033
3636
33E6
180C
0E38
03E0
0000
ENDCHAR

STARTCHAR kor_A8F0
ENCODING 43248
SWIDTH 803 0
DWIDTH 16 0
BBX 16 16 0 -1
BITMAP
0000
03E0
0E38
180C
3676
2ED6
66DB
66DB
66DB
66DB
36D6
2F76
180C
0E38
03E0
0000
ENDCHAR

STARTCHAR kor_A8F1
ENCODING 43249
SWIDTH 803 0
DWIDTH 16 0
BBX 16 16 0 -1
BITMAP
0000
03E0
0E38
180C
3336
3776
6333
6333
6333
6333
3336
3776
180C
0E38
03E0
0000
ENDCHAR

STARTCHAR kor_A8F2
ENCODING 43250
SWIDTH 803 0
DWIDTH 16 0
BBX 16 16 0 -1
BITMAP
0000
03E0
0E38
180C
3676
2ED6
661B
661B
6633
6663
36C6
2EF6
180C
0E38
03E0
0000
ENDCHAR

STARTCHAR kor_A8F3
ENCODING 43251
SWIDTH 803 0
DWIDTH 16 0
BBX 16 16 0 -1
BITMAP
0000
03E0
0E38
180C
36F6
2E16
661B
6673
661B
661B
3616
2EF6
180C
0E38
03E0
0000
ENDCHAR

STARTCHAR kor_A8F4
ENCODING 43252
SWIDTH 803 0
DWIDTH 16 0
BBX 16 16 0 -1
BITMAP
0000
03E0
0E38
180C
3636
2E76
6673
66B3
66B3
65FB
3636
2F76
180C
0E38
03E0
0000
ENDCHAR

STARTCHAR kor_A8F5
ENCODING 43253
SWIDTH 803 0
DWIDTH 16 0
BBX 16 16 0 -1
BITMAP
0000
03E0
0E38
180C
36F6
2EC6
66C3
66F3
66DB
661B
36D6
2F76
180C
0E38
03E0
0000
ENDCHAR

STARTCHAR kor_A8F6
ENCODING 43254
SWIDTH 803 0
DWIDTH 16 0
BBX 16 16 0 -1
BITMAP
0000
0C0C
1C18
0C18
0C30
0C60
0C60
0CC0
019C
01B6
0306
060C
0618
0C30
183E
0000
ENDCHAR

STARTCHAR kor_A8F7
ENCODING 43255
SWIDTH 803 0
DWIDTH 16 0
BBX 16 16 0 -1
BITMAP
0000
0C0C
1C18
0C18
0C30
0C60
0C60
0CC0
019C
01B6
0306
061C
0606
0C06
183C
0000
ENDCHAR

STARTCHAR kor_A8F8
ENCODING 43256
SWIDTH 803 0
DWIDTH 16 0
BBX 16 16 0 -1
BITMAP
0000
0E0C
1B18
0318
0630
0C60
1860
1EC0
019C
01B6
0306
061C
0606
0C06
183C
0000
ENDCHAR

STARTCHAR kor_A8F9
ENCODING 43257
SWIDTH 803 0
DWIDTH 16 0
BBX 16 16 0 -1
BITMAP
0000
0C0C
1C18
0C18
0C30
0C60
0C60
0CC0
018C
019C
032C
066C
067E
0C0C
180C
0000
ENDCHAR

STARTCHAR kor_A8FA
ENCODING 43258
SWIDTH 803 0
DWIDTH 16 0
BBX 16 16 0 -1
BITMAP
0000
0E0C
1B18
0318
0E30
0360
1B60
0EC0
018C
019C
032C
066C
067E
0C0C
180C
0000
ENDCHAR

STARTCHAR kor_A8FB
ENCODING 43259
SWIDTH 803 0
DWIDTH 16 0
BBX 16 16 0 -1
BITMAP
0000
0C0C
1C18
0C18
0C30
0C60
0C60
0CC0
019C
01B6
0336
061C
0636
0C36
181C
0000
ENDCHAR

STARTCHAR kor_A8FC
ENCODING 43260
SWIDTH 803 0
DWIDTH 16 0
BBX 16 16 0 -1
BITMAP
0000
0E0C
1B18
0318
0E30
0360
1B60
0EC0
019C
01B6
0336
061C
0636
0C36
181C
0000
ENDCHAR

STARTCHAR kor_A8FD
ENCODING 43261
SWIDTH 803 0
DWIDTH 16 0
BBX 16 16 0 -1
BITMAP
0000
1F0C
1818
1E18
1B30
0360
1B60
0EC0
019C
01B6
0336
061C
0636
0C36
181C
0000
ENDCHAR

STARTCHAR kor_A8FE
ENCODING 43262
SWIDTH 803 0
DWIDTH 16 0
BBX 16 16 0 -1
BITMAP
0000
1F0C
0318
0318
0630
0C60
0C60
0CC0
019C
01B6
0336
061C
0636
0C36
181C
0000
ENDCHAR

STARTCHAR kor_A9A1
ENCODING 43425
SWIDTH 803 0
DWIDTH 16 0
BBX 16 16 0 -1
BITMAP
0000
0000
0000
0000
0000
07BC
0CE6
18C6
00C6
0FFC
18C0
18C0
18E6
0FBC
0000
0000
ENDCHAR

STARTCHAR kor_A9A2
ENCODING 43426
SWIDTH 803 0
DWIDTH 16 0
BBX 16 16 0 -1
BITMAP
0000
0000
0030
0030
07FC
0030
0030
07B0
0C70
1830
1830
1830
0C70
07DC
0000
0000
ENDCHAR

STARTCHAR kor_A9A3
ENCODING 43427
SWIDTH 803 0
DWIDTH 16 0
BBX 16 16 0 -1
BITMAP
0000
0000
0000
0000
0000
0FDC
0070
01D8
0018
1FF8
1818
1818
0C30
07E0
0000
0000
ENDCHAR

STARTCHAR kor_A9A4
ENCODING 43428
SWIDTH 803 0
DWIDTH 16 0
BBX 16 16 0 -1
BITMAP
0000
0000
0600
0600
3FF0
0600
0600
05F0
0718
0618
0618
0618
0618
1F3E
0000
0000
ENDCHAR

STARTCHAR kor_A9A5
ENCODING 43429
SWIDTH 803 0
DWIDTH 16 0
BBX 16 16 0 -1
BITMAP
0000
0000
0180
0380
0180
0180
0180
0180
0180
0180
0180
0180
0180
07E0
0000
0000
ENDCHAR

STARTCHAR kor_A9A6
ENCODING 43430
SWIDTH 803 0
DWIDTH 16 0
BBX 16 16 0 -1
BITMAP
0000
0000
0630
0630
0000
0000
0630
0630
0630
0630
0630
0630
0630
1FB0
0030
00E0
ENDCHAR

STARTCHAR kor_A9A7
ENCODING 43431
SWIDTH 803 0
DWIDTH 16 0
BBX 16 16 0 -1
BITMAP
0000
0000
0000
0000
0000
0F78
0630
0660
06C0
0580
06C0
0660
0630
0F78
0000
0000
ENDCHAR

STARTCHAR kor_A9A8
ENCODING 43432
SWIDTH 803 0
DWIDTH 16 0
BBX 16 16 0 -1
BITMAP
0000
0000
0180
0380
0180
0180
019C
019C
0180
0180
0180
0180
0180
07E0
0000
0000
ENDCHAR

STARTCHAR kor_A9A9
ENCODING 43433
SWIDTH 803 0
DWIDTH 16 0
BBX 16 16 0 -1
BITMAP
0000
0000
0180
0380
0180
0170
03C0
0D80
0180
0180
0180
0180
0180
07E0
0000
0000
ENDCHAR

STARTCHAR kor_A9AA
ENCODING 43434
SWIDTH 803 0
DWIDTH 16 0
BBX 16 16 0 -1
BITMAP
0000
0000
0000
0000
0000
03D8
0630
0C58
0CD8
0D98
0D98
0B18
0630
0BE0
0000
0000
ENDCHAR

STARTCHAR kor_A9AB
ENCODING 43435
SWIDTH 803 0
DWIDTH 16 0
BBX 16 16 0 -1
BITMAP
0000
0000
0000
0000
0000
0F3C
1966
30C6
30C6
30FE
30C0
30C0
1966
0F3C
0000
0000
ENDCHAR

STARTCHAR kor_A9AC
ENCODING 43436
SWIDTH 803 0
DWIDTH 16 0
BBX 16 16 0 -1
BITMAP
0000
0000
03C0
0660
0C30
0C30
0C60
0DC0
0C60
0C30
0C30
0C30
0C60
0BC0
0C00
0000
ENDCHAR

STARTCHAR kor_A9AD
ENCODING 43437
SWIDTH 803 0
DWIDTH 16 0
BBX 16 16 0 -1
BITMAP
0000
0000
0F00
0600
07E0
0630
0618
0618
0618
0630
07E0
0600
0600
0F00
0000
0000
ENDCHAR

STARTCHAR kor_A9AE
ENCODING 43438
SWIDTH 803 0
DWIDTH 16 0
BBX 16 16 0 -1
BITMAP
0000
0000
0370
03C0
0F00
0300
1FF8
0300
0300
0300
0300
0300
0330
01E0
0000
0000
ENDCHAR

STARTCHAR kor_A9AF
ENCODING 43439
SWIDTH 803 0
DWIDTH 16 0
BBX 16 16 0 -1
BITMAP
0000
0000
06E0
0DB0
0718
0618
0618
0618
0618
0618
0618
0618
0618
0F18
0018
0070
ENDCHAR

STARTCHAR kor_A9B0
ENCODING 43440
SWIDTH 803 0
DWIDTH 16 0
BBX 16 16 0 -1
BITMAP
0000
0000
0600
0C00
1800
35E0
0F30
0618
0618
0618
0618
0618
0618
0F3C
0000
0000
ENDCHAR

STARTCHAR kor_A9B1
ENCODING 43441
SWIDTH 803 0
DWIDTH 16 0
BBX 16 16 0 -1
BITMAP
0000
0000
0C18
180C
180C
37E6
3036
3036
3066
30C6
1B8C
180C
0C18
0630
0000
0000
ENDCHAR

STARTCHAR kor_A9B2
ENCODING 43442
SWIDTH 803 0
DWIDTH 16 0
BBX 16 16 0 -1
BITMAP
0000
0000
0C18
180C
180C
2C06
2C06
2C06
2C06
3606
1BEC
180C
0C18
0630
0000
0000
ENDCHAR

STARTCHAR kor_A9B3
ENCODING 43443
SWIDTH 803 0
DWIDTH 16 0
BBX 16 16 0 -1
BITMAP
0000
0000
0E18
1C0C
180C
2FF6
3606
3606
3606
3616
1BEC
180C
0C18
0630
0000
0000
ENDCHAR

STARTCHAR kor_A9B4
ENCODING 43444
SWIDTH 803 0
DWIDTH 16 0
BBX 16 16 0 -1
BITMAP
0000
0000
0C18
180C
1B8C
30C6
31C6
3306
3606
3616
1B2C
19EC
0C18
0630
0000
0000
ENDCHAR

STARTCHAR kor_A9B5
ENCODING 43445
SWIDTH 803 0
DWIDTH 16 0
BBX 16 16 0 -1
BITMAP
0000
0000
0C18
180C
180C
35E6
3736
3636
3666
36D6
15EC
180C
0C18
0630
0000
0000
ENDCHAR

STARTCHAR kor_A9B6
ENCODING 43446
SWIDTH 803 0
DWIDTH 16 0
BBX 16 16 0 -1
BITMAP
0000
0000
0C18
180C
180C
3636
3636
35F6
35B6
35B6
16EC
180C
0C18
0618
0000
0000
ENDCHAR

STARTCHAR kor_A9B7
ENCODING 43447
SWIDTH 803 0
DWIDTH 16 0
BBX 16 16 0 -1
BITMAP
0000
0000
0C18
180C
18CC
3186
3186
3386
32C6
3666
1C2C
180C
0C18
0630
0000
0000
ENDCHAR

STARTCHAR kor_A9B8
ENCODING 43448
SWIDTH 803 0
DWIDTH 16 0
BBX 16 16 0 -1
BITMAP
0000
0000
0C18
180C
180C
31E6
3336
3636
3666
33C6
180C
180C
0C18
0630
0000
0000
ENDCHAR

STARTCHAR kor_A9B9
ENCODING 43449
SWIDTH 803 0
DWIDTH 16 0
BBX 16 16 0 -1
BITMAP
0000
0000
0C18
180C
17CC
3066
3066
30C6
3166
3336
161C
180C
0C18
0630
0000
0000
ENDCHAR

STARTCHAR kor_A9BA
ENCODING 43450
SWIDTH 803 0
DWIDTH 16 0
BBX 16 16 0 -1
BITMAP
0000
0000
0C18
1BCC
186C
2FC6
3066
3066
30C6
3166
172C
180C
0C18
0630
0000
0000
ENDCHAR

STARTCHAR kor_A9BB
ENCODING 43451
SWIDTH 803 0
DWIDTH 16 0
BBX 16 16 0 -1
BITMAP
0000
0000
0C18
180C
17CC
3066
3036
37F6
3036
3066
19CC
1B0C
0C18
0630
0000
0000
ENDCHAR

STARTCHAR kor_A9BC
ENCODING 43452
SWIDTH 803 0
DWIDTH 16 0
BBX 16 16 0 -1
BITMAP
0000
0000
0C18
180C
1FEC
3606
3606
37F6
3606
3616
1B2C
19EC
0C18
0638
0000
0000
ENDCHAR

STARTCHAR kor_A9BD
ENCODING 43453
SWIDTH 803 0
DWIDTH 16 0
BBX 16 16 0 -1
BITMAP
0000
0000
0C18
180C
1FFC
3366
3366
32E6
32C6
2FF6
180C
180C
0C18
0618
0000
0000
ENDCHAR

STARTCHAR kor_A9BE
ENCODING 43454
SWIDTH 803 0
DWIDTH 16 0
BBX 16 16 0 -1
BITMAP
0000
0000
0C18
1B8C
19CC
3066
2FE6
3166
3336
3636
166C
1BCC
0C18
0C30
0000
0000
ENDCHAR

STARTCHAR kor_A9BF
ENCODING 43455
SWIDTH 803 0
DWIDTH 16 0
BBX 16 16 0 -1
BITMAP
0000
0000
0C18
180C
182C
2FB6
30B6
31BE
31B6
3336
3636
182C
0C0C
0618
0000
0000
ENDCHAR

STARTCHAR kor_A9C0
ENCODING 43456
SWIDTH 803 0
DWIDTH 16 0
BBX 16 16 0 -1
BITMAP
0000
0000
0C18
180C
182C
2C36
2C36
2C3E
2C76
2CB6
37AC
182C
0C18
0E30
0000
0000
ENDCHAR

STARTCHAR kor_A9C1
ENCODING 43457
SWIDTH 803 0
DWIDTH 16 0
BBX 16 16 0 -1
BITMAP
0000
0000
0C18
182C
182C
2FB6
2C36
2C3E
2C36
37B6
182C
182C
0C18
0630
0000
0000
ENDCHAR

STARTCHAR kor_A9C2
ENCODING 43458
SWIDTH 803 0
DWIDTH 16 0
BBX 16 16 0 -1
BITMAP
0000
0000
0C18
182C
182C
3636
3336
363E
2CB6
2DB6
372C
182C
0C2C
0E18
0000
0000
ENDCHAR

STARTCHAR kor_A9C3
ENCODING 43459
SWIDTH 803 0
DWIDTH 16 0
BBX 16 16 0 -1
BITMAP
0000
0000
0C18
182C
182C
2B36
2DB6
2DBE
2B36
2BB6
302C
182C
0C1C
0618
0000
0000
ENDCHAR

STARTCHAR kor_A9C4
ENCODING 43460
SWIDTH 803 0
DWIDTH 16 0
BBX 16 16 0 -1
BITMAP
0000
0000
0C18
182C
182C
2CB6
2CB6
2BBE
2AB6
37B6
3036
182C
0C0C
0618
0000
0000
ENDCHAR

STARTCHAR kor_A9C5
ENCODING 43461
SWIDTH 803 0
DWIDTH 16 0
BBX 16 16 0 -1
BITMAP
0000
0000
0C18
182C
19AC
3336
3336
363E
2B36
39B6
3036
182C
0C0C
0E18
0000
0000
ENDCHAR

STARTCHAR kor_A9C6
ENCODING 43462
SWIDTH 803 0
DWIDTH 16 0
BBX 16 16 0 -1
BITMAP
0000
0000
0C18
180C
182C
3736
2DB6
2DB6
37B6
3036
3036
181C
0C0C
0E18
0000
0000
ENDCHAR

STARTCHAR kor_A9C7
ENCODING 43463
SWIDTH 803 0
DWIDTH 16 0
BBX 16 16 0 -1
BITMAP
0000
0000
0C18
180C
182C
2F36
31B6
3336
35B6
2CB6
3036
181C
0C0C
0E18
0000
0000
ENDCHAR

STARTCHAR kor_A9C8
ENCODING 43464
SWIDTH 803 0
DWIDTH 16 0
BBX 16 16 0 -1
BITMAP
0000
0000
0E18
180C
172C
31B6
2FB6
31BE
3336
35B6
2CB6
182C
0C0C
0618
0000
0000
ENDCHAR

STARTCHAR kor_A9C9
ENCODING 43465
SWIDTH 803 0
DWIDTH 16 0
BBX 16 16 0 -1
BITMAP
0000
0000
0618
1C0C
182C
2F36
31B6
2FB6
31B6
3336
3636
182C
0C0C
0618
0000
0000
ENDCHAR

STARTCHAR kor_A9CA
ENCODING 43466
SWIDTH 803 0
DWIDTH 16 0
BBX 16 16 0 -1
BITMAP
0000
0000
0C18
182C
182C
2FB6
2C36
2FBE
2C36
37B6
3836
182C
0C0C
0618
0000
0000
ENDCHAR

STARTCHAR kor_A9CB
ENCODING 43467
SWIDTH 803 0
DWIDTH 16 0
BBX 16 16 0 -1
BITMAP
0000
0000
0C18
182C
182C
2FB6
35B6
35BE
2FB6
3036
382C
182C
0C18
0618
0000
0000
ENDCHAR

STARTCHAR kor_A9CC
ENCODING 43468
SWIDTH 803 0
DWIDTH 16 0
BBX 16 16 0 -1
BITMAP
0000
0000
0C18
180C
172C
31B6
2F36
33B6
36B6
36B6
33B6
180C
0C0C
0618
0000
0000
ENDCHAR

STARTCHAR kor_A9CD
ENCODING 43469
SWIDTH 803 0
DWIDTH 16 0
BBX 16 16 0 -1
BITMAP
0000
180C
3006
3006
6003
67E3
6033
6033
63F3
6633
6633
6633
33D6
3006
180C
0000
ENDCHAR

STARTCHAR kor_A9CE
ENCODING 43470
SWIDTH 803 0
DWIDTH 16 0
BBX 16 16 0 -1
BITMAP
0000
180C
3606
2E06
6603
6603
67E3
6633
6633
6633
6633
6633
2FE6
3006
180C
0000
ENDCHAR

STARTCHAR kor_A9CF
ENCODING 43471
SWIDTH 803 0
DWIDTH 16 0
BBX 16 16 0 -1
BITMAP
0000
180C
3006
3006
6003
6003
63E3
6633
6603
6603
6603
6633
33E6
3006
180C
0000
ENDCHAR

STARTCHAR kor_A9D0
ENCODING 43472
SWIDTH 803 0
DWIDTH 16 0
BBX 16 16 0 -1
BITMAP
0000
180C
3036
3076
6033
6033
63F3
6633
6633
6633
6633
6633
33F6
3006
180C
0000
ENDCHAR

STARTCHAR kor_A9D1
ENCODING 43473
SWIDTH 803 0
DWIDTH 16 0
BBX 16 16 0 -1
BITMAP
0000
180C
3006
3006
6003
6003
63E3
6633
6633
67F3
6603
6633
33E6
3006
180C
0000
ENDCHAR

STARTCHAR kor_A9D2
ENCODING 43474
SWIDTH 803 0
DWIDTH 16 0
BBX 16 16 0 -1
BITMAP
0000
180C
30E6
31B6
6183
6183
6183
67E3
6183
6183
6183
6183
33C6
3006
180C
0000
ENDCHAR

STARTCHAR kor_A9D3
ENCODING 43475
SWIDTH 803 0
DWIDTH 16 0
BBX 16 16 0 -1
BITMAP
0000
180C
3006
3006
6003
603B
63E3
6633
6633
63E3
6303
63F3
3616
3616
1BEC
0000
ENDCHAR

STARTCHAR kor_A9D4
ENCODING 43476
SWIDTH 803 0
DWIDTH 16 0
BBX 16 16 0 -1
BITMAP
0000
180C
3606
2E06
6603
6603
65E3
6733
6633
6633
6633
6633
2F76
3006
180C
0000
ENDCHAR

STARTCHAR kor_A9D5
ENCODING 43477
SWIDTH 803 0
DWIDTH 16 0
BBX 16 16 0 -1
BITMAP
0000
180C
30C6
30C6
6003
6003
60C3
61C3
60C3
60C3
60C3
60C3
31E6
3006
180C
0000
ENDCHAR

STARTCHAR kor_A9D6
ENCODING 43478
SWIDTH 803 0
DWIDTH 16 0
BBX 16 16 0 -1
BITMAP
0000
180C
30C6
30C6
6003
6003
60C3
61C3
60C3
60C3
60C3
60C3
30C6
36C6
1B8C
0000
ENDCHAR

STARTCHAR kor_A9D7
ENCODING 43479
SWIDTH 803 0
DWIDTH 16 0
BBX 16 16 0 -1
BITMAP
0000
180C
3606
2E06
6603
6603
667B
6663
66C3
6783
66C3
6663
2F76
3006
180C
0000
ENDCHAR

STARTCHAR kor_A9D8
ENCODING 43480
SWIDTH 803 0
DWIDTH 16 0
BBX 16 16 0 -1
BITMAP
0000
180C
30C6
33C6
60C3
60C3
60C3
60C3
60C3
60C3
60C3
60C3
33F6
3006
180C
0000
ENDCHAR

STARTCHAR kor_A9D9
ENCODING 43481
SWIDTH 803 0
DWIDTH 16 0
BBX 16 16 0 -1
BITMAP
0000
180C
3006
3006
6003
6003
6B73
66DB
66DB
66DB
66DB
66DB
2EBE
3006
180C
0000
ENDCHAR

STARTCHAR kor_A9DA
ENCODING 43482
SWIDTH 803 0
DWIDTH 16 0
BBX 16 16 0 -1
BITMAP
0000
180C
3006
3006
6003
6003
6DE3
6733
6633
6633
6633
6633
2F76
3006
180C
0000
ENDCHAR

STARTCHAR kor_A9DB
ENCODING 43483
SWIDTH 803 0
DWIDTH 16 0
BBX 16 16 0 -1
BITMAP
0000
180C
3006
3006
6003
6003
63E3
6633
6633
6633
6633
6633
33E6
3006
180C
0000
ENDCHAR

STARTCHAR kor_A9DC
ENCODING 43484
SWIDTH 803 0
DWIDTH 16 0
BBX 16 16 0 -1
BITMAP
0000
180C
3006
3006
6003
6FE3
6633
6633
6633
6633
67E3
6603
3606
3606
1F0C
0000
ENDCHAR

STARTCHAR kor_A9DD
ENCODING 43485
SWIDTH 803 0
DWIDTH 16 0
BBX 16 16 0 -1
BITMAP
0000
180C
3006
3006
6003
63FB
6633
6633
6633
6633
63F3
6033
3036
3036
187C
0000
ENDCHAR

STARTCHAR kor_A9DE
ENCODING 43486
SWIDTH 803 0
DWIDTH 16 0
BBX 16 16 0 -1
BITMAP
0000
180C
3006
3006
6003
6003
6673
62DB
6383
6303
6303
6303
3786
3006
180C
0000
ENDCHAR

STARTCHAR kor_A9DF
ENCODING 43487
SWIDTH 803 0
DWIDTH 16 0
BBX 16 16 0 -1
BITMAP
0000
180C
3006
3006
6003
6003
63E3
6633
6603
63E3
6033
6633
33E6
3006
180C
0000
ENDCHAR

STARTCHAR kor_A9E0
ENCODING 43488
SWIDTH 803 0
DWIDTH 16 0
BBX 16 16 0 -1
BITMAP
0000
180C
3186
3386
6183
6183
67F3
6183
6183
6183
6183
6183
30E6
3006
180C
0000
ENDCHAR

STARTCHAR kor_A9E1
ENCODING 43489
SWIDTH 803 0
DWIDTH 16 0
BBX 16 16 0 -1
BITMAP
0000
180C
3006
3006
6003
6003
6C33
6633
6633
6633
6633
6633
33D6
3006
180C
0000
ENDCHAR

STARTCHAR kor_A9E2
ENCODING 43490
SWIDTH 803 0
DWIDTH 16 0
BBX 16 16 0 -1
BITMAP
0000
180C
3006
3006
6003
6003
6F3B
661B
6333
6333
6163
6163
30C6
30C6
180C
0000
ENDCHAR

STARTCHAR kor_A9E3
ENCODING 43491
SWIDTH 803 0
DWIDTH 16 0
BBX 16 16 0 -1
BITMAP
0000
180C
3006
3006
6003
6003
7C3B
599B
599B
6AB3
6AB3
6663
3666
3006
180C
0000
ENDCHAR

STARTCHAR kor_A9E4
ENCODING 43492
SWIDTH 803 0
DWIDTH 16 0
BBX 16 16 0 -1
BITMAP
0000
180C
3006
3006
6003
6003
6F7B
6633
6363
61C3
61C3
6363
2F76
3006
180C
0000
ENDCHAR

STARTCHAR kor_A9E5
ENCODING 43493
SWIDTH 803 0
DWIDTH 16 0
BBX 16 16 0 -1
BITMAP
0000
180C
3006
3006
6003
6003
6F3B
661B
6333
61B3
6163
60E3
30C6
36C6
1B8C
0000
ENDCHAR

STARTCHAR kor_A9E6
ENCODING 43494
SWIDTH 803 0
DWIDTH 16 0
BBX 16 16 0 -1
BITMAP
0000
180C
3006
3006
6003
6003
63FB
6633
6063
60C3
6183
631B
37F6
3006
180C
0000
ENDCHAR

STARTCHAR kor_A9E7
ENCODING 43495
SWIDTH 803 0
DWIDTH 16 0
BBX 16 16 0 -1
BITMAP
0000
180C
3006
30C6
63C3
60C3
60C3
60C3
60C3
60C3
60C3
60C3
33F6
3006
180C
0000
ENDCHAR

STARTCHAR kor_A9E8
ENCODING 43496
SWIDTH 803 0
DWIDTH 16 0
BBX 16 16 0 -1
BITMAP
0000
180C
3006
33E6
6633
6033
6033
6063
60C3
6183
6303
6603
37F6
3006
180C
0000
ENDCHAR

STARTCHAR kor_A9E9
ENCODING 43497
SWIDTH 803 0
DWIDTH 16 0
BBX 16 16 0 -1
BITMAP
0000
180C
3006
33E6
6633
6033
6033
61E3
6033
6033
6033
6633
33E6
3006
180C
0000
ENDCHAR

STARTCHAR kor_A9EA
ENCODING 43498
SWIDTH 803 0
DWIDTH 16 0
BBX 16 16 0 -1
BITMAP
0000
180C
3006
3066
60E3
6163
6163
6363
6363
6663
67FB
6063
3066
3006
180C
0000
ENDCHAR

STARTCHAR kor_A9EB
ENCODING 43499
SWIDTH 803 0
DWIDTH 16 0
BBX 16 16 0 -1
BITMAP
0000
180C
3006
37F6
6603
6603
6603
67E3
6633
6033
6033
6663
33C6
3006
180C
0000
ENDCHAR

STARTCHAR kor_A9EC
ENCODING 43500
SWIDTH 803 0
DWIDTH 16 0
BBX 16 16 0 -1
BITMAP
0000
180C
3006
33E6
6633
6603
6603
65E3
6733
6633
6633
6633
33E6
3006
180C
0000
ENDCHAR

STARTCHAR kor_A9ED
ENCODING 43501
SWIDTH 803 0
DWIDTH 16 0
BBX 16 16 0 -1
BITMAP
0000
180C
3006
37F6
6033
6033
6063
6063
60C3
60C3
6183
6183
3186
3006
180C
0000
ENDCHAR

STARTCHAR kor_A9EE
ENCODING 43502
SWIDTH 803 0
DWIDTH 16 0
BBX 16 16 0 -1
BITMAP
0000
180C
3006
33E6
6633
6633
6633
63E3
6633
6633
6633
6633
33E6
3006
180C
0000
ENDCHAR

STARTCHAR kor_A9EF
ENCODING 43503
SWIDTH 803 0
DWIDTH 16 0
BBX 16 16 0 -1
BITMAP
0000
180C
3006
33E6
6633
6633
6633
6673
63B3
6033
6033
6633
33E6
3006
180C
0000
ENDCHAR

STARTCHAR kor_A9F0
ENCODING 43504
SWIDTH 803 0
DWIDTH 16 0
BBX 16 16 0 -1
BITMAP
0000
180C
3006
3676
6EDB
66DB
66DB
66DB
66DB
66DB
66DB
66DB
2F76
3006
180C
0000
ENDCHAR

STARTCHAR kor_A9F1
ENCODING 43505
SWIDTH 803 0
DWIDTH 16 0
BBX 16 16 0 -1
BITMAP
0000
180C
3006
3336
6773
6333
6333
6333
6333
6333
6333
6333
3776
3006
180C
0000
ENDCHAR

STARTCHAR kor_A9F2
ENCODING 43506
SWIDTH 803 0
DWIDTH 16 0
BBX 16 16 0 -1
BITMAP
0000
180C
3006
3676
6EDB
661B
661B
6633
6663
6663
66C3
66C3
2EF6
3006
180C
0000
ENDCHAR

STARTCHAR kor_A9F3
ENCODING 43507
SWIDTH 803 0
DWIDTH 16 0
BBX 16 16 0 -1
BITMAP
0000
180C
3006
3676
6EDB
661B
661B
6673
661B
661B
661B
66DB
2F76
3006
180C
0000
ENDCHAR

STARTCHAR kor_A9F4
ENCODING 43508
SWIDTH 803 0
DWIDTH 16 0
BBX 16 16 0 -1
BITMAP
0000
180C
3006
3636
6E33
6673
6673
66B3
66B3
65B3
65FB
6633
2F36
3006
180C
0000
ENDCHAR

STARTCHAR kor_A9F5
ENCODING 43509
SWIDTH 803 0
DWIDTH 16 0
BBX 16 16 0 -1
BITMAP
0000
180C
3006
36F6
6EC3
66C3
66C3
66F3
66DB
661B
661B
66DB
2F76
3006
180C
0000
ENDCHAR

STARTCHAR kor_A9F6
ENCODING 43510
SWIDTH 803 0
DWIDTH 16 0
BBX 16 16 0 -1
BITMAP
0000
0006
000E
0006
0006
0006
0000
0000
0000
0000
0000
0000
0000
0000
0000
0000
ENDCHAR

STARTCHAR kor_A9F7
ENCODING 43511
SWIDTH 803 0
DWIDTH 16 0
BBX 16 16 0 -1
BITMAP
0000
000E
0003
0006
000C
000F
0000
0000
0000
0000
0000
0000
0000
0000
0000
0000
ENDCHAR

STARTCHAR kor_A9F8
ENCODING 43512
SWIDTH 803 0
DWIDTH 16 0
BBX 16 16 0 -1
BITMAP
0000
000E
0003
000E
0003
000E
0000
0000
0000
0000
0000
0000
0000
0000
0000
0000
ENDCHAR

STARTCHAR kor_A9F9
ENCODING 43513
SWIDTH 803 0
DWIDTH 16 0
BBX 16 16 0 -1
BITMAP
0000
0003
0007
000B
000F
0003
0000
0000
0000
0000
0000
0000
0000
0000
0000
0000
ENDCHAR

STARTCHAR kor_A9FA
ENCODING 43514
SWIDTH 803 0
DWIDTH 16 0
BBX 16 16 0 -1
BITMAP
0000
001E
000B
000B
000B
000B
0000
0000
0000
0000
0000
0000
0000
0000
0000
0000
ENDCHAR

STARTCHAR kor_A9FB
ENCODING 43515
SWIDTH 803 0
DWIDTH 16 0
BBX 16 16 0 -1
BITMAP
0000
0000
0000
0000
0000
0000
0000
0000
0000
0000
0006
000E
0006
0006
0006
0000
ENDCHAR

STARTCHAR kor_A9FC
ENCODING 43516
SWIDTH 803 0
DWIDTH 16 0
BBX 16 16 0 -1
BITMAP
0000
0000
0000
0000
0000
0000
0000
0000
0000
0000
000E
0003
0006
000C
000F
0000
ENDCHAR

STARTCHAR kor_A9FD
ENCODING 43517
SWIDTH 803 0
DWIDTH 16 0
BBX 16 16 0 -1
BITMAP
0000
0000
0000
0000
0000
0000
0000
0000
0000
0000
000E
0003
000E
0003
000E
0000
ENDCHAR

STARTCHAR kor_A9FE
ENCODING 43518
SWIDTH 803 0
DWIDTH 16 0
BBX 16 16 0 -1
BITMAP
0000
0000
0000
0000
0000
0000
0000
0000
0000
0000
0003
0007
000B
000F
0003
0000
ENDCHAR

STARTCHAR kor_AAA1
ENCODING 43681
SWIDTH 803 0
DWIDTH 16 0
BBX 16 16 0 -1
BITMAP
0000
0000
0000
0000
00E0
00C0
0FFE
0198
01F0
07B8
0D6C
19CC
1B8C
1ED8
00B0
0000
ENDCHAR

STARTCHAR kor_AAA2
ENCODING 43682
SWIDTH 803 0
DWIDTH 16 0
BBX 16 16 0 -1
BITMAP
0000
0000
00E0
00C0
0FFC
0180
0198
03F8
0DAC
0DB6
1966
18C6
1BCC
1ED8
0000
0000
ENDCHAR

STARTCHAR kor_AAA3
ENCODING 43683
SWIDTH 803 0
DWIDTH 16 0
BBX 16 16 0 -1
BITMAP
0000
0000
0000
0000
0000
0000
0C30
0C18
0C18
060C
06CC
058C
0380
0300
0000
0000
ENDCHAR

STARTCHAR kor_AAA4
ENCODING 43684
SWIDTH 803 0
DWIDTH 16 0
BBX 16 16 0 -1
BITMAP
0000
0000
3000
3060
3030
1818
1818
180C
180C
0D8C
0D9C
0B0C
0700
0300
0000
0000
ENDCHAR

STARTCHAR kor_AAA5
ENCODING 43685
SWIDTH 803 0
DWIDTH 16 0
BBX 16 16 0 -1
BITMAP
0000
0000
0000
0300
01F0
0000
0C78
07CC
000C
000C
0018
0018
0030
0060
0000
0000
ENDCHAR

STARTCHAR kor_AAA6
ENCODING 43686
SWIDTH 803 0
DWIDTH 16 0
BBX 16 16 0 -1
BITMAP
0000
0300
01F0
0000
0000
1878
0FCC
000C
000C
0018
0018
0030
0060
01C0
0700
0000
ENDCHAR

STARTCHAR kor_AAA7
ENCODING 43687
SWIDTH 803 0
DWIDTH 16 0
BBX 16 16 0 -1
BITMAP
0000
0000
0000
0300
01E0
0000
0C70
07D8
0030
0060
00C0
0380
0EC0
187E
0000
0000
ENDCHAR

STARTCHAR kor_AAA8
ENCODING 43688
SWIDTH 803 0
DWIDTH 16 0
BBX 16 16 0 -1
BITMAP
0000
0380
00F0
0000
0000
0C78
07CC
0018
0030
0060
01C0
0700
0DC0
187F
0000
0000
ENDCHAR

STARTCHAR kor_AAA9
ENCODING 43689
SWIDTH 803 0
DWIDTH 16 0
BBX 16 16 0 -1
BITMAP
0000
0000
0000
0000
0700
0618
05EC
3F06
05F0
0F18
160C
360C
0E0C
0618
0030
0000
ENDCHAR

STARTCHAR kor_AAAA
ENCODING 43690
SWIDTH 803 0
DWIDTH 16 0
BBX 16 16 0 -1
BITMAP
0000
0000
0718
060C
05EC
3F0C
0600
05F0
0F18
160C
760C
060C
0E0C
0618
0030
0000
ENDCHAR

STARTCHAR kor_AAAB
ENCODING 43691
SWIDTH 803 0
DWIDTH 16 0
BBX 16 16 0 -1
BITMAP
0000
0000
0700
060C
35E6
1F36
0636
0630
0630
0C30
0C30
0C60
1960
18E0
0060
0000
ENDCHAR

STARTCHAR kor_AAAC
ENCODING 43692
SWIDTH 803 0
DWIDTH 16 0
BBX 16 16 0 -1
BITMAP
0000
0016
0E6B
0C30
6BB0
3EB0
0CC0
0CC0
0CC0
18C0
1980
1980
3580
3300
0300
0000
ENDCHAR

STARTCHAR kor_AAAD
ENCODING 43693
SWIDTH 803 0
DWIDTH 16 0
BBX 16 16 0 -1
BITMAP
0000
0380
0180
0170
03C0
1EB8
01E0
0F60
0060
0060
07B0
0C70
0C30
0C00
07C0
0000
ENDCHAR

STARTCHAR kor_AAAE
ENCODING 43694
SWIDTH 803 0
DWIDTH 16 0
BBX 16 16 0 -1
BITMAP
0000
0706
031B
02EB
078C
3D70
03C0
1EC0
00C0
00C0
0F60
18E0
1860
1800
0F80
0000
ENDCHAR

STARTCHAR kor_AAAF
ENCODING 43695
SWIDTH 803 0
DWIDTH 16 0
BBX 16 16 0 -1
BITMAP
0000
0000
0030
0038
0070
01C0
0700
0C00
0E00
0300
01C0
0070
0018
000C
0000
0000
ENDCHAR

STARTCHAR kor_AAB0
ENCODING 43696
SWIDTH 803 0
DWIDTH 16 0
BBX 16 16 0 -1
BITMAP
0000
0000
0066
0073
00EB
0386
0E06
1800
1C00
0600
0380
00E0
0030
0018
0000
0000
ENDCHAR

STARTCHAR kor_AAB1
ENCODING 43697
SWIDTH 803 0
DWIDTH 16 0
BBX 16 16 0 -1
BITMAP
0000
0000
1C38
0C18
0C17
0CFC
0C18
0C18
1C18
1818
1818
1618
0C30
0C30
0C60
0000
ENDCHAR

STARTCHAR kor_AAB2
ENCODING 43698
SWIDTH 803 0
DWIDTH 16 0
BBX 16 16 0 -1
BITMAP
0003
0001
1C76
0C33
0C2E
0DF8
0C30
0C30
1C30
1830
1830
1630
0C60
0C60
0CC0
0000
ENDCHAR

STARTCHAR kor_AAB3
ENCODING 43699
SWIDTH 803 0
DWIDTH 16 0
BBX 16 16 0 -1
BITMAP
0000
0000
0000
0000
0F00
01F8
0030
0060
0000
0C00
1800
1800
0FFE
0000
0000
0000
ENDCHAR

STARTCHAR kor_AAB4
ENCODING 43700
SWIDTH 803 0
DWIDTH 16 0
BBX 16 16 0 -1
BITMAP
0000
0006
0003
000B
0F06
01F6
0030
0060
0000
0C00
1800
1800
0FFE
0000
0000
0000
ENDCHAR

STARTCHAR kor_AAB5
ENCODING 43701
SWIDTH 803 0
DWIDTH 16 0
BBX 16 16 0 -1
BITMAP
0000
0000
0180
01B8
03E0
3EC0
0060
0060
0030
07B0
0C78
0C18
0600
03E0
0000
0000
ENDCHAR

STARTCHAR kor_AAB6
ENCODING 43702
SWIDTH 803 0
DWIDTH 16 0
BBX 16 16 0 -1
BITMAP
0000
0003
030D
0375
03C6
1D80
00C0
00C0
0060
0F60
18F0
1830
0C00
07C0
0000
0000
ENDCHAR

STARTCHAR kor_AAB7
ENCODING 43703
SWIDTH 803 0
DWIDTH 16 0
BBX 16 16 0 -1
BITMAP
0000
0000
0600
0600
0600
0600
0600
0600
0600
0600
060C
0618
0670
03C0
0000
0000
ENDCHAR

STARTCHAR kor_AAB8
ENCODING 43704
SWIDTH 803 0
DWIDTH 16 0
BBX 16 16 0 -1
BITMAP
0000
0000
0600
0618
06CC
066C
0660
0600
0600
0600
060C
0618
0670
03C0
0000
0000
ENDCHAR

STARTCHAR kor_AAB9
ENCODING 43705
SWIDTH 803 0
DWIDTH 16 0
BBX 16 16 0 -1
BITMAP
0000
0380
0180
01FC
3F80
0180
0180
0780
0CC0
0DC0
06C0
00C0
0180
0180
0180
0000
ENDCHAR

STARTCHAR kor_AABA
ENCODING 43706
SWIDTH 803 0
DWIDTH 16 0
BBX 16 16 0 -1
BITMAP
0006
039B
018B
01FC
3F80
0180
0180
0780
0CC0
0DC0
06C0
00C0
0180
0180
0180
0000
ENDCHAR

STARTCHAR kor_AABB
ENCODING 43707
SWIDTH 803 0
DWIDTH 16 0
BBX 16 16 0 -1
BITMAP
0000
0000
0060
0C30
0630
063E
07F0
3E30
06B0
0660
0660
0600
0600
03FC
0000
0000
ENDCHAR

STARTCHAR kor_AABC
ENCODING 43708
SWIDTH 803 0
DWIDTH 16 0
BBX 16 16 0 -1
BITMAP
0000
0006
019B
18CB
0CCC
0CF0
0FC0
7CC0
0AC0
0D80
0D80
0C00
0C00
07F0
0000
0000
ENDCHAR

STARTCHAR kor_AABD
ENCODING 43709
SWIDTH 803 0
DWIDTH 16 0
BBX 16 16 0 -1
BITMAP
0000
0000
01F0
0730
0060
00C0
01F0
0EDE
3980
0180
0300
0300
0300
0180
00F0
0000
ENDCHAR

STARTCHAR kor_AABE
ENCODING 43710
SWIDTH 803 0
DWIDTH 16 0
BBX 16 16 0 -1
BITMAP
0000
0003
01F1
072D
0066
00C6
01F0
0EDE
3980
0180
0300
0300
0300
0180
00F0
0000
ENDCHAR

STARTCHAR kor_AABF
ENCODING 43711
SWIDTH 803 0
DWIDTH 16 0
BBX 16 16 0 -1
BITMAP
0000
0000
0E00
0600
07C0
3E00
0C78
0C0E
0C18
1800
1980
0300
0300
01FF
0000
0000
ENDCHAR

STARTCHAR kor_AAC0
ENCODING 43712
SWIDTH 803 0
DWIDTH 16 0
BBX 16 16 0 -1
BITMAP
0000
0006
0E1B
060B
07CC
3E00
0C78
0C0E
0C18
1800
1980
0300
0300
01FF
0000
0000
ENDCHAR

STARTCHAR kor_AAC1
ENCODING 43713
SWIDTH 803 0
DWIDTH 16 0
BBX 16 16 0 -1
BITMAP
0000
0180
0180
01F0
1F80
0300
0300
06F0
0598
070C
0E0C
0018
0070
01C0
0000
0000
ENDCHAR

STARTCHAR kor_AAC2
ENCODING 43714
SWIDTH 803 0
DWIDTH 16 0
BBX 16 16 0 -1
BITMAP
0000
0186
019B
01EB
1F8C
0300
0300
06F0
0598
070C
0E0C
0018
0070
01C0
0000
0000
ENDCHAR

STARTCHAR kor_AAC3
ENCODING 43715
SWIDTH 803 0
DWIDTH 16 0
BBX 16 16 0 -1
BITMAP
0000
0000
0000
0000
0000
0000
0000
0C78
07CC
000C
000C
000C
0018
0030
00E0
0000
ENDCHAR

STARTCHAR kor_AAC4
ENCODING 43716
SWIDTH 803 0
DWIDTH 16 0
BBX 16 16 0 -1
BITMAP
0000
0000
0000
01F0
3318
1E0C
000C
000C
000C
0018
0018
0030
0060
00C0
0000
0000
ENDCHAR

STARTCHAR kor_AAC5
ENCODING 43717
SWIDTH 803 0
DWIDTH 16 0
BBX 16 16 0 -1
BITMAP
0000
0006
001B
01EB
332C
1E18
0018
0018
0018
0030
0030
0060
00C0
0180
0000
0000
ENDCHAR

STARTCHAR kor_AAC6
ENCODING 43718
SWIDTH 803 0
DWIDTH 16 0
BBX 16 16 0 -1
BITMAP
0000
0000
001C
18F8
0FB0
0060
00C0
0180
0180
0300
0300
0300
0180
00F8
0000
0000
ENDCHAR

STARTCHAR kor_AAC7
ENCODING 43719
SWIDTH 803 0
DWIDTH 16 0
BBX 16 16 0 -1
BITMAP
0000
0000
001C
18F8
0FB6
0063
00DB
018C
018C
0300
0300
0300
0180
00F8
0000
0000
ENDCHAR

STARTCHAR kor_AAC8
ENCODING 43720
SWIDTH 803 0
DWIDTH 16 0
BBX 16 16 0 -1
BITMAP
0000
0000
0600
0600
0600
0638
06E0
0780
0600
0C00
1800
1800
1C00
07F8
0000
0000
ENDCHAR

STARTCHAR kor_AAC9
ENCODING 43721
SWIDTH 803 0
DWIDTH 16 0
BBX 16 16 0 -1
BITMAP
0000
0000
0606
061B
060B
060C
06E0
0780
0600
0C00
1800
1800
1C00
07F8
0000
0000
ENDCHAR

STARTCHAR kor_AACA
ENCODING 43722
SWIDTH 803 0
DWIDTH 16 0
BBX 16 16 0 -1
BITMAP
0000
0000
0C00
0C00
3F80
0C30
1818
182C
3030
3030
03B0
0E70
0C58
07CC
0000
0000
ENDCHAR

STARTCHAR kor_AACB
ENCODING 43723
SWIDTH 803 0
DWIDTH 16 0
BBX 16 16 0 -1
BITMAP
0000
0000
0C00
0C0C
0DFE
0C0C
1818
1800
1800
1800
18C0
1580
0D80
0CFF
0C00
0000
ENDCHAR

STARTCHAR kor_AACC
ENCODING 43724
SWIDTH 803 0
DWIDTH 16 0
BBX 16 16 0 -1
BITMAP
0000
0060
0C60
0BF8
0E6C
1C66
2CC6
2CC6
6586
6706
660C
3EEC
0196
00F6
0000
0000
ENDCHAR

STARTCHAR kor_AACD
ENCODING 43725
SWIDTH 803 0
DWIDTH 16 0
BBX 16 16 0 -1
BITMAP
0000
0700
0600
0600
3F80
06F8
0D8C
0F06
0E06
1606
1606
36EC
0D9E
06F6
0000
0000
ENDCHAR

STARTCHAR kor_AACE
ENCODING 43726
SWIDTH 803 0
DWIDTH 16 0
BBX 16 16 0 -1
BITMAP
0000
0000
01F0
0718
0C2C
1866
1866
18C6
30C6
3186
330C
360C
1C18
0030
0000
0000
ENDCHAR

STARTCHAR kor_AACF
ENCODING 43727
SWIDTH 803 0
DWIDTH 16 0
BBX 16 16 0 -1
BITMAP
0000
0000
1838
1818
1B18
19FE
1818
3018
3018
3018
31F8
2B1C
1B16
19F6
1800
0000
ENDCHAR

STARTCHAR kor_AAD0
ENCODING 43728
SWIDTH 803 0
DWIDTH 16 0
BBX 16 16 0 -1
BITMAP
0000
0003
306D
3035
3636
33FC
3030
6030
6030
6030
63F0
5638
362C
33EC
3000
0000
ENDCHAR

STARTCHAR kor_AAD1
ENCODING 43729
SWIDTH 803 0
DWIDTH 16 0
BBX 16 16 0 -1
BITMAP
0000
0007
306D
302D
3637
33FC
3030
6030
6030
6030
63F0
5638
362C
33EC
3000
0000
ENDCHAR

STARTCHAR kor_AAD2
ENCODING 43730
SWIDTH 803 0
DWIDTH 16 0
BBX 16 16 0 -1
BITMAP
0000
0000
0398
1D98
0318
061C
0C1C
0C16
1830
1830
1830
1860
18C0
0F80
0000
0000
ENDCHAR

STARTCHAR kor_AAD3
ENCODING 43731
SWIDTH 803 0
DWIDTH 16 0
BBX 16 16 0 -1
BITMAP
0003
000D
0735
3B36
0630
0C38
1838
182C
3060
3060
3060
30C0
3180
1F00
0000
0000
ENDCHAR

STARTCHAR kor_AAD4
ENCODING 43732
SWIDTH 803 0
DWIDTH 16 0
BBX 16 16 0 -1
BITMAP
0000
0007
072D
3B2D
0637
0C38
1838
182C
3060
3060
3060
30C0
3180
1F00
0000
0000
ENDCHAR

STARTCHAR kor_AAD5
ENCODING 43733
SWIDTH 803 0
DWIDTH 16 0
BBX 16 16 0 -1
BITMAP
0000
0000
0300
01C0
0180
0300
0180
00C0
00FE
0763
5C60
3060
0360
0160
00E0
0000
ENDCHAR

STARTCHAR kor_AAD6
ENCODING 43734
SWIDTH 803 0
DWIDTH 16 0
BBX 16 16 0 -1
BITMAP
0000
0006
0303
01DB
018C
030C
0180
00C0
00FE
0763
5C60
3060
0360
0160
00E0
0000
ENDCHAR

STARTCHAR kor_AAD7
ENCODING 43735
SWIDTH 803 0
DWIDTH 16 0
BBX 16 16 0 -1
BITMAP
0000
0000
030E
01DB
019B
030E
0180
00C0
00FE
0763
5C60
3060
0360
0160
00E0
0000
ENDCHAR

STARTCHAR kor_AAD8
ENCODING 43736
SWIDTH 803 0
DWIDTH 16 0
BBX 16 16 0 -1
BITMAP
0000
0000
0300
0380
0580
0580
0CC0
0CC0
3860
1860
0030
0018
000C
0006
0000
0000
ENDCHAR

STARTCHAR kor_AAD9
ENCODING 43737
SWIDTH 803 0
DWIDTH 16 0
BBX 16 16 0 -1
BITMAP
0000
000C
0336
0396
0598
0580
0CC0
0CC0
3860
1860
0030
0018
000C
0006
0000
0000
ENDCHAR

STARTCHAR kor_AADA
ENCODING 43738
SWIDTH 803 0
DWIDTH 16 0
BBX 16 16 0 -1
BITMAP
0000
0000
031C
03B6
05B6
059C
0CC0
0CC0
3860
1860
0030
0018
000C
0006
0000
0000
ENDCHAR

STARTCHAR kor_AADB
ENCODING 43739
SWIDTH 803 0
DWIDTH 16 0
BBX 16 16 0 -1
BITMAP
0000
0000
18FE
1818
1818
19FF
1818
1818
1818
3018
30F8
2B9C
1B16
19F6
1800
0000
ENDCHAR

STARTCHAR kor_AADC
ENCODING 43740
SWIDTH 803 0
DWIDTH 16 0
BBX 16 16 0 -1
BITMAP
0003
000D
31F5
3036
3030
33FE
3030
3030
3030
6030
61F0
5738
362C
33EC
3000
0000
ENDCHAR

STARTCHAR kor_AADD
ENCODING 43741
SWIDTH 803 0
DWIDTH 16 0
BBX 16 16 0 -1
BITMAP
0000
0007
31FD
302D
3037
33FE
3030
3030
3030
6030
61F0
5738
362C
33EC
3000
0000
ENDCHAR

STARTCHAR kor_AADE
ENCODING 43742
SWIDTH 803 0
DWIDTH 16 0
BBX 16 16 0 -1
BITMAP
0000
00E0
0060
007C
07E0
0060
007C
0FE0
0060
0060
07E0
1C78
186C
0FC6
0000
0000
ENDCHAR

STARTCHAR kor_AADF
ENCODING 43743
SWIDTH 803 0
DWIDTH 16 0
BBX 16 16 0 -1
BITMAP
0000
0000
0070
07B0
0060
00C0
00C0
018C
018C
07F8
0B18
162C
1666
1C06
0000
0000
ENDCHAR

STARTCHAR kor_AAE0
ENCODING 43744
SWIDTH 803 0
DWIDTH 16 0
BBX 16 16 0 -1
BITMAP
0000
0000
0E00
0600
07C0
3E0C
0616
0E16
1618
1618
0E0C
060C
060C
03F8
0000
0000
ENDCHAR

STARTCHAR kor_AAE1
ENCODING 43745
SWIDTH 803 0
DWIDTH 16 0
BBX 16 16 0 -1
BITMAP
0000
0030
0030
0C30
0BF0
063C
0E6C
1666
36C6
32C6
3386
378C
3D98
0030
0000
0000
ENDCHAR

STARTCHAR kor_AAE2
ENCODING 43746
SWIDTH 803 0
DWIDTH 16 0
BBX 16 16 0 -1
BITMAP
0000
0700
0300
0300
1F00
0380
0F00
1B00
3F00
07C0
0618
060C
060C
0618
03F0
0000
ENDCHAR

STARTCHAR kor_AAE3
ENCODING 43747
SWIDTH 803 0
DWIDTH 16 0
BBX 16 16 0 -1
BITMAP
0000
0000
0000
0000
0EC0
0DC0
06FC
3786
1B06
018C
00C0
0060
0060
0030
0030
0000
ENDCHAR

STARTCHAR kor_AAE4
ENCODING 43748
SWIDTH 803 0
DWIDTH 16 0
BBX 16 16 0 -1
BITMAP
0000
0000
0760
05C0
063E
02E3
3383
1DB6
00DC
0060
0030
0030
0018
0018
0018
0000
ENDCHAR

STARTCHAR kor_AAE5
ENCODING 43749
SWIDTH 803 0
DWIDTH 16 0
BBX 16 16 0 -1
BITMAP
0000
0000
0000
0000
0000
0380
06F8
156C
1766
1666
0E66
0ACC
01F8
00C0
0180
0000
ENDCHAR

STARTCHAR kor_AAE6
ENCODING 43750
SWIDTH 803 0
DWIDTH 16 0
BBX 16 16 0 -1
BITMAP
0000
0000
19C0
1AC0
1678
15EC
1766
3666
2E66
2E66
2B66
3BCC
18F8
18C0
0180
0000
ENDCHAR

STARTCHAR kor_AAE7
ENCODING 43751
SWIDTH 803 0
DWIDTH 16 0
BBX 16 16 0 -1
BITMAP
0000
0000
0000
0000
00E0
0060
0060
007C
0060
0060
07F0
0C5C
0C66
07C0
0000
0000
ENDCHAR

STARTCHAR kor_AAE8
ENCODING 43752
SWIDTH 803 0
DWIDTH 16 0
BBX 16 16 0 -1
BITMAP
0000
00E0
0060
0060
006C
007E
0060
0060
0060
0060
0060
0FF0
185C
18C6
0F80
0000
ENDCHAR

STARTCHAR kor_AAE9
ENCODING 43753
SWIDTH 803 0
DWIDTH 16 0
BBX 16 16 0 -1
BITMAP
0000
0300
0180
03C0
0600
0600
0600
0C00
0BF8
0E0C
0C06
0006
000C
00F8
0000
0000
ENDCHAR

STARTCHAR kor_AAEA
ENCODING 43754
SWIDTH 803 0
DWIDTH 16 0
BBX 16 16 0 -1
BITMAP
0000
0000
0E00
06F0
0598
058C
070C
060C
060C
000C
0018
0018
0018
0030
0060
0000
ENDCHAR

STARTCHAR kor_AAEB
ENCODING 43755
SWIDTH 803 0
DWIDTH 16 0
BBX 16 16 0 -1
BITMAP
0000
0000
0C70
07E0
00C0
0180
02F8
078E
0E06
1C06
000E
01EC
0338
01F0
0000
0000
ENDCHAR

STARTCHAR kor_AAEC
ENCODING 43756
SWIDTH 803 0
DWIDTH 16 0
BBX 16 16 0 -1
BITMAP
0000
0000
1C00
0C00
0C00
3F00
0DF0
0B18
1E18
1C18
1C30
2C30
2C36
6C36
0C1C
0000
ENDCHAR

STARTCHAR kor_AAED
ENCODING 43757
SWIDTH 803 0
DWIDTH 16 0
BBX 16 16 0 -1
BITMAP
0000
0000
0C70
07E0
00C0
0180
02F8
078E
0E06
1C06
0006
000C
000C
0038
00E0
0000
ENDCHAR

STARTCHAR kor_AAEE
ENCODING 43758
SWIDTH 803 0
DWIDTH 16 0
BBX 16 16 0 -1
BITMAP
0000
0000
0000
0000
0600
0600
0780
3E00
06F8
0F8C
0E06
1606
3606
060C
0038
0000
ENDCHAR

STARTCHAR kor_AAEF
ENCODING 43759
SWIDTH 803 0
DWIDTH 16 0
BBX 16 16 0 -1
BITMAP
0000
0000
0600
0600
0780
3E00
05F0
071C
0E0E
0E06
1606
1606
360C
0618
0030
0000
ENDCHAR

STARTCHAR kor_AAF0
ENCODING 43760
SWIDTH 803 0
DWIDTH 16 0
BBX 16 16 0 -1
BITMAP
0000
0000
18E0
0FC0
00C0
0180
01F8
070C
1B06
1606
3606
2C06
2CFC
1998
00F0
0000
ENDCHAR

STARTCHAR kor_AAF1
ENCODING 43761
SWIDTH 803 0
DWIDTH 16 0
BBX 16 16 0 -1
BITMAP
0000
0000
18F0
0FC0
0180
03F8
060C
1DEC
0318
01F0
0000
063C
0C06
1763
31C7
0000
ENDCHAR

STARTCHAR kor_AAF2
ENCODING 43762
SWIDTH 803 0
DWIDTH 16 0
BBX 16 16 0 -1
BITMAP
0000
0300
0300
0300
3FE0
0618
0B1C
1970
31C0
0380
0580
0C00
0C00
0C00
07FC
0000
ENDCHAR

STARTCHAR kor_AAF3
ENCODING 43763
SWIDTH 803 0
DWIDTH 16 0
BBX 16 16 0 -1
BITMAP
0000
0180
0180
0180
0300
0300
0300
0300
0600
05E0
0730
0E33
0C36
0C1C
0000
0000
ENDCHAR

STARTCHAR kor_ABA1
ENCODING 43937
SWIDTH 803 0
DWIDTH 16 0
BBX 16 16 0 -1
BITMAP
0000
0000
0000
0000
0000
1838
0FF8
002C
0160
00C0
00C0
00C0
0180
0180
0300
0000
ENDCHAR

STARTCHAR kor_ABA2
ENCODING 43938
SWIDTH 803 0
DWIDTH 16 0
BBX 16 16 0 -1
BITMAP
0000
0030
1838
0FFC
0018
0030
0160
00C0
00C0
00C0
00C0
0180
0180
0180
0300
0000
ENDCHAR

STARTCHAR kor_ABA3
ENCODING 43939
SWIDTH 803 0
DWIDTH 16 0
BBX 16 16 0 -1
BITMAP
0000
0000
0000
0000
0000
0070
0060
01C0
0700
1D80
0180
0180
0180
0180
0180
0000
ENDCHAR

STARTCHAR kor_ABA4
ENCODING 43940
SWIDTH 803 0
DWIDTH 16 0
BBX 16 16 0 -1
BITMAP
0000
0030
0070
0060
00C0
0180
0780
1D80
0180
0180
0180
0180
0180
0180
0180
0000
ENDCHAR

STARTCHAR kor_ABA5
ENCODING 43941
SWIDTH 803 0
DWIDTH 16 0
BBX 16 16 0 -1
BITMAP
0000
0000
0000
0000
01C0
00D8
0CFC
0FCC
0C0C
000C
0018
0018
0030
0030
0060
0000
ENDCHAR

STARTCHAR kor_ABA6
ENCODING 43942
SWIDTH 803 0
DWIDTH 16 0
BBX 16 16 0 -1
BITMAP
0000
01C0
00C0
00D8
18FC
1FCC
180C
1818
0018
0018
0030
0030
0060
0060
00C0
0000
ENDCHAR

STARTCHAR kor_ABA7
ENCODING 43943
SWIDTH 803 0
DWIDTH 16 0
BBX 16 16 0 -1
BITMAP
0000
0000
0000
0000
0000
0000
0000
0FFC
00C0
00C0
00C0
00C0
00C0
1FFE
0000
0000
ENDCHAR

STARTCHAR kor_ABA8
ENCODING 43944
SWIDTH 803 0
DWIDTH 16 0
BBX 16 16 0 -1
BITMAP
0000
0000
0000
0000
1FFE
00C0
00C0
00C0
00C0
00C0
00C0
00C0
3FFF
0000
0000
0000
ENDCHAR

STARTCHAR kor_ABA9
ENCODING 43945
SWIDTH 803 0
DWIDTH 16 0
BBX 16 16 0 -1
BITMAP
0000
0000
0000
0000
0060
0060
1860
0FFC
00E0
0160
0360
0660
1D60
00E0
0060
0000
ENDCHAR

STARTCHAR kor_ABAA
ENCODING 43946
SWIDTH 803 0
DWIDTH 16 0
BBX 16 16 0 -1
BITMAP
0000
0000
00E0
0060
1860
0FFE
00E0
00E0
0160
0360
0660
1C60
0160
00E0
0060
0000
ENDCHAR

STARTCHAR kor_ABAB
ENCODING 43947
SWIDTH 803 0
DWIDTH 16 0
BBX 16 16 0 -1
BITMAP
0000
0000
0180
0198
19FC
0F8C
018C
030C
030C
030C
0618
0618
0CD8
0070
0030
0000
ENDCHAR

STARTCHAR kor_ABAC
ENCODING 43948
SWIDTH 803 0
DWIDTH 16 0
BBX 16 16 0 -1
BITMAP
0006
0003
030B
0336
33F6
1F18
0318
0618
0618
0618
0C30
0C30
19B0
00E0
0060
0000
ENDCHAR

STARTCHAR kor_ABAD
ENCODING 43949
SWIDTH 803 0
DWIDTH 16 0
BBX 16 16 0 -1
BITMAP
0000
0300
0300
0300
01B8
01E0
3780
1D80
00DC
00F0
37C0
1CC0
0060
0060
0060
0000
ENDCHAR

STARTCHAR kor_ABAE
ENCODING 43950
SWIDTH 803 0
DWIDTH 16 0
BBX 16 16 0 -1
BITMAP
0000
0303
030D
0305
01B6
01E0
3780
1D80
00DC
00F0
37C0
1CC0
0060
0060
0060
0000
ENDCHAR

STARTCHAR kor_ABAF
ENCODING 43951
SWIDTH 803 0
DWIDTH 16 0
BBX 16 16 0 -1
BITMAP
0000
0000
0318
03FC
030E
060C
0618
0C18
0030
0030
0060
00C0
0180
0300
0600
0000
ENDCHAR

STARTCHAR kor_ABB0
ENCODING 43952
SWIDTH 803 0
DWIDTH 16 0
BBX 16 16 0 -1
BITMAP
0006
001B
0CCB
0FEC
0C70
1860
18C0
30C0
0180
0180
0300
0600
0600
0C00
1800
0000
ENDCHAR

STARTCHAR kor_ABB1
ENCODING 43953
SWIDTH 803 0
DWIDTH 16 0
BBX 16 16 0 -1
BITMAP
0000
0000
0600
0600
0600
0FFC
1860
3060
0060
00C0
00C0
0180
0300
0600
0C00
0000
ENDCHAR

STARTCHAR kor_ABB2
ENCODING 43954
SWIDTH 803 0
DWIDTH 16 0
BBX 16 16 0 -1
BITMAP
0000
000C
0636
0616
0600
0FFC
1860
3060
0060
00C0
00C0
0180
0300
0600
0C00
0000
ENDCHAR

STARTCHAR kor_ABB3
ENCODING 43955
SWIDTH 803 0
DWIDTH 16 0
BBX 16 16 0 -1
BITMAP
0000
0000
0000
0000
18F8
0F8C
000C
000C
000C
0018
0018
3018
1FFE
0C00
0000
0000
ENDCHAR

STARTCHAR kor_ABB4
ENCODING 43956
SWIDTH 803 0
DWIDTH 16 0
BBX 16 16 0 -1
BITMAP
0000
0003
000D
0005
31F6
1F18
0018
0018
0018
0030
0030
6030
3FFC
1800
0000
0000
ENDCHAR

STARTCHAR kor_ABB5
ENCODING 43957
SWIDTH 803 0
DWIDTH 16 0
BBX 16 16 0 -1
BITMAP
0000
0070
0030
0E30
0630
367E
1FB0
0630
0630
0630
0630
0630
0060
0060
00C0
0000
ENDCHAR

STARTCHAR kor_ABB6
ENCODING 43958
SWIDTH 803 0
DWIDTH 16 0
BBX 16 16 0 -1
BITMAP
0003
006D
0035
0E36
0630
367E
1FB0
0630
0630
0630
0630
0630
0060
0060
00C0
0000
ENDCHAR

STARTCHAR kor_ABB7
ENCODING 43959
SWIDTH 803 0
DWIDTH 16 0
BBX 16 16 0 -1
BITMAP
0000
0000
0000
1800
0C03
0606
0706
180C
0C18
0E30
0030
1860
0CC0
0780
0000
0000
ENDCHAR

STARTCHAR kor_ABB8
ENCODING 43960
SWIDTH 803 0
DWIDTH 16 0
BBX 16 16 0 -1
BITMAP
000C
0006
0036
1818
0C1B
0606
0706
180C
0C18
0E30
0030
1860
0CC0
0780
0000
0000
ENDCHAR

STARTCHAR kor_ABB9
ENCODING 43961
SWIDTH 803 0
DWIDTH 16 0
BBX 16 16 0 -1
BITMAP
0000
0000
0000
18F8
0FB0
0030
0060
0060
00C0
00C0
0170
0318
060C
1C06
0000
0000
ENDCHAR

STARTCHAR kor_ABBA
ENCODING 43962
SWIDTH 803 0
DWIDTH 16 0
BBX 16 16 0 -1
BITMAP
0000
0003
000D
18F5
0FB6
0030
0060
0060
00C0
00C0
0170
0318
060C
1C06
0000
0000
ENDCHAR

STARTCHAR kor_ABBB
ENCODING 43963
SWIDTH 803 0
DWIDTH 16 0
BBX 16 16 0 -1
BITMAP
0000
0000
0C00
0600
0600
060C
07FE
3E18
0630
0600
0600
0600
0600
03FE
0000
0000
ENDCHAR

STARTCHAR kor_ABBC
ENCODING 43964
SWIDTH 803 0
DWIDTH 16 0
BBX 16 16 0 -1
BITMAP
0000
0006
181B
0C0B
0C0C
0C18
0FFC
7C30
0C60
0C00
0C00
0C00
0C00
07FC
0000
0000
ENDCHAR

STARTCHAR kor_ABBD
ENCODING 43965
SWIDTH 803 0
DWIDTH 16 0
BBX 16 16 0 -1
BITMAP
0000
0000
0000
0018
3038
1818
0C30
0C30
0660
0060
00C0
0180
0300
0600
0C00
0000
ENDCHAR

STARTCHAR kor_ABBE
ENCODING 43966
SWIDTH 803 0
DWIDTH 16 0
BBX 16 16 0 -1
BITMAP
0000
0000
0003
002D
3075
1836
0C30
0C60
0660
00C0
00C0
0180
0300
0600
0C00
0000
ENDCHAR

STARTCHAR kor_ABBF
ENCODING 43967
SWIDTH 803 0
DWIDTH 16 0
BBX 16 16 0 -1
BITMAP
0000
0000
0630
07F8
061C
0C18
0B30
19B0
00E0
0060
00C0
0180
0300
0600
0C00
0000
ENDCHAR

STARTCHAR kor_ABC0
ENCODING 43968
SWIDTH 803 0
DWIDTH 16 0
BBX 16 16 0 -1
BITMAP
0006
001B
0CCB
0FEC
0C70
1860
16C0
32C0
0180
0180
0300
0600
0C00
1800
3000
0000
ENDCHAR

STARTCHAR kor_ABC1
ENCODING 43969
SWIDTH 803 0
DWIDTH 16 0
BBX 16 16 0 -1
BITMAP
0000
0000
0070
03C0
1D80
0180
6180
3FFE
0180
0180
0180
0180
0300
0300
0600
0000
ENDCHAR

STARTCHAR kor_ABC2
ENCODING 43970
SWIDTH 803 0
DWIDTH 16 0
BBX 16 16 0 -1
BITMAP
0000
0006
0073
03CB
1D86
0186
6180
3FFE
0180
0180
0180
0180
0300
0300
0600
0000
ENDCHAR

STARTCHAR kor_ABC3
ENCODING 43971
SWIDTH 803 0
DWIDTH 16 0
BBX 16 16 0 -1
BITMAP
0000
0000
0000
0000
0000
0000
0318
0B1C
0D98
0598
0630
0030
0060
00C0
0180
0000
ENDCHAR

STARTCHAR kor_ABC4
ENCODING 43972
SWIDTH 803 0
DWIDTH 16 0
BBX 16 16 0 -1
BITMAP
0000
0000
0030
001C
0618
1618
1B18
0B30
0B30
0C60
0060
00C0
0180
0300
0600
0000
ENDCHAR

STARTCHAR kor_ABC5
ENCODING 43973
SWIDTH 803 0
DWIDTH 16 0
BBX 16 16 0 -1
BITMAP
0003
000D
0065
0036
0C30
2C30
3630
1660
1660
18C0
00C0
0180
0300
0600
0C00
0000
ENDCHAR

STARTCHAR kor_ABC6
ENCODING 43974
SWIDTH 803 0
DWIDTH 16 0
BBX 16 16 0 -1
BITMAP
0000
0000
1800
0FF8
0000
0000
3000
1FFE
00C0
00C0
00C0
0180
0180
0300
0600
0000
ENDCHAR

STARTCHAR kor_ABC7
ENCODING 43975
SWIDTH 803 0
DWIDTH 16 0
BBX 16 16 0 -1
BITMAP
0000
0003
180D
0FF5
0006
0000
3000
1FFE
00C0
00C0
00C0
0180
0180
0300
0600
0000
ENDCHAR

STARTCHAR kor_ABC8
ENCODING 43976
SWIDTH 803 0
DWIDTH 16 0
BBX 16 16 0 -1
BITMAP
0000
0000
0600
0300
0300
0300
0300
0300
03C0
0370
031C
0306
0300
0300
0300
0000
ENDCHAR

STARTCHAR kor_ABC9
ENCODING 43977
SWIDTH 803 0
DWIDTH 16 0
BBX 16 16 0 -1
BITMAP
0000
0000
0600
0306
0303
031B
030C
030C
03C0
0370
031C
0306
0300
0300
0300
0000
ENDCHAR

STARTCHAR kor_ABCA
ENCODING 43978
SWIDTH 803 0
DWIDTH 16 0
BBX 16 16 0 -1
BITMAP
0000
0000
01C0
00C0
00C0
00CC
30FE
1FC0
00C0
00C0
00C0
00C0
0180
0180
0300
0000
ENDCHAR

STARTCHAR kor_ABCB
ENCODING 43979
SWIDTH 803 0
DWIDTH 16 0
BBX 16 16 0 -1
BITMAP
0000
0000
0000
0000
0C00
07FC
0000
0000
0000
0000
0000
3000
1FFF
0000
0000
0000
ENDCHAR

STARTCHAR kor_ABCC
ENCODING 43980
SWIDTH 803 0
DWIDTH 16 0
BBX 16 16 0 -1
BITMAP
0000
0000
0618
03FE
000C
0018
0018
03B0
00E0
00B0
0198
030C
060C
1C00
0000
0000
ENDCHAR

STARTCHAR kor_ABCD
ENCODING 43981
SWIDTH 803 0
DWIDTH 16 0
BBX 16 16 0 -1
BITMAP
0000
0700
01E0
0000
1830
0FF8
0030
0060
01C0
0370
0D9C
3986
0180
0180
0180
0000
ENDCHAR

STARTCHAR kor_ABCE
ENCODING 43982
SWIDTH 803 0
DWIDTH 16 0
BBX 16 16 0 -1
BITMAP
0000
0000
0030
0038
0030
0030
0060
0060
00C0
00C0
0180
0180
0300
0600
1C00
0000
ENDCHAR

STARTCHAR kor_ABCF
ENCODING 43983
SWIDTH 803 0
DWIDTH 16 0
BBX 16 16 0 -1
BITMAP
0000
0000
0000
0C00
0630
0618
0618
060C
0C0C
0C0C
180C
300C
0018
0018
0000
0000
ENDCHAR

STARTCHAR kor_ABD0
ENCODING 43984
SWIDTH 803 0
DWIDTH 16 0
BBX 16 16 0 -1
BITMAP
0000
0006
001B
0C0B
066C
0630
0630
0618
0C18
0C18
1818
3018
0030
0030
0000
0000
ENDCHAR

STARTCHAR kor_ABD1
ENCODING 43985
SWIDTH 803 0
DWIDTH 16 0
BBX 16 16 0 -1
BITMAP
0000
0000
000E
0C1B
065B
062E
0630
0618
0C18
0C18
1818
3018
0030
0030
0000
0000
ENDCHAR

STARTCHAR kor_ABD2
ENCODING 43986
SWIDTH 803 0
DWIDTH 16 0
BBX 16 16 0 -1
BITMAP
0000
0000
0C00
0600
0600
0600
0678
07C0
0600
0600
0600
0600
060E
03F8
0000
0000
ENDCHAR

STARTCHAR kor_ABD3
ENCODING 43987
SWIDTH 803 0
DWIDTH 16 0
BBX 16 16 0 -1
BITMAP
0000
0006
0C1B
060B
060C
0600
06F0
0F80
0600
0600
0600
0600
061C
03F0
0000
0000
ENDCHAR

STARTCHAR kor_ABD4
ENCODING 43988
SWIDTH 803 0
DWIDTH 16 0
BBX 16 16 0 -1
BITMAP
0000
0000
0C0E
061B
061B
060E
06F0
0F80
0600
0600
0600
0600
061C
03F0
0000
0000
ENDCHAR

STARTCHAR kor_ABD5
ENCODING 43989
SWIDTH 803 0
DWIDTH 16 0
BBX 16 16 0 -1
BITMAP
0000
0000
0000
18F8
0F8C
000C
000C
000C
0018
0018
0030
0030
0060
00C0
0180
0000
ENDCHAR

STARTCHAR kor_ABD6
ENCODING 43990
SWIDTH 803 0
DWIDTH 16 0
BBX 16 16 0 -1
BITMAP
0003
000D
0005
31F6
1F18
0018
0018
0018
0030
0030
0060
0060
00C0
0180
0300
0000
ENDCHAR

STARTCHAR kor_ABD7
ENCODING 43991
SWIDTH 803 0
DWIDTH 16 0
BBX 16 16 0 -1
BITMAP
0000
000E
001B
63DB
3E2E
0030
0030
0030
0060
0060
00C0
00C0
0180
0300
0600
0000
ENDCHAR

STARTCHAR kor_ABD8
ENCODING 43992
SWIDTH 803 0
DWIDTH 16 0
BBX 16 16 0 -1
BITMAP
0000
0000
0000
0000
0000
0700
0580
0580
0CC0
0C60
0C30
5818
300E
0003
0000
0000
ENDCHAR

STARTCHAR kor_ABD9
ENCODING 43993
SWIDTH 803 0
DWIDTH 16 0
BBX 16 16 0 -1
BITMAP
0000
0000
0018
006C
002C
0730
0580
0580
0CC0
0C60
0C30
5818
300E
0003
0000
0000
ENDCHAR

STARTCHAR kor_ABDA
ENCODING 43994
SWIDTH 803 0
DWIDTH 16 0
BBX 16 16 0 -1
BITMAP
0000
0000
0000
0000
001C
0736
05B6
059C
0CC0
0C60
0C30
5818
300E
0003
0000
0000
ENDCHAR

STARTCHAR kor_ABDB
ENCODING 43995
SWIDTH 803 0
DWIDTH 16 0
BBX 16 16 0 -1
BITMAP
0000
0180
00C0
00C0
30C0
1FFE
00C0
00C0
06D8
0CD8
18CC
30C6
02C6
01C0
00C0
0000
ENDCHAR

STARTCHAR kor_ABDC
ENCODING 43996
SWIDTH 803 0
DWIDTH 16 0
BBX 16 16 0 -1
BITMAP
0006
019B
00CB
00CC
30C0
1FFE
00C0
00C0
06D8
0CD8
18CC
30C6
02C6
01C0
00C0
0000
ENDCHAR

STARTCHAR kor_ABDD
ENCODING 43997
SWIDTH 803 0
DWIDTH 16 0
BBX 16 16 0 -1
BITMAP
0000
018E
00DB
00DB
30CE
1FFE
00C0
00C0
06D8
0CD8
18CC
30C6
02C6
01C0
00C0
0000
ENDCHAR

STARTCHAR kor_ABDE
ENCODING 43998
SWIDTH 803 0
DWIDTH 16 0
BBX 16 16 0 -1
BITMAP
0000
0000
0000
181C
0FFE
000C
0018
0018
0030
0060
06C0
01C0
0060
0000
0000
0000
ENDCHAR

STARTCHAR kor_ABDF
ENCODING 43999
SWIDTH 803 0
DWIDTH 16 0
BBX 16 16 0 -1
BITMAP
0000
0000
0E00
0380
00E0
0038
0E0C
0380
00E0
0038
0E0C
0380
00E0
0038
000C
0000
ENDCHAR

STARTCHAR kor_ABE0
ENCODING 44000
SWIDTH 803 0
DWIDTH 16 0
BBX 16 16 0 -1
BITMAP
0000
0000
0000
01C0
0180
0180
0300
0300
0630
0618
0C0C
0C0C
17FE
7E06
0000
0000
ENDCHAR

STARTCHAR kor_ABE1
ENCODING 44001
SWIDTH 803 0
DWIDTH 16 0
BBX 16 16 0 -1
BITMAP
0000
0000
0038
0018
0018
0030
0730
01E0
00B0
0198
030C
060C
1C00
7000
0000
0000
ENDCHAR

STARTCHAR kor_ABE2
ENCODING 44002
SWIDTH 803 0
DWIDTH 16 0
BBX 16 16 0 -1
BITMAP
0000
0000
0000
01F0
1F00
0600
0600
063C
3FE0
0600
0600
0600
0600
03FC
0000
0000
ENDCHAR

STARTCHAR kor_ABE3
ENCODING 44003
SWIDTH 803 0
DWIDTH 16 0
BBX 16 16 0 -1
BITMAP
0000
0000
0000
0000
0000
0618
033C
01D8
0798
1CC0
00C0
0060
0060
0030
0000
0000
ENDCHAR

STARTCHAR kor_ABE4
ENCODING 44004
SWIDTH 803 0
DWIDTH 16 0
BBX 16 16 0 -1
BITMAP
0000
0000
0E00
063E
05E6
6F0C
3B00
0180
0180
00C0
00C0
0060
0060
0030
0030
0000
ENDCHAR

STARTCHAR kor_ABE5
ENCODING 44005
SWIDTH 803 0
DWIDTH 16 0
BBX 16 16 0 -1
BITMAP
0000
0000
0000
0000
1830
0FF8
0018
0018
0030
0030
0030
307E
1FCC
0000
0000
0000
ENDCHAR

STARTCHAR kor_ABE6
ENCODING 44006
SWIDTH 803 0
DWIDTH 16 0
BBX 16 16 0 -1
BITMAP
0000
0000
1830
0FF8
001C
0018
0018
0018
0030
0030
0030
307E
1FC0
0000
0000
0000
ENDCHAR

STARTCHAR kor_ABE7
ENCODING 44007
SWIDTH 803 0
DWIDTH 16 0
BBX 16 16 0 -1
BITMAP
0000
0000
0000
0000
1860
0FF8
0030
0030
1830
0FF0
0030
0060
0060
1FF8
0000
0000
ENDCHAR

STARTCHAR kor_ABE8
ENCODING 44008
SWIDTH 803 0
DWIDTH 16 0
BBX 16 16 0 -1
BITMAP
0000
0000
1830
0FF8
001C
0018
0018
1818
0FF0
0030
0030
0030
00FC
0FC0
0000
0000
ENDCHAR

STARTCHAR kor_ABE9
ENCODING 44009
SWIDTH 803 0
DWIDTH 16 0
BBX 16 16 0 -1
BITMAP
0000
0C00
07F0
0000
0000
18F8
0F98
0018
0018
0030
0030
0060
0060
00C0
0180
0000
ENDCHAR

STARTCHAR kor_ABEA
ENCODING 44010
SWIDTH 803 0
DWIDTH 16 0
BBX 16 16 0 -1
BITMAP
0000
0000
0060
1830
0C30
0C30
0C30
0C30
0C30
0C30
0C60
0060
0060
00C0
0180
0000
ENDCHAR

STARTCHAR kor_ABEB
ENCODING 44011
SWIDTH 803 0
DWIDTH 16 0
BBX 16 16 0 -1
BITMAP
0000
0000
0180
18C0
0CC0
0CC0
0CC0
0CC0
0CC0
0CC0
18CC
18D8
30B0
00E0
01C0
0000
ENDCHAR

STARTCHAR kor_ABEC
ENCODING 44012
SWIDTH 803 0
DWIDTH 16 0
BBX 16 16 0 -1
BITMAP
0000
0000
0C00
0600
0600
0600
0600
0600
0606
060C
0618
0670
05C0
0F00
0000
0000
ENDCHAR

STARTCHAR kor_ABED
ENCODING 44013
SWIDTH 803 0
DWIDTH 16 0
BBX 16 16 0 -1
BITMAP
0000
0000
0000
0018
187C
0FCE
0C0C
0C0C
0C0C
0C0C
0C0C
0C0C
0C0C
0FFE
0C00
0000
ENDCHAR

STARTCHAR kor_ABEE
ENCODING 44014
SWIDTH 803 0
DWIDTH 16 0
BBX 16 16 0 -1
BITMAP
0000
0000
0000
0000
0000
0C18
0FFC
0C18
0C18
0C30
0030
0060
0060
00C0
0180
0000
ENDCHAR

STARTCHAR kor_ABEF
ENCODING 44015
SWIDTH 803 0
DWIDTH 16 0
BBX 16 16 0 -1
BITMAP
0000
0000
0C1C
0FFE
0C0C
0C0C
0C0C
0C1C
0018
0018
0030
0030
0060
00C0
0180
0000
ENDCHAR

STARTCHAR kor_ABF0
ENCODING 44016
SWIDTH 803 0
DWIDTH 16 0
BBX 16 16 0 -1
BITMAP
0000
0060
0030
0030
0030
1830
0FFC
0630
0630
0630
363E
1FF0
0030
0030
0030
0000
ENDCHAR

STARTCHAR kor_ABF1
ENCODING 44017
SWIDTH 803 0
DWIDTH 16 0
BBX 16 16 0 -1
BITMAP
0000
0000
0030
1878
0FDC
0030
0160
00C0
00C0
00C0
00C0
30BF
1FE0
0C00
0000
0000
ENDCHAR

STARTCHAR kor_ABF2
ENCODING 44018
SWIDTH 803 0
DWIDTH 16 0
BBX 16 16 0 -1
BITMAP
0000
0000
0030
18FC
0F98
0018
0018
30F0
1FB0
0060
0060
00C0
0180
0300
0600
0000
ENDCHAR

STARTCHAR kor_ABF3
ENCODING 44019
SWIDTH 803 0
DWIDTH 16 0
BBX 16 16 0 -1
BITMAP
0000
0000
0003
0C03
0606
0306
030C
000C
0018
0030
0060
00C0
1B80
0E00
0000
0000
ENDCHAR

STARTCHAR kor_ABF4
ENCODING 44020
SWIDTH 803 0
DWIDTH 16 0
BBX 16 16 0 -1
BITMAP
0006
0033
019B
00D8
00C0
0CCC
0FFE
0C0C
000C
0018
0018
0030
0030
0060
00C0
0000
ENDCHAR

STARTCHAR kor_ABF5
ENCODING 44021
SWIDTH 803 0
DWIDTH 16 0
BBX 16 16 0 -1
BITMAP
0000
0000
0000
0000
0000
0180
01B0
01F8
0F98
0318
0318
0630
06B0
0C70
0060
0000
ENDCHAR

STARTCHAR kor_ABF6
ENCODING 44022
SWIDTH 803 0
DWIDTH 16 0
BBX 16 16 0 -1
BITMAP
0000
0000
0000
0000
0000
0300
0300
07FE
0660
0C60
1860
30C0
00C0
0180
0000
0000
ENDCHAR

STARTCHAR kor_ACA1
ENCODING 44193
SWIDTH 803 0
DWIDTH 16 0
BBX 16 16 0 -1
BITMAP
0000
00C0
01C0
00C0
0160
0160
0330
0330
0618
07F8
0C0C
0C0C
1806
3C0F
0000
0000
ENDCHAR

STARTCHAR kor_ACA2
ENCODING 44194
SWIDTH 803 0
DWIDTH 16 0
BBX 16 16 0 -1
BITMAP
0000
0000
3FF8
0C18
0C0C
0C00
0C00
0FF0
0C18
0C0C
0C0C
0C0C
0C18
3FF0
0000
0000
ENDCHAR

STARTCHAR kor_ACA3
ENCODING 44195
SWIDTH 803 0
DWIDTH 16 0
BBX 16 16 0 -1
BITMAP
0000
0000
3FF0
0C18
0C18
0C18
0C18
0FF0
0C18
0C0C
0C0C
0C0C
0C18
3FF0
0000
0000
ENDCHAR

STARTCHAR kor_ACA4
ENCODING 44196
SWIDTH 803 0
DWIDTH 16 0
BBX 16 16 0 -1
BITMAP
0000
0000
3FF8
0C18
0C0C
0C00
0C00
0C00
0C00
0C00
0C00
0C00
0C00
3F00
0000
0000
ENDCHAR

STARTCHAR kor_ACA5
ENCODING 44197
SWIDTH 803 0
DWIDTH 16 0
BBX 16 16 0 -1
BITMAP
0000
0000
1FFC
0630
0630
0630
0630
0630
0C30
0C30
0C30
1830
1FF8
3018
600C
0000
ENDCHAR

STARTCHAR kor_ACA6
ENCODING 44198
SWIDTH 803 0
DWIDTH 16 0
BBX 16 16 0 -1
BITMAP
0000
0000
3FF8
0C18
0C0C
0C00
0C60
0FE0
0C60
0C00
0C00
0C0C
0C18
3FF8
0000
0000
ENDCHAR

STARTCHAR kor_ACA7
ENCODING 44199
SWIDTH 803 0
DWIDTH 16 0
BBX 16 16 0 -1
BITMAP
0000
0000
0770
0770
0000
3FF8
0C0C
0C00
0C60
0FE0
0C60
0C00
0C0C
3FF8
0000
0000
ENDCHAR

STARTCHAR kor_ACA8
ENCODING 44200
SWIDTH 803 0
DWIDTH 16 0
BBX 16 16 0 -1
BITMAP
0000
0000
73CE
1998
0DB0
0DB0
0560
03C0
0560
0DB0
0DB0
1998
318C
7BDE
0000
0000
ENDCHAR

STARTCHAR kor_ACA9
ENCODING 44201
SWIDTH 803 0
DWIDTH 16 0
BBX 16 16 0 -1
BITMAP
0000
0000
07E0
0C30
1818
0018
0018
00F0
0018
000C
000C
180C
0C18
07F0
0000
0000
ENDCHAR

STARTCHAR kor_ACAA
ENCODING 44202
SWIDTH 803 0
DWIDTH 16 0
BBX 16 16 0 -1
BITMAP
0000
0000
3E3E
0C38
0C58
0C58
0CD8
0CD8
0D98
0D98
0B18
0B18
0E18
3E3E
0000
0000
ENDCHAR

STARTCHAR kor_ACAB
ENCODING 44203
SWIDTH 803 0
DWIDTH 16 0
BBX 16 16 0 -1
BITMAP
0C18
0C18
0630
03E0
0000
1E3C
0C18
0C18
0C18
0FF8
0C18
0C18
0C18
1E3C
0000
0000
ENDCHAR

STARTCHAR kor_ACAC
ENCODING 44204
SWIDTH 803 0
DWIDTH 16 0
BBX 16 16 0 -1
BITMAP
0000
0000
3E38
0C6C
0C60
0CC0
0D80
0F00
0D80
0CC0
0C60
0C30
0C18
3E3C
0000
0000
ENDCHAR

STARTCHAR kor_ACAD
ENCODING 44205
SWIDTH 803 0
DWIDTH 16 0
BBX 16 16 0 -1
BITMAP
0000
0000
0FFE
0318
0318
0318
0318
0318
0318
0318
0618
3618
3618
1C7E
0000
0000
ENDCHAR

STARTCHAR kor_ACAE
ENCODING 44206
SWIDTH 803 0
DWIDTH 16 0
BBX 16 16 0 -1
BITMAP
0000
0000
1C38
0C30
0E70
0E70
1AD8
1AD8
1998
1998
318C
300C
300C
781E
0000
0000
ENDCHAR

STARTCHAR kor_ACAF
ENCODING 44207
SWIDTH 803 0
DWIDTH 16 0
BBX 16 16 0 -1
BITMAP
0000
0000
3E3E
0C18
0C18
0C18
0C18
0FF8
0C18
0C18
0C18
0C18
0C18
3E3E
0000
0000
ENDCHAR

STARTCHAR kor_ACB0
ENCODING 44208
SWIDTH 803 0
DWIDTH 16 0
BBX 16 16 0 -1
BITMAP
0000
0000
03E0
0630
0C18
1C1C
180C
180C
180C
180C
1C1C
0C18
0630
03E0
0000
0000
ENDCHAR

STARTCHAR kor_ACB1
ENCODING 44209
SWIDTH 803 0
DWIDTH 16 0
BBX 16 16 0 -1
BITMAP
0000
0000
1FFE
0618
0618
0618
0618
0618
0618
0618
0618
0618
0618
1F3E
0000
0000
ENDCHAR

STARTCHAR kor_ACB2
ENCODING 44210
SWIDTH 803 0
DWIDTH 16 0
BBX 16 16 0 -1
BITMAP
0000
0000
3FF0
0C18
0C0C
0C0C
0C0C
0C0C
0C18
0FF0
0C00
0C00
0C00
3F00
0000
0000
ENDCHAR

STARTCHAR kor_ACB3
ENCODING 44211
SWIDTH 803 0
DWIDTH 16 0
BBX 16 16 0 -1
BITMAP
0000
0000
03E0
062C
0C1C
180C
1800
1800
1800
1800
1800
0C0C
0618
03F0
0000
0000
ENDCHAR

STARTCHAR kor_ACB4
ENCODING 44212
SWIDTH 803 0
DWIDTH 16 0
BBX 16 16 0 -1
BITMAP
0000
0000
0FFC
0CCC
18C6
00C0
00C0
00C0
00C0
00C0
00C0
00C0
00C0
03F0
0000
0000
ENDCHAR

STARTCHAR kor_ACB5
ENCODING 44213
SWIDTH 803 0
DWIDTH 16 0
BBX 16 16 0 -1
BITMAP
0000
0000
3F3F
0C0C
060C
0618
0318
0318
01B0
01B0
00E0
0CE0
06C0
0380
0000
0000
ENDCHAR

STARTCHAR kor_ACB6
ENCODING 44214
SWIDTH 803 0
DWIDTH 16 0
BBX 16 16 0 -1
BITMAP
0000
0000
07E0
0180
0FF0
1998
318C
318C
318C
318C
1998
0FF0
0180
07E0
0000
0000
ENDCHAR

STARTCHAR kor_ACB7
ENCODING 44215
SWIDTH 803 0
DWIDTH 16 0
BBX 16 16 0 -1
BITMAP
0000
0000
3E1F
0C0C
0618
0330
0160
00C0
00C0
0160
0330
0618
0C0C
3E1F
0000
0000
ENDCHAR

STARTCHAR kor_ACB8
ENCODING 44216
SWIDTH 803 0
DWIDTH 16 0
BBX 16 16 0 -1
BITMAP
0000
0000
1F3E
0618
0618
0618
0618
0618
0618
0618
0618
0618
0618
1FFC
001C
0006
ENDCHAR

STARTCHAR kor_ACB9
ENCODING 44217
SWIDTH 803 0
DWIDTH 16 0
BBX 16 16 0 -1
BITMAP
0000
0000
3E7C
0C18
0C18
0C18
0C18
0C18
0618
03F8
0018
0018
0018
007C
0000
0000
ENDCHAR

STARTCHAR kor_ACBA
ENCODING 44218
SWIDTH 803 0
DWIDTH 16 0
BBX 16 16 0 -1
BITMAP
0000
0000
3DDF
0CCC
0CCC
0CCC
0CCC
0CCC
0CCC
0CCC
0CCC
0CCC
0CCC
3FFF
0000
0000
ENDCHAR

STARTCHAR kor_ACBB
ENCODING 44219
SWIDTH 803 0
DWIDTH 16 0
BBX 16 16 0 -1
BITMAP
0000
0000
3DDF
0CCC
0CCC
0CCC
0CCC
0CCC
0CCC
0CCC
0CCC
0CCC
0CCC
3FFF
0003
0001
ENDCHAR

STARTCHAR kor_ACBC
ENCODING 44220
SWIDTH 803 0
DWIDTH 16 0
BBX 16 16 0 -1
BITMAP
0000
0000
1FE0
1980
3180
0180
01F8
018C
0186
0186
0186
0186
018C
07F8
0000
0000
ENDCHAR

STARTCHAR kor_ACBD
ENCODING 44221
SWIDTH 803 0
DWIDTH 16 0
BBX 16 16 0 -1
BITMAP
0000
0000
7E3F
180C
180C
180C
1F8C
18CC
186C
186C
186C
186C
18CC
7FBF
0000
0000
ENDCHAR

STARTCHAR kor_ACBE
ENCODING 44222
SWIDTH 803 0
DWIDTH 16 0
BBX 16 16 0 -1
BITMAP
0000
0000
3F00
0C00
0C00
0C00
0FF0
0C18
0C0C
0C0C
0C0C
0C0C
0C18
3FF0
0000
0000
ENDCHAR

STARTCHAR kor_ACBF
ENCODING 44223
SWIDTH 803 0
DWIDTH 16 0
BBX 16 16 0 -1
BITMAP
0000
0000
07E0
0C30
1818
000C
000C
079C
0CEC
000C
000C
1818
0C30
07E0
0000
0000
ENDCHAR

STARTCHAR kor_ACC0
ENCODING 44224
SWIDTH 803 0
DWIDTH 16 0
BBX 16 16 0 -1
BITMAP
0000
0000
7CF8
198C
198C
1B06
1B06
1F06
1B06
1B06
1B06
198C
198C
7CF8
0000
0000
ENDCHAR

STARTCHAR kor_ACC1
ENCODING 44225
SWIDTH 803 0
DWIDTH 16 0
BBX 16 16 0 -1
BITMAP
0000
0000
07FE
0C18
1818
1818
1818
1818
0C18
07F8
0618
0618
0C18
383E
0000
0000
ENDCHAR

STARTCHAR kor_ACD1
ENCODING 44241
SWIDTH 803 0
DWIDTH 16 0
BBX 16 16 0 -1
BITMAP
0000
0000
0000
0000
0000
0FF0
0018
0018
07D8
0C38
1818
1818
0C38
07EE
0000
0000
ENDCHAR

STARTCHAR kor_ACD2
ENCODING 44242
SWIDTH 803 0
DWIDTH 16 0
BBX 16 16 0 -1
BITMAP
0000
0000
0018
07F0
0C00
1800
1BE0
1630
1C18
1818
1818
1818
0C30
07E0
0000
0000
ENDCHAR

STARTCHAR kor_ACD3
ENCODING 44243
SWIDTH 803 0
DWIDTH 16 0
BBX 16 16 0 -1
BITMAP
0000
0000
0000
0000
0000
3FF0
0C18
0C18
0C18
0FF0
0C18
0C18
0C18
3FF0
0000
0000
ENDCHAR

STARTCHAR kor_ACD4
ENCODING 44244
SWIDTH 803 0
DWIDTH 16 0
BBX 16 16 0 -1
BITMAP
0000
0000
0000
0000
0000
1FF8
0618
060C
0600
0600
0600
0600
0600
1F80
0000
0000
ENDCHAR

STARTCHAR kor_ACD5
ENCODING 44245
SWIDTH 803 0
DWIDTH 16 0
BBX 16 16 0 -1
BITMAP
0000
0000
0000
0000
0000
1FFC
0630
0630
0630
0630
0630
0C30
0C30
3FFC
3006
0003
ENDCHAR

STARTCHAR kor_ACD6
ENCODING 44246
SWIDTH 803 0
DWIDTH 16 0
BBX 16 16 0 -1
BITMAP
0000
0000
0000
0000
0000
07E0
0C30
1818
1818
1FF8
1800
1818
0C30
07E0
0000
0000
ENDCHAR

STARTCHAR kor_ACD7
ENCODING 44247
SWIDTH 803 0
DWIDTH 16 0
BBX 16 16 0 -1
BITMAP
0000
0000
0660
0660
0000
07E0
0C30
1818
1818
1FF8
1800
1818
0C30
07E0
0000
0000
ENDCHAR

STARTCHAR kor_ACD8
ENCODING 44248
SWIDTH 803 0
DWIDTH 16 0
BBX 16 16 0 -1
BITMAP
0000
0000
0000
0000
1BD8
2DAC
0560
0560
03C0
0560
0560
0DB0
1998
3BBC
0000
0000
ENDCHAR

STARTCHAR kor_ACD9
ENCODING 44249
SWIDTH 803 0
DWIDTH 16 0
BBX 16 16 0 -1
BITMAP
0000
0000
0000
0000
0000
07E0
1C30
1818
0018
03F0
0030
1818
1C18
07F0
0000
0000
ENDCHAR

STARTCHAR kor_ACDA
ENCODING 44250
SWIDTH 803 0
DWIDTH 16 0
BBX 16 16 0 -1
BITMAP
0000
0000
0000
0000
0000
1E3C
0C38
0C58
0CD8
0CD8
0D98
0B18
0E18
1E3C
0000
0000
ENDCHAR

STARTCHAR kor_ACDB
ENCODING 44251
SWIDTH 803 0
DWIDTH 16 0
BBX 16 16 0 -1
BITMAP
0000
0660
0660
03C0
0000
1E3C
0C38
0C58
0CD8
0CD8
0D98
0B18
0E18
1E3C
0000
0000
ENDCHAR

STARTCHAR kor_ACDC
ENCODING 44252
SWIDTH 803 0
DWIDTH 16 0
BBX 16 16 0 -1
BITMAP
0000
0000
0000
0000
0000
1E30
0C58
0CC0
0D80
0F00
0D80
0CE0
0C30
1E78
0000
0000
ENDCHAR

STARTCHAR kor_ACDD
ENCODING 44253
SWIDTH 803 0
DWIDTH 16 0
BBX 16 16 0 -1
BITMAP
0000
0000
0000
0000
0000
0FFE
0318
0318
0318
0318
0318
3618
3618
1C3C
0000
0000
ENDCHAR

STARTCHAR kor_ACDE
ENCODING 44254
SWIDTH 803 0
DWIDTH 16 0
BBX 16 16 0 -1
BITMAP
0000
0000
0000
0000
0000
381C
1C38
1658
1658
1AD8
1998
1818
1818
3C3C
0000
0000
ENDCHAR

STARTCHAR kor_ACDF
ENCODING 44255
SWIDTH 803 0
DWIDTH 16 0
BBX 16 16 0 -1
BITMAP
0000
0000
0000
0000
0000
1E3C
0C18
0C18
0C18
0FF8
0C18
0C18
0C18
1E3C
0000
0000
ENDCHAR

STARTCHAR kor_ACE0
ENCODING 44256
SWIDTH 803 0
DWIDTH 16 0
BBX 16 16 0 -1
BITMAP
0000
0000
0000
0000
0000
03F0
0618
0C0C
0C0C
0C0C
0C0C
0C0C
0618
03F0
0000
0000
ENDCHAR

STARTCHAR kor_ACE1
ENCODING 44257
SWIDTH 803 0
DWIDTH 16 0
BBX 16 16 0 -1
BITMAP
0000
0000
0000
0000
0000
1FFE
0618
0618
0618
0618
0618
0618
0618
1F3E
0000
0000
ENDCHAR

STARTCHAR kor_ACE2
ENCODING 44258
SWIDTH 803 0
DWIDTH 16 0
BBX 16 16 0 -1
BITMAP
0000
0000
0000
0000
0000
0BF0
1E18
0C0C
0C0C
0C0C
0E18
0BF0
0C00
0C00
0C00
1E00
ENDCHAR

STARTCHAR kor_ACE3
ENCODING 44259
SWIDTH 803 0
DWIDTH 16 0
BBX 16 16 0 -1
BITMAP
0000
0000
0000
0000
0000
03F0
0618
0C0C
0C00
0C00
0C00
0C0C
0618
03F0
0000
0000
ENDCHAR

STARTCHAR kor_ACE4
ENCODING 44260
SWIDTH 803 0
DWIDTH 16 0
BBX 16 16 0 -1
BITMAP
0000
0000
0000
0000
0000
0FFC
0CCC
18C6
00C0
00C0
00C0
00C0
00C0
03F0
0000
0000
ENDCHAR

STARTCHAR kor_ACE5
ENCODING 44261
SWIDTH 803 0
DWIDTH 16 0
BBX 16 16 0 -1
BITMAP
0000
0000
0000
0000
0000
0F1E
060C
030C
0318
0198
01B0
00B0
00E0
0060
0CC0
0780
ENDCHAR

STARTCHAR kor_ACE6
ENCODING 44262
SWIDTH 803 0
DWIDTH 16 0
BBX 16 16 0 -1
BITMAP
0000
0000
00C0
01C0
00C0
06B8
0DEC
18C6
18C6
18C6
0DEC
06B8
00C0
01E0
0000
0000
ENDCHAR

STARTCHAR kor_ACE7
ENCODING 44263
SWIDTH 803 0
DWIDTH 16 0
BBX 16 16 0 -1
BITMAP
0000
0000
0000
0000
0000
1E78
0C30
0660
02C0
0180
02C0
0660
0C30
1E3C
0000
0000
ENDCHAR

STARTCHAR kor_ACE8
ENCODING 44264
SWIDTH 803 0
DWIDTH 16 0
BBX 16 16 0 -1
BITMAP
0000
0000
0000
0000
0000
3E7C
0C30
0C30
0C30
0C30
0C30
0C30
0C30
3FFC
000C
0006
ENDCHAR

STARTCHAR kor_ACE9
ENCODING 44265
SWIDTH 803 0
DWIDTH 16 0
BBX 16 16 0 -1
BITMAP
0000
0000
0000
0000
0000
3F3E
0C18
0C18
0C18
0C18
0638
03D8
0018
007E
0000
0000
ENDCHAR

STARTCHAR kor_ACEA
ENCODING 44266
SWIDTH 803 0
DWIDTH 16 0
BBX 16 16 0 -1
BITMAP
0000
0000
0000
0000
0000
3BBC
1998
1998
1998
1998
1998
1998
1998
3FFC
0000
0000
ENDCHAR

STARTCHAR kor_ACEB
ENCODING 44267
SWIDTH 803 0
DWIDTH 16 0
BBX 16 16 0 -1
BITMAP
0000
0000
0000
0000
0000
3BBC
1998
1998
1998
1998
1998
1998
1998
3FFC
000C
0006
ENDCHAR

STARTCHAR kor_ACEC
ENCODING 44268
SWIDTH 803 0
DWIDTH 16 0
BBX 16 16 0 -1
BITMAP
0000
0000
0000
0000
0000
1FF0
1980
3180
01FC
0186
0186
0186
0186
07FC
0000
0000
ENDCHAR

STARTCHAR kor_ACED
ENCODING 44269
SWIDTH 803 0
DWIDTH 16 0
BBX 16 16 0 -1
BITMAP
0000
0000
0000
0000
0000
3F3F
0C0C
0C0C
0FCC
0C6C
0C6C
0C6C
0C6C
3FBF
0000
0000
ENDCHAR

STARTCHAR kor_ACEE
ENCODING 44270
SWIDTH 803 0
DWIDTH 16 0
BBX 16 16 0 -1
BITMAP
0000
0000
0000
0000
0000
0FC0
0300
0300
03F8
030C
030C
030C
030C
0FF8
0000
0000
ENDCHAR

STARTCHAR kor_ACEF
ENCODING 44271
SWIDTH 803 0
DWIDTH 16 0
BBX 16 16 0 -1
BITMAP
0000
0000
0000
0000
0000
03F0
0618
0C0C
039C
06EC
000C
0C0C
0618
03F0
0000
0000
ENDCHAR

STARTCHAR kor_ACF0
ENCODING 44272
SWIDTH 803 0
DWIDTH 16 0
BBX 16 16 0 -1
BITMAP
0000
0000
0000
0000
0000
3E78
0CCC
0D86
0D86
0F86
0D86
0D86
0CCC
3E78
0000
0000
ENDCHAR

STARTCHAR kor_ACF1
ENCODING 44273
SWIDTH 803 0
DWIDTH 16 0
BBX 16 16 0 -1
BITMAP
0000
0000
0000
0000
0000
07FC
0C18
0C18
0C18
07F8
0318
0618
0C18
1E7C
0000
0000
ENDCHAR

STARTCHAR kor_B0A1
ENCODING 45217
SWIDTH 803 0
DWIDTH 16 0
BBX 16 16 0 -1
BITMAP
0000
0000
001C
001C
7F9C
01DC
01DC
039F
071C
0E1C
1C1C
381C
001C
001C
001C
001C
ENDCHAR

STARTCHAR kor_B0A2
ENCODING 45218
SWIDTH 803 0
DWIDTH 16 0
BBX 16 16 0 -1
BITMAP
0000
0000
001C
FF1C
039C
039F
071C
071C
0E1C
1C1C
0000
03FC
000E
000E
000E
001C
ENDCHAR

STARTCHAR kor_B0A3
ENCODING 45219
SWIDTH 803 0
DWIDTH 16 0
BBX 16 16 0 -1
BITMAP
0000
0000
001C
FF1C
039C
039F
071C
071C
0E1C
1C1C
00E0
00E0
00E3
00EF
007C
0000
ENDCHAR

STARTCHAR kor_B0A4
ENCODING 45220
SWIDTH 803 0
DWIDTH 16 0
BBX 16 16 0 -1
BITMAP
0000
0000
001C
FF1C
039C
039F
071C
071C
0E1C
1C1C
0000
03FC
01C0
01C0
01C0
00FE
ENDCHAR

STARTCHAR kor_B0A5
ENCODING 45221
SWIDTH 803 0
DWIDTH 16 0
BBX 16 16 0 -1
BITMAP
0000
0000
001C
FF1C
039C
039F
071C
071C
0E1C
1C1C
0000
01F8
001D
001B
001B
000E
ENDCHAR

STARTCHAR kor_B0A6
ENCODING 45222
SWIDTH 803 0
DWIDTH 16 0
BBX 16 16 0 -1
BITMAP
0000
0000
001C
FF1C
039C
039F
071C
071C
0E1C
1C1C
0000
0F7C
01CE
078E
0E6E
07CC
ENDCHAR

STARTCHAR kor_B0A7
ENCODING 45223
SWIDTH 803 0
DWIDTH 16 0
BBX 16 16 0 -1
BITMAP
0000
0000
001C
FF1C
039C
039F
071C
071C
0E1C
1C1C
0000
0F7E
01B7
07B7
0E76
07BF
ENDCHAR

STARTCHAR kor_B0A8
ENCODING 45224
SWIDTH 803 0
DWIDTH 16 0
BBX 16 16 0 -1
BITMAP
0000
0000
001C
FF1C
039C
039F
071C
071C
0E1C
1C1C
0000
039C
03BB
037F
01EE
0000
ENDCHAR

STARTCHAR kor_B0A9
ENCODING 45225
SWIDTH 803 0
DWIDTH 16 0
BBX 16 16 0 -1
BITMAP
0000
0000
001C
FF1C
039C
039F
071C
071C
0E1C
1C1C
0380
038E
037E
03EE
037E
01BC
ENDCHAR

STARTCHAR kor_B0AA
ENCODING 45226
SWIDTH 803 0
DWIDTH 16 0
BBX 16 16 0 -1
BITMAP
0000
0000
001C
FF1C
039C
039F
071C
071C
0E1C
1C1C
0000
0EDC
0EDC
0FFC
0EEE
0BE7
ENDCHAR

STARTCHAR kor_B0AB
ENCODING 45227
SWIDTH 803 0
DWIDTH 16 0
BBX 16 16 0 -1
BITMAP
0000
0000
001C
FF1C
039C
039F
071C
071C
0E1C
1C1C
0000
0070
00F0
01BC
038F
0303
ENDCHAR

STARTCHAR kor_B0AC
ENCODING 45228
SWIDTH 803 0
DWIDTH 16 0
BBX 16 16 0 -1
BITMAP
0000
0000
001C
FF1C
039C
039F
071C
071C
0E1C
1C1C
0000
01DC
03FC
076E
0EE7
0000
ENDCHAR

STARTCHAR kor_B0AD
ENCODING 45229
SWIDTH 803 0
DWIDTH 16 0
BBX 16 16 0 -1
BITMAP
0000
0000
001C
FF1C
039C
039F
071C
071C
0E1C
1C1C
0000
01F8
039C
039C
039C
01F8
ENDCHAR

STARTCHAR kor_B0AE
ENCODING 45230
SWIDTH 803 0
DWIDTH 16 0
BBX 16 16 0 -1
BITMAP
0000
0000
001C
FF1C
039C
039F
071C
071C
0E1C
1C1C
0000
03F8
001C
003C
006E
00E7
ENDCHAR

STARTCHAR kor_B0AF
ENCODING 45231
SWIDTH 803 0
DWIDTH 16 0
BBX 16 16 0 -1
BITMAP
0000
0000
001C
FF1C
039C
039F
071C
071C
0E1C
1C7C
0038
03F8
001C
003C
006E
00E7
ENDCHAR

STARTCHAR kor_B0B0
ENCODING 45232
SWIDTH 803 0
DWIDTH 16 0
BBX 16 16 0 -1
BITMAP
0000
0000
001C
FF1C
039C
039F
071C
071C
0E1C
1C1C
0000
03FC
01C0
01FC
01C0
00FE
ENDCHAR

STARTCHAR kor_B0B1
ENCODING 45233
SWIDTH 803 0
DWIDTH 16 0
BBX 16 16 0 -1
BITMAP
0000
0000
001C
FF1C
039C
039F
071C
071C
0E1C
1C1C
0000
03FE
01DC
01DC
01B8
03FE
ENDCHAR

STARTCHAR kor_B0B2
ENCODING 45234
SWIDTH 803 0
DWIDTH 16 0
BBX 16 16 0 -1
BITMAP
0000
0000
001C
FF1C
039C
039F
071C
071C
0E1C
1C1C
0070
003C
01FC
007E
00EE
007C
ENDCHAR

STARTCHAR kor_B0B3
ENCODING 45235
SWIDTH 803 0
DWIDTH 16 0
BBX 16 16 0 -1
BITMAP
0000
0000
0007
0037
7FB7
01B7
01B7
03BF
0737
0E37
1C37
3837
0037
0037
0037
0007
ENDCHAR

STARTCHAR kor_B0B4
ENCODING 45236
SWIDTH 803 0
DWIDTH 16 0
BBX 16 16 0 -1
BITMAP
0000
0000
0007
FF37
03B7
03BF
0737
0737
0E37
1C37
0000
01FE
0007
0007
0007
000E
ENDCHAR

STARTCHAR kor_B0B5
ENCODING 45237
SWIDTH 803 0
DWIDTH 16 0
BBX 16 16 0 -1
BITMAP
0000
0000
0007
FF37
03B7
03BF
0737
0737
0E37
1C37
0070
0070
0071
0077
003E
0000
ENDCHAR

STARTCHAR kor_B0B6
ENCODING 45238
SWIDTH 803 0
DWIDTH 16 0
BBX 16 16 0 -1
BITMAP
0000
0000
0007
FF37
03B7
03BF
0737
0737
0E37
1C37
0000
00FC
000E
000D
000F
0007
ENDCHAR

STARTCHAR kor_B0B7
ENCODING 45239
SWIDTH 803 0
DWIDTH 16 0
BBX 16 16 0 -1
BITMAP
0000
0000
0007
FF37
03B7
03BF
0737
0737
0E37
1C37
0000
01CE
01DD
01BF
00F7
0000
ENDCHAR

STARTCHAR kor_B0B8
ENCODING 45240
SWIDTH 803 0
DWIDTH 16 0
BBX 16 16 0 -1
BITMAP
0000
0000
0007
FF37
03B7
03BF
0737
0737
0E37
1C37
01C0
01C7
01BF
01F7
01BF
00DE
ENDCHAR

STARTCHAR kor_B0B9
ENCODING 45241
SWIDTH 803 0
DWIDTH 16 0
BBX 16 16 0 -1
BITMAP
0000
0000
0007
FF37
03B7
03BF
0737
0737
0E37
1C37
0000
0038
0078
00DE
01C7
0181
ENDCHAR

STARTCHAR kor_B0BA
ENCODING 45242
SWIDTH 803 0
DWIDTH 16 0
BBX 16 16 0 -1
BITMAP
0000
0000
0007
FF37
03B7
03BF
0737
0737
0E37
1C37
0000
00EE
01FE
03B7
0773
0000
ENDCHAR

STARTCHAR kor_B0BB
ENCODING 45243
SWIDTH 803 0
DWIDTH 16 0
BBX 16 16 0 -1
BITMAP
0000
0000
0007
FF37
03B7
03BF
0737
0737
0E37
1C37
0000
00FC
01CE
01CE
01CE
00FC
ENDCHAR

STARTCHAR kor_B0BC
ENCODING 45244
SWIDTH 803 0
DWIDTH 16 0
BBX 16 16 0 -1
BITMAP
0000
0000
001C
001C
7F9C
01DC
01DC
039F
071C
0E1F
1C1C
381C
001C
001C
001C
001C
ENDCHAR

STARTCHAR kor_B0BD
ENCODING 45245
SWIDTH 803 0
DWIDTH 16 0
BBX 16 16 0 -1
BITMAP
0000
0000
001C
FF1C
039C
039F
071C
071F
0E1C
1C1C
0000
03FC
000E
000E
000E
001C
ENDCHAR

STARTCHAR kor_B0BE
ENCODING 45246
SWIDTH 803 0
DWIDTH 16 0
BBX 16 16 0 -1
BITMAP
0000
0000
001C
FF1C
039C
039F
071C
071F
0E1C
1C1C
00E0
00E0
00E3
00EF
007C
0000
ENDCHAR

STARTCHAR kor_B0BF
ENCODING 45247
SWIDTH 803 0
DWIDTH 16 0
BBX 16 16 0 -1
BITMAP
0000
0000
001C
FF1C
039C
039F
071C
071F
0E1C
1C1C
0000
01F8
001D
001B
001B
000E
ENDCHAR

STARTCHAR kor_B0C0
ENCODING 45248
SWIDTH 803 0
DWIDTH 16 0
BBX 16 16 0 -1
BITMAP
0000
0000
001C
FF1C
039C
039F
071C
071F
0E1C
1C1C
0000
0070
00F0
01BC
038F
0303
ENDCHAR

STARTCHAR kor_B0C1
ENCODING 45249
SWIDTH 803 0
DWIDTH 16 0
BBX 16 16 0 -1
BITMAP
0000
0000
001C
FF1C
039C
039F
071C
071F
0E1C
1C1C
0000
01F8
039C
039C
039C
01F8
ENDCHAR

STARTCHAR kor_B0C2
ENCODING 45250
SWIDTH 803 0
DWIDTH 16 0
BBX 16 16 0 -1
BITMAP
0000
0000
0007
0037
7FB7
01B7
01B7
03BF
0737
0E3F
1C37
3837
0037
0037
0037
0007
ENDCHAR

STARTCHAR kor_B0C3
ENCODING 45251
SWIDTH 803 0
DWIDTH 16 0
BBX 16 16 0 -1
BITMAP
0000
0000
0007
FF37
03B7
03BF
0737
073F
0E37
1C37
0070
0070
0071
0077
003E
0000
ENDCHAR

STARTCHAR kor_B0C4
ENCODING 45252
SWIDTH 803 0
DWIDTH 16 0
BBX 16 16 0 -1
BITMAP
0000
0000
0007
FF37
03B7
03BF
0737
073F
0E37
1C37
0000
00FC
000E
000D
000F
0007
ENDCHAR

STARTCHAR kor_B0C5
ENCODING 45253
SWIDTH 803 0
DWIDTH 16 0
BBX 16 16 0 -1
BITMAP
0000
0000
000E
000E
7F8E
01CE
01CE
037E
070E
0E0E
1C0E
380E
000E
000E
000E
000E
ENDCHAR

STARTCHAR kor_B0C6
ENCODING 45254
SWIDTH 803 0
DWIDTH 16 0
BBX 16 16 0 -1
BITMAP
0000
0000
000E
FF0E
038E
03FE
070E
070E
0E0E
1C0E
0000
01FE
0007
0007
0007
000E
ENDCHAR

STARTCHAR kor_B0C7
ENCODING 45255
SWIDTH 803 0
DWIDTH 16 0
BBX 16 16 0 -1
BITMAP
0000
0000
000E
FF0E
038E
03FE
070E
070E
0E0E
1C0E
0070
0070
0071
0077
003E
0000
ENDCHAR

STARTCHAR kor_B0C8
ENCODING 45256
SWIDTH 803 0
DWIDTH 16 0
BBX 16 16 0 -1
BITMAP
0000
0000
000E
FF0E
038E
03FE
070E
070E
0E0E
1C0E
0000
01FE
00E0
00E0
00E0
007F
ENDCHAR

STARTCHAR kor_B0C9
ENCODING 45257
SWIDTH 803 0
DWIDTH 16 0
BBX 16 16 0 -1
BITMAP
0000
0000
000E
FF0E
038E
03FE
070E
070E
0E0E
1C0E
0000
00FC
000E
000D
000F
0007
ENDCHAR

STARTCHAR kor_B0CA
ENCODING 45258
SWIDTH 803 0
DWIDTH 16 0
BBX 16 16 0 -1
BITMAP
0000
0000
000E
FF0E
038E
03FE
070E
070E
0E0E
1C0E
0000
07BF
00DB
03DB
073B
03DF
ENDCHAR

STARTCHAR kor_B0CB
ENCODING 45259
SWIDTH 803 0
DWIDTH 16 0
BBX 16 16 0 -1
BITMAP
0000
0000
000E
FF0E
038E
03FE
070E
070E
0E0E
1C0E
0000
01CE
01DD
01BF
00F7
0000
ENDCHAR

STARTCHAR kor_B0CC
ENCODING 45260
SWIDTH 803 0
DWIDTH 16 0
BBX 16 16 0 -1
BITMAP
0000
0000
000E
FF0E
038E
03FE
070E
070E
0E0E
1C0E
01C0
01C7
01BF
01F7
01BF
00DE
ENDCHAR

STARTCHAR kor_B0CD
ENCODING 45261
SWIDTH 803 0
DWIDTH 16 0
BBX 16 16 0 -1
BITMAP
0000
0000
000E
FF0E
038E
03FE
070E
070E
0E0E
1C0E
0000
0038
0078
00DE
01C7
0181
ENDCHAR

STARTCHAR kor_B0CE
ENCODING 45262
SWIDTH 803 0
DWIDTH 16 0
BBX 16 16 0 -1
BITMAP
0000
0000
000E
FF0E
038E
03FE
070E
070E
0E0E
1C0E
0000
00EE
01FE
03B7
0773
0000
ENDCHAR

STARTCHAR kor_B0CF
ENCODING 45263
SWIDTH 803 0
DWIDTH 16 0
BBX 16 16 0 -1
BITMAP
0000
0000
000E
FF0E
038E
03FE
070E
070E
0E0E
1C0E
0000
00FC
01CE
01CE
01CE
00FC
ENDCHAR

STARTCHAR kor_B0D0
ENCODING 45264
SWIDTH 803 0
DWIDTH 16 0
BBX 16 16 0 -1
BITMAP
0000
0000
000E
FF0E
038E
03FE
070E
070E
0E0E
1C0E
0000
01FC
000E
001E
0037
0073
ENDCHAR

STARTCHAR kor_B0D1
ENCODING 45265
SWIDTH 803 0
DWIDTH 16 0
BBX 16 16 0 -1
BITMAP
0000
0000
000E
FF0E
038E
03FE
070E
070E
0E0E
1C0E
0000
01FE
00E0
00FE
00E0
007F
ENDCHAR

STARTCHAR kor_B0D2
ENCODING 45266
SWIDTH 803 0
DWIDTH 16 0
BBX 16 16 0 -1
BITMAP
0000
0000
000E
FF0E
038E
03FE
070E
070E
0E0E
1C0E
0000
01FF
00EE
00EE
00DC
01FF
ENDCHAR

STARTCHAR kor_B0D3
ENCODING 45267
SWIDTH 803 0
DWIDTH 16 0
BBX 16 16 0 -1
BITMAP
0000
0000
000E
FF0E
038E
03FE
070E
070E
0E0E
1C0E
0038
001E
00FE
003F
0077
003E
ENDCHAR

STARTCHAR kor_B0D4
ENCODING 45268
SWIDTH 803 0
DWIDTH 16 0
BBX 16 16 0 -1
BITMAP
0000
0000
0007
0037
7FB7
01B7
01B7
03F7
0737
0E37
1C37
3837
0037
0037
0037
0007
ENDCHAR

STARTCHAR kor_B0D5
ENCODING 45269
SWIDTH 803 0
DWIDTH 16 0
BBX 16 16 0 -1
BITMAP
0000
0000
0007
FF37
03B7
03F7
0737
0737
0E37
1C37
0070
0070
0071
0077
003E
0000
ENDCHAR

STARTCHAR kor_B0D6
ENCODING 45270
SWIDTH 803 0
DWIDTH 16 0
BBX 16 16 0 -1
BITMAP
0000
0000
0007
FF37
03B7
03F7
0737
0737
0E37
1C37
0000
00FC
000E
000D
000F
0007
ENDCHAR

STARTCHAR kor_B0D7
ENCODING 45271
SWIDTH 803 0
DWIDTH 16 0
BBX 16 16 0 -1
BITMAP
0000
0000
0007
FF37
03B7
03F7
0737
0737
0E37
1C37
0000
01CE
01DD
01BF
00F7
0000
ENDCHAR

STARTCHAR kor_B0D8
ENCODING 45272
SWIDTH 803 0
DWIDTH 16 0
BBX 16 16 0 -1
BITMAP
0000
0000
0007
FF37
03B7
03F7
0737
0737
0E37
1C37
01C0
01C7
01BF
01F7
01BF
00DE
ENDCHAR

STARTCHAR kor_B0D9
ENCODING 45273
SWIDTH 803 0
DWIDTH 16 0
BBX 16 16 0 -1
BITMAP
0000
0000
0007
FF37
03B7
03F7
0737
0737
0E37
1C37
0000
0038
0078
00DE
01C7
0181
ENDCHAR

STARTCHAR kor_B0DA
ENCODING 45274
SWIDTH 803 0
DWIDTH 16 0
BBX 16 16 0 -1
BITMAP
0000
0000
0007
FF37
03B7
03F7
0737
0737
0E37
1C37
0000
00EE
01FE
03B7
0773
0000
ENDCHAR

STARTCHAR kor_B0DB
ENCODING 45275
SWIDTH 803 0
DWIDTH 16 0
BBX 16 16 0 -1
BITMAP
0000
0000
0007
FF37
03B7
03F7
0737
0737
0E37
1C37
0000
00FC
01CE
01CE
01CE
00FC
ENDCHAR

STARTCHAR kor_B0DC
ENCODING 45276
SWIDTH 803 0
DWIDTH 16 0
BBX 16 16 0 -1
BITMAP
0000
0000
000E
000E
7F8E
01CE
01CE
03FE
070E
0EFE
1C0E
380E
000E
000E
000E
000E
ENDCHAR

STARTCHAR kor_B0DD
ENCODING 45277
SWIDTH 803 0
DWIDTH 16 0
BBX 16 16 0 -1
BITMAP
0000
0000
000E
FF0E
038E
03FE
070E
06FE
0E0E
1C0E
0000
01FE
0007
0007
0007
000E
ENDCHAR

STARTCHAR kor_B0DE
ENCODING 45278
SWIDTH 803 0
DWIDTH 16 0
BBX 16 16 0 -1
BITMAP
0000
0000
000E
FF0E
038E
03FE
070E
06FE
0E0E
1C0E
0000
07FE
0077
0077
00E7
01CE
ENDCHAR

STARTCHAR kor_B0DF
ENCODING 45279
SWIDTH 803 0
DWIDTH 16 0
BBX 16 16 0 -1
BITMAP
0000
0000
000E
FF0E
038E
03FE
070E
06FE
0E0E
1C0E
0070
0070
0071
0077
003E
0000
ENDCHAR

STARTCHAR kor_B0E0
ENCODING 45280
SWIDTH 803 0
DWIDTH 16 0
BBX 16 16 0 -1
BITMAP
0000
0000
000E
FF0E
038E
03FE
070E
06FE
0E0E
1C0E
0000
01FE
00E0
00E0
00E0
007F
ENDCHAR

STARTCHAR kor_B0E1
ENCODING 45281
SWIDTH 803 0
DWIDTH 16 0
BBX 16 16 0 -1
BITMAP
0000
0000
000E
FF0E
038E
03FE
070E
06FE
0E0E
1C0E
0000
00FC
000E
000D
000F
0007
ENDCHAR

STARTCHAR kor_B0E2
ENCODING 45282
SWIDTH 803 0
DWIDTH 16 0
BBX 16 16 0 -1
BITMAP
0000
0000
000E
FF0E
038E
03FE
070E
06FE
0E0E
1C0E
0000
01CE
01DD
01BF
00F7
0000
ENDCHAR

STARTCHAR kor_B0E3
ENCODING 45283
SWIDTH 803 0
DWIDTH 16 0
BBX 16 16 0 -1
BITMAP
0000
0000
000E
FF0E
038E
03FE
070E
06FE
0E0E
1C0E
01C0
01C7
01BF
01F7
01BF
00DE
ENDCHAR

STARTCHAR kor_B0E4
ENCODING 45284
SWIDTH 803 0
DWIDTH 16 0
BBX 16 16 0 -1
BITMAP
0000
0000
000E
FF0E
038E
03FE
070E
06FE
0E0E
1C0E
0000
0038
0078
00DE
01C7
0181
ENDCHAR

STARTCHAR kor_B0E5
ENCODING 45285
SWIDTH 803 0
DWIDTH 16 0
BBX 16 16 0 -1
BITMAP
0000
0000
000E
FF0E
038E
03FE
070E
06FE
0E0E
1C0E
0000
00EE
01FE
03B7
0773
0000
ENDCHAR

STARTCHAR kor_B0E6
ENCODING 45286
SWIDTH 803 0
DWIDTH 16 0
BBX 16 16 0 -1
BITMAP
0000
0000
000E
FF0E
038E
03FE
070E
06FE
0E0E
1C0E
0000
00FC
01CE
01CE
01CE
00FC
ENDCHAR

STARTCHAR kor_B0E7
ENCODING 45287
SWIDTH 803 0
DWIDTH 16 0
BBX 16 16 0 -1
BITMAP
0000
0000
000E
FF0E
038E
03FE
070E
06FE
0E0E
1C0E
0000
01FE
00E0
00FE
00E0
007F
ENDCHAR

STARTCHAR kor_B0E8
ENCODING 45288
SWIDTH 803 0
DWIDTH 16 0
BBX 16 16 0 -1
BITMAP
0000
0000
0007
0037
7FB7
01B7
01B7
03F7
0737
0EF7
1C37
3837
0037
0037
0037
0007
ENDCHAR

STARTCHAR kor_B0E9
ENCODING 45289
SWIDTH 803 0
DWIDTH 16 0
BBX 16 16 0 -1
BITMAP
0000
0000
0007
FF37
03B7
03F7
0737
06F7
0E37
1C37
0070
0070
0071
0077
003E
0000
ENDCHAR

STARTCHAR kor_B0EA
ENCODING 45290
SWIDTH 803 0
DWIDTH 16 0
BBX 16 16 0 -1
BITMAP
0000
0000
0007
FF37
03B7
03F7
0737
06F7
0E37
1C37
0000
00FC
000E
000D
000F
0007
ENDCHAR

STARTCHAR kor_B0EB
ENCODING 45291
SWIDTH 803 0
DWIDTH 16 0
BBX 16 16 0 -1
BITMAP
0000
0000
0007
FF37
03B7
03F7
0737
06F7
0E37
1C37
01C0
01C7
01BF
01F7
01BF
00DE
ENDCHAR

STARTCHAR kor_B0EC
ENCODING 45292
SWIDTH 803 0
DWIDTH 16 0
BBX 16 16 0 -1
BITMAP
0000
0000
0007
FF37
03B7
03F7
0737
06F7
0E37
1C37
0000
0038
0078
00DE
01C7
0181
ENDCHAR

STARTCHAR kor_B0ED
ENCODING 45293
SWIDTH 803 0
DWIDTH 16 0
BBX 16 16 0 -1
BITMAP
0000
0000
0000
3F80
01F0
0038
001C
001C
071C
0738
0738
0730
0700
3FFE
0000
0000
ENDCHAR

STARTCHAR kor_B0EE
ENCODING 45294
SWIDTH 803 0
DWIDTH 16 0
BBX 16 16 0 -1
BITMAP
0000
0000
1F80
01F0
0038
0038
0038
0E70
0E60
7FFF
0000
0FF8
001C
001C
001C
0038
ENDCHAR

STARTCHAR kor_B0EF
ENCODING 45295
SWIDTH 803 0
DWIDTH 16 0
BBX 16 16 0 -1
BITMAP
0000
0000
1F80
01F0
0038
0038
0038
0E70
0E60
7FFF
0E00
0E00
0E0E
0E38
07E0
0000
ENDCHAR

STARTCHAR kor_B0F0
ENCODING 45296
SWIDTH 803 0
DWIDTH 16 0
BBX 16 16 0 -1
BITMAP
0000
0000
1F80
01F0
0038
0038
0038
0E70
0E60
7FFF
0000
1FF0
0E00
0E00
0E00
07F8
ENDCHAR

STARTCHAR kor_B0F1
ENCODING 45297
SWIDTH 803 0
DWIDTH 16 0
BBX 16 16 0 -1
BITMAP
0000
0000
1F80
01F0
0038
0038
0038
0E70
0E60
7FFF
0000
0FC0
00E6
01CE
01DC
00F8
ENDCHAR

STARTCHAR kor_B0F2
ENCODING 45298
SWIDTH 803 0
DWIDTH 16 0
BBX 16 16 0 -1
BITMAP
0000
0000
1F80
01F0
0038
0038
0038
0E70
0E60
7FFF
0000
1EFC
036E
0F6E
1CEC
0F7E
ENDCHAR

STARTCHAR kor_B0F3
ENCODING 45299
SWIDTH 803 0
DWIDTH 16 0
BBX 16 16 0 -1
BITMAP
0000
0000
1F80
01F0
0038
0038
0038
0E70
0E60
7FFF
0000
1F38
03B8
0F78
1CDC
0FEE
ENDCHAR

STARTCHAR kor_B0F4
ENCODING 45300
SWIDTH 803 0
DWIDTH 16 0
BBX 16 16 0 -1
BITMAP
0000
0000
1F80
01F0
0038
0038
0038
0E70
0E60
7FFF
0038
1EFC
03BC
0F6E
1CEE
0F7C
ENDCHAR

STARTCHAR kor_B0F5
ENCODING 45301
SWIDTH 803 0
DWIDTH 16 0
BBX 16 16 0 -1
BITMAP
0000
0000
1F80
01F0
0038
0038
0038
0E70
0E60
7FFF
0000
0E70
0EEC
0DFC
07B8
0000
ENDCHAR

STARTCHAR kor_B0F6
ENCODING 45302
SWIDTH 803 0
DWIDTH 16 0
BBX 16 16 0 -1
BITMAP
0000
0000
1F80
01F0
0038
0038
0038
0E70
0E60
7FFF
0E00
0E38
0DF8
0FB8
0DF8
06F0
ENDCHAR

STARTCHAR kor_B0F7
ENCODING 45303
SWIDTH 803 0
DWIDTH 16 0
BBX 16 16 0 -1
BITMAP
0000
0000
1F80
01F0
0038
0038
0038
0E70
0E60
7FFF
0000
01C0
03C0
06F0
0E3C
0C0C
ENDCHAR

STARTCHAR kor_B0F8
ENCODING 45304
SWIDTH 803 0
DWIDTH 16 0
BBX 16 16 0 -1
BITMAP
0000
0000
1F80
01F0
0038
0038
0038
0E70
0E60
7FFF
0000
07E0
0E70
0E70
0E70
07E0
ENDCHAR

STARTCHAR kor_B0F9
ENCODING 45305
SWIDTH 803 0
DWIDTH 16 0
BBX 16 16 0 -1
BITMAP
0000
0000
1F80
01F0
0038
0038
0038
0E70
0E60
7FFF
0000
0FE0
0070
00F0
01B8
039C
ENDCHAR

STARTCHAR kor_B0FA
ENCODING 45306
SWIDTH 803 0
DWIDTH 16 0
BBX 16 16 0 -1
BITMAP
0000
0000
0000
0000
7E1C
071C
039C
03BF
03BC
377C
38DC
39DC
379C
1E1C
001C
001C
ENDCHAR

STARTCHAR kor_B0FB
ENCODING 45307
SWIDTH 803 0
DWIDTH 16 0
BBX 16 16 0 -1
BITMAP
0000
7E00
071C
039C
039C
03BF
3B7C
38DC
39DC
379C
1E1C
03FC
000E
000E
000E
001C
ENDCHAR

STARTCHAR kor_B0FC
ENCODING 45308
SWIDTH 803 0
DWIDTH 16 0
BBX 16 16 0 -1
BITMAP
0000
7E00
071C
039C
039C
03BF
3B7C
38DC
39DC
379C
1EDC
00E0
00E3
00EF
007C
0000
ENDCHAR

STARTCHAR kor_B0FD
ENCODING 45309
SWIDTH 803 0
DWIDTH 16 0
BBX 16 16 0 -1
BITMAP
0000
7E00
071C
039C
039C
03BF
3B7C
38DC
39DC
379C
1E1C
01F8
001D
001B
001B
000E
ENDCHAR

STARTCHAR kor_B0FE
ENCODING 45310
SWIDTH 803 0
DWIDTH 16 0
BBX 16 16 0 -1
BITMAP
0000
7E00
071C
039C
039C
03BF
3B7C
38DC
39DC
379C
1E1C
0F7E
01B7
07B7
0E76
07BF
ENDCHAR

STARTCHAR kor_B1A1
ENCODING 45473
SWIDTH 803 0
DWIDTH 16 0
BBX 16 16 0 -1
BITMAP
0000
7E00
071C
039C
039C
03BF
3B7C
38DC
39DC
379C
1E1C
039C
03BB
037F
01EE
0000
ENDCHAR

STARTCHAR kor_B1A2
ENCODING 45474
SWIDTH 803 0
DWIDTH 16 0
BBX 16 16 0 -1
BITMAP
0000
7E00
071C
039C
039C
03BF
3B7C
38DC
39DC
379C
1F9C
038E
037E
03EE
037E
01BC
ENDCHAR

STARTCHAR kor_B1A3
ENCODING 45475
SWIDTH 803 0
DWIDTH 16 0
BBX 16 16 0 -1
BITMAP
0000
7E00
071C
039C
039C
03BF
3B7C
38DC
39DC
379C
1E1C
0070
00F0
01BC
038F
0303
ENDCHAR

STARTCHAR kor_B1A4
ENCODING 45476
SWIDTH 803 0
DWIDTH 16 0
BBX 16 16 0 -1
BITMAP
0000
7E00
071C
039C
039C
03BF
3B7C
38DC
39DC
379C
1E1C
01F8
039C
039C
039C
01F8
ENDCHAR

STARTCHAR kor_B1A5
ENCODING 45477
SWIDTH 803 0
DWIDTH 16 0
BBX 16 16 0 -1
BITMAP
0000
0000
0000
0000
7E07
0737
03B7
03BF
03B7
3777
38F7
39B7
37B7
1E37
0037
0007
ENDCHAR

STARTCHAR kor_B1A6
ENCODING 45478
SWIDTH 803 0
DWIDTH 16 0
BBX 16 16 0 -1
BITMAP
0000
7E00
0707
03B7
03B7
03BF
3B37
3877
39B7
37B7
1E77
0070
0071
0077
003E
0000
ENDCHAR

STARTCHAR kor_B1A7
ENCODING 45479
SWIDTH 803 0
DWIDTH 16 0
BBX 16 16 0 -1
BITMAP
0000
7E00
0707
03B7
03B7
03BF
3B37
3877
39B7
37B7
1E07
00FC
000E
000D
000F
0007
ENDCHAR

STARTCHAR kor_B1A8
ENCODING 45480
SWIDTH 803 0
DWIDTH 16 0
BBX 16 16 0 -1
BITMAP
0000
7E00
0707
03B7
03B7
03BF
3B37
3877
39B7
37B7
1DC7
01C7
01BF
01F7
01BF
00DE
ENDCHAR

STARTCHAR kor_B1A9
ENCODING 45481
SWIDTH 803 0
DWIDTH 16 0
BBX 16 16 0 -1
BITMAP
0000
7E00
0707
03B7
03B7
03BF
3B37
3877
39B7
37B7
1E07
00EE
01FE
03B7
0773
0000
ENDCHAR

STARTCHAR kor_B1AA
ENCODING 45482
SWIDTH 803 0
DWIDTH 16 0
BBX 16 16 0 -1
BITMAP
0000
7E00
0707
03B7
03B7
03BF
3B37
3877
39B7
37B7
1E07
00FC
01CE
01CE
01CE
00FC
ENDCHAR

STARTCHAR kor_B1AB
ENCODING 45483
SWIDTH 803 0
DWIDTH 16 0
BBX 16 16 0 -1
BITMAP
0000
0000
0000
0000
7E0E
070E
038E
039E
03BE
376E
38EE
39CE
378E
1E0E
000E
000E
ENDCHAR

STARTCHAR kor_B1AC
ENCODING 45484
SWIDTH 803 0
DWIDTH 16 0
BBX 16 16 0 -1
BITMAP
0000
7E00
070E
038E
038E
039E
3B3E
386E
38EE
378E
1E0E
01FE
0007
0007
0007
000E
ENDCHAR

STARTCHAR kor_B1AD
ENCODING 45485
SWIDTH 803 0
DWIDTH 16 0
BBX 16 16 0 -1
BITMAP
0000
7E00
070E
038E
038E
039E
3B3E
386E
38EE
378E
1E6E
0070
0071
0077
003E
0000
ENDCHAR

STARTCHAR kor_B1AE
ENCODING 45486
SWIDTH 803 0
DWIDTH 16 0
BBX 16 16 0 -1
BITMAP
0000
7E00
070E
038E
038E
039E
3B3E
386E
38EE
378E
1E0E
00FC
000E
000D
000F
0007
ENDCHAR

STARTCHAR kor_B1AF
ENCODING 45487
SWIDTH 803 0
DWIDTH 16 0
BBX 16 16 0 -1
BITMAP
0000
7E00
070E
038E
038E
039E
3B3E
386E
38EE
378E
1E0E
01CE
01DD
01BF
00F7
0000
ENDCHAR

STARTCHAR kor_B1B0
ENCODING 45488
SWIDTH 803 0
DWIDTH 16 0
BBX 16 16 0 -1
BITMAP
0000
7E00
070E
038E
038E
039E
3B3E
386E
38EE
378E
1DCE
01C7
01BF
01F7
01BF
00DE
ENDCHAR

STARTCHAR kor_B1B1
ENCODING 45489
SWIDTH 803 0
DWIDTH 16 0
BBX 16 16 0 -1
BITMAP
0000
7E00
070E
038E
038E
039E
3B3E
386E
38EE
378E
1E0E
0038
0078
00DE
01C7
0181
ENDCHAR

STARTCHAR kor_B1B2
ENCODING 45490
SWIDTH 803 0
DWIDTH 16 0
BBX 16 16 0 -1
BITMAP
0000
7E00
070E
038E
038E
039E
3B3E
386E
38EE
378E
1E0E
00FC
01CE
01CE
01CE
00FC
ENDCHAR

STARTCHAR kor_B1B3
ENCODING 45491
SWIDTH 803 0
DWIDTH 16 0
BBX 16 16 0 -1
BITMAP
0000
0000
0000
3F80
01F0
0038
001C
1DDC
1DDC
1DB8
1DB8
1DB0
1D80
3FFE
0000
0000
ENDCHAR

STARTCHAR kor_B1B4
ENCODING 45492
SWIDTH 803 0
DWIDTH 16 0
BBX 16 16 0 -1
BITMAP
0000
0000
1F80
01F0
0038
0038
1BB8
1B70
1B60
7FFF
0E00
0E00
0E0E
0E38
07E0
0000
ENDCHAR

STARTCHAR kor_B1B5
ENCODING 45493
SWIDTH 803 0
DWIDTH 16 0
BBX 16 16 0 -1
BITMAP
0000
0000
1F80
01F0
0038
0038
1BB8
1B70
1B60
7FFF
0000
0FC0
00E6
01CE
01DC
00F8
ENDCHAR

STARTCHAR kor_B1B6
ENCODING 45494
SWIDTH 803 0
DWIDTH 16 0
BBX 16 16 0 -1
BITMAP
0000
0000
1F80
01F0
0038
0038
1BB8
1B70
1B60
7FFF
0E00
0E38
0DF8
0FB8
0DF8
06F0
ENDCHAR

STARTCHAR kor_B1B7
ENCODING 45495
SWIDTH 803 0
DWIDTH 16 0
BBX 16 16 0 -1
BITMAP
0000
0000
1F80
01F0
0038
0038
1BB8
1B70
1B60
7FFF
0000
01C0
03C0
06F0
0E3C
0C0C
ENDCHAR

STARTCHAR kor_B1B8
ENCODING 45496
SWIDTH 803 0
DWIDTH 16 0
BBX 16 16 0 -1
BITMAP
0000
0F80
01F0
0038
001C
001C
0038
0070
7FFF
01C0
01C0
01C0
01C0
01C0
01C0
01C0
ENDCHAR

STARTCHAR kor_B1B9
ENCODING 45497
SWIDTH 803 0
DWIDTH 16 0
BBX 16 16 0 -1
BITMAP
0000
0000
0FC0
00F0
0038
0038
0070
7FFF
01C0
01C0
01C0
0FF8
001C
001C
001C
0038
ENDCHAR

STARTCHAR kor_B1BA
ENCODING 45498
SWIDTH 803 0
DWIDTH 16 0
BBX 16 16 0 -1
BITMAP
0000
0000
0FC0
00F0
0038
0038
0070
7FFF
01C0
01C0
0DC0
0E00
0E0E
0E38
07E0
0000
ENDCHAR

STARTCHAR kor_B1BB
ENCODING 45499
SWIDTH 803 0
DWIDTH 16 0
BBX 16 16 0 -1
BITMAP
0000
0000
0FC0
00F0
0038
0038
0070
7FFF
01C0
01C0
01C0
1FF0
0E00
0E00
0E00
07F8
ENDCHAR

STARTCHAR kor_B1BC
ENCODING 45500
SWIDTH 803 0
DWIDTH 16 0
BBX 16 16 0 -1
BITMAP
0000
0000
0FC0
00F0
0038
0038
0070
7FFF
01C0
01C0
01C0
0FC0
00E6
01CE
01DC
00F8
ENDCHAR

STARTCHAR kor_B1BD
ENCODING 45501
SWIDTH 803 0
DWIDTH 16 0
BBX 16 16 0 -1
BITMAP
0000
0000
0FC0
00F0
0038
0038
0070
7FFF
01C0
01C0
01C0
1EF8
039C
0F1C
1CDC
0F98
ENDCHAR

STARTCHAR kor_B1BE
ENCODING 45502
SWIDTH 803 0
DWIDTH 16 0
BBX 16 16 0 -1
BITMAP
0000
0000
0FC0
00F0
0038
0038
0070
7FFF
01C0
01C0
01C0
1EFC
036E
0F6E
1CEC
0F7E
ENDCHAR

STARTCHAR kor_B1BF
ENCODING 45503
SWIDTH 803 0
DWIDTH 16 0
BBX 16 16 0 -1
BITMAP
0000
0000
0FC0
00F0
0038
0038
0070
7FFF
01C0
01C0
01B8
1EFC
03BC
0F6E
1CEE
0F7C
ENDCHAR

STARTCHAR kor_B1C0
ENCODING 45504
SWIDTH 803 0
DWIDTH 16 0
BBX 16 16 0 -1
BITMAP
0000
0000
0FC0
00F0
0038
0038
0070
7FFF
01C0
01C0
01C0
0E70
0EEC
0DFC
07B8
0000
ENDCHAR

STARTCHAR kor_B1C1
ENCODING 45505
SWIDTH 803 0
DWIDTH 16 0
BBX 16 16 0 -1
BITMAP
0000
0000
0FC0
00F0
0038
0038
0070
7FFF
01C0
01C0
0DC0
0E38
0DF8
0FB8
0DF8
06F0
ENDCHAR

STARTCHAR kor_B1C2
ENCODING 45506
SWIDTH 803 0
DWIDTH 16 0
BBX 16 16 0 -1
BITMAP
0000
0000
0FC0
00F0
0038
0038
0070
7FFF
01C0
01C0
01C0
01C0
03C0
06F0
0E3C
0C0C
ENDCHAR

STARTCHAR kor_B1C3
ENCODING 45507
SWIDTH 803 0
DWIDTH 16 0
BBX 16 16 0 -1
BITMAP
0000
0000
0FC0
00F0
0038
0038
0070
7FFF
01C0
01C0
01C0
07E0
0E70
0E70
0E70
07E0
ENDCHAR

STARTCHAR kor_B1C4
ENCODING 45508
SWIDTH 803 0
DWIDTH 16 0
BBX 16 16 0 -1
BITMAP
0000
0000
0FC0
00F0
0038
0038
0070
7FFF
01C0
01C0
01C0
0FE0
0070
00F0
01B8
039C
ENDCHAR

STARTCHAR kor_B1C5
ENCODING 45509
SWIDTH 803 0
DWIDTH 16 0
BBX 16 16 0 -1
BITMAP
0000
0000
0000
0000
3E0E
078E
01CE
01CE
038E
7F8E
01CE
01FE
038E
038E
070E
070E
ENDCHAR

STARTCHAR kor_B1C6
ENCODING 45510
SWIDTH 803 0
DWIDTH 16 0
BBX 16 16 0 -1
BITMAP
0000
3C00
0F0E
038E
038E
070E
000E
7F8E
01FE
078E
0E0E
01FE
0007
0007
0007
000E
ENDCHAR

STARTCHAR kor_B1C7
ENCODING 45511
SWIDTH 803 0
DWIDTH 16 0
BBX 16 16 0 -1
BITMAP
0000
3C00
0F0E
038E
038E
070E
000E
7F8E
01FE
078E
0E6E
0070
0071
0077
003E
0000
ENDCHAR

STARTCHAR kor_B1C8
ENCODING 45512
SWIDTH 803 0
DWIDTH 16 0
BBX 16 16 0 -1
BITMAP
0000
3C00
0F0E
038E
038E
070E
000E
7F8E
01FE
078E
0E0E
00FC
000E
000D
000F
0007
ENDCHAR

STARTCHAR kor_B1C9
ENCODING 45513
SWIDTH 803 0
DWIDTH 16 0
BBX 16 16 0 -1
BITMAP
0000
3C00
0F0E
038E
038E
070E
000E
7F8E
01FE
078E
0E0E
00EE
01FE
03B7
0773
0000
ENDCHAR

STARTCHAR kor_B1CA
ENCODING 45514
SWIDTH 803 0
DWIDTH 16 0
BBX 16 16 0 -1
BITMAP
0000
3C00
0F0E
038E
038E
070E
000E
7F8E
01FE
078E
0E0E
00FC
01CE
01CE
01CE
00FC
ENDCHAR

STARTCHAR kor_B1CB
ENCODING 45515
SWIDTH 803 0
DWIDTH 16 0
BBX 16 16 0 -1
BITMAP
0000
0000
0007
0037
3E37
07B7
01B7
01B7
03B7
7FB7
01B7
01F7
03B7
03B7
0737
0707
ENDCHAR

STARTCHAR kor_B1CC
ENCODING 45516
SWIDTH 803 0
DWIDTH 16 0
BBX 16 16 0 -1
BITMAP
0000
3C07
0F37
03B7
03B7
0737
0037
7FB7
01F7
07B7
0E07
0038
0078
00DE
01C7
0181
ENDCHAR

STARTCHAR kor_B1CD
ENCODING 45517
SWIDTH 803 0
DWIDTH 16 0
BBX 16 16 0 -1
BITMAP
0000
0000
0000
0000
3E0E
078E
01CE
01CE
038E
7F8E
01CE
01CE
038E
038E
070E
070E
ENDCHAR

STARTCHAR kor_B1CE
ENCODING 45518
SWIDTH 803 0
DWIDTH 16 0
BBX 16 16 0 -1
BITMAP
0000
3C00
0F0E
038E
038E
070E
000E
7F8E
01CE
078E
0E0E
01FE
0007
0007
0007
000E
ENDCHAR

STARTCHAR kor_B1CF
ENCODING 45519
SWIDTH 803 0
DWIDTH 16 0
BBX 16 16 0 -1
BITMAP
0000
3C00
0F0E
038E
038E
070E
000E
7F8E
01CE
078E
0E6E
0070
0071
0077
003E
0000
ENDCHAR

STARTCHAR kor_B1D0
ENCODING 45520
SWIDTH 803 0
DWIDTH 16 0
BBX 16 16 0 -1
BITMAP
0000
3C00
0F0E
038E
038E
070E
000E
7F8E
01CE
078E
0E0E
00FC
000E
000D
000F
0007
ENDCHAR

STARTCHAR kor_B1D1
ENCODING 45521
SWIDTH 803 0
DWIDTH 16 0
BBX 16 16 0 -1
BITMAP
0000
3C00
0F0E
038E
038E
070E
000E
7F8E
01CE
078E
0E0E
01CE
01DD
01BF
00F7
0000
ENDCHAR

STARTCHAR kor_B1D2
ENCODING 45522
SWIDTH 803 0
DWIDTH 16 0
BBX 16 16 0 -1
BITMAP
0000
3C00
0F0E
038E
038E
070E
000E
7F8E
01CE
078E
0DCE
01C7
01BF
01F7
01BF
00DE
ENDCHAR

STARTCHAR kor_B1D3
ENCODING 45523
SWIDTH 803 0
DWIDTH 16 0
BBX 16 16 0 -1
BITMAP
0000
3C00
0F0E
038E
038E
070E
000E
7F8E
01CE
078E
0E0E
0038
0078
00DE
01C7
0181
ENDCHAR

STARTCHAR kor_B1D4
ENCODING 45524
SWIDTH 803 0
DWIDTH 16 0
BBX 16 16 0 -1
BITMAP
0000
0F80
01F0
0038
001C
001C
0038
0070
7FFF
0770
0770
0770
0770
0770
0770
0070
ENDCHAR

STARTCHAR kor_B1D5
ENCODING 45525
SWIDTH 803 0
DWIDTH 16 0
BBX 16 16 0 -1
BITMAP
0000
0000
0FC0
00F0
0038
0038
0070
7FFF
0770
0770
0F70
0F70
0E0E
0E38
07E0
0000
ENDCHAR

STARTCHAR kor_B1D6
ENCODING 45526
SWIDTH 803 0
DWIDTH 16 0
BBX 16 16 0 -1
BITMAP
0000
0000
0FC0
00F0
0038
0038
0070
7FFF
0770
0770
0770
0FF0
00E6
01CE
01DC
00F8
ENDCHAR

STARTCHAR kor_B1D7
ENCODING 45527
SWIDTH 803 0
DWIDTH 16 0
BBX 16 16 0 -1
BITMAP
0000
0000
0000
3F80
01F0
0038
001C
001C
001C
0038
0038
0030
0000
3FFE
0000
0000
ENDCHAR

STARTCHAR kor_B1D8
ENCODING 45528
SWIDTH 803 0
DWIDTH 16 0
BBX 16 16 0 -1
BITMAP
0000
0000
1F80
01F0
0038
0038
0038
0070
0060
7FFF
0000
0FF8
001C
001C
001C
0038
ENDCHAR

STARTCHAR kor_B1D9
ENCODING 45529
SWIDTH 803 0
DWIDTH 16 0
BBX 16 16 0 -1
BITMAP
0000
0000
1F80
01F0
0038
0038
0038
0070
0060
7FFF
0E00
0E00
0E0E
0E38
07E0
0000
ENDCHAR

STARTCHAR kor_B1DA
ENCODING 45530
SWIDTH 803 0
DWIDTH 16 0
BBX 16 16 0 -1
BITMAP
0000
0000
1F80
01F0
0038
0038
0038
0070
0060
7FFF
0000
1FF0
0E00
0E00
0E00
07F8
ENDCHAR

STARTCHAR kor_B1DB
ENCODING 45531
SWIDTH 803 0
DWIDTH 16 0
BBX 16 16 0 -1
BITMAP
0000
0000
1F80
01F0
0038
0038
0038
0070
0060
7FFF
0000
0FC0
00E6
01CE
01DC
00F8
ENDCHAR

STARTCHAR kor_B1DC
ENCODING 45532
SWIDTH 803 0
DWIDTH 16 0
BBX 16 16 0 -1
BITMAP
0000
0000
1F80
01F0
0038
0038
0038
0070
0060
7FFF
0000
1EF8
039C
0F1C
1CDC
0F98
ENDCHAR

STARTCHAR kor_B1DD
ENCODING 45533
SWIDTH 803 0
DWIDTH 16 0
BBX 16 16 0 -1
BITMAP
0000
0000
1F80
01F0
0038
0038
0038
0070
0060
7FFF
0000
0E70
0EEC
0DFC
07B8
0000
ENDCHAR

STARTCHAR kor_B1DE
ENCODING 45534
SWIDTH 803 0
DWIDTH 16 0
BBX 16 16 0 -1
BITMAP
0000
0000
1F80
01F0
0038
0038
0038
0070
0060
7FFF
0E00
0E38
0DF8
0FB8
0DF8
06F0
ENDCHAR

STARTCHAR kor_B1DF
ENCODING 45535
SWIDTH 803 0
DWIDTH 16 0
BBX 16 16 0 -1
BITMAP
0000
0000
1F80
01F0
0038
0038
0038
0070
0060
7FFF
0000
01C0
03C0
06F0
0E3C
0C0C
ENDCHAR

STARTCHAR kor_B1E0
ENCODING 45536
SWIDTH 803 0
DWIDTH 16 0
BBX 16 16 0 -1
BITMAP
0000
0000
1F80
01F0
0038
0038
0038
0070
0060
7FFF
0000
07E0
0E70
0E70
0E70
07E0
ENDCHAR

STARTCHAR kor_B1E1
ENCODING 45537
SWIDTH 803 0
DWIDTH 16 0
BBX 16 16 0 -1
BITMAP
0000
0000
0000
0000
3E0E
078E
01CE
01CE
038E
000E
000E
03FE
7F0E
000E
000E
000E
ENDCHAR

STARTCHAR kor_B1E2
ENCODING 45538
SWIDTH 803 0
DWIDTH 16 0
BBX 16 16 0 -1
BITMAP
0000
0000
000E
000E
7F8E
01CE
01CE
038E
070E
0E0E
1C0E
380E
000E
000E
000E
000E
ENDCHAR

STARTCHAR kor_B1E3
ENCODING 45539
SWIDTH 803 0
DWIDTH 16 0
BBX 16 16 0 -1
BITMAP
0000
0000
001C
FF1C
039C
039C
071C
071C
0E1C
1C1C
0000
01FE
0007
0007
0007
000E
ENDCHAR

STARTCHAR kor_B1E4
ENCODING 45540
SWIDTH 803 0
DWIDTH 16 0
BBX 16 16 0 -1
BITMAP
0000
0000
001C
FF1C
039C
039C
071C
071C
0E1C
1C1C
0070
0070
0071
0077
003E
0000
ENDCHAR

STARTCHAR kor_B1E5
ENCODING 45541
SWIDTH 803 0
DWIDTH 16 0
BBX 16 16 0 -1
BITMAP
0000
0000
001C
FF1C
039C
039C
071C
071C
0E1C
1C1C
0000
01FE
00E0
00E0
00E0
007F
ENDCHAR

STARTCHAR kor_B1E6
ENCODING 45542
SWIDTH 803 0
DWIDTH 16 0
BBX 16 16 0 -1
BITMAP
0000
0000
001C
FF1C
039C
039C
071C
071C
0E1C
1C1C
0000
00FC
000E
000D
000F
0007
ENDCHAR

STARTCHAR kor_B1E7
ENCODING 45543
SWIDTH 803 0
DWIDTH 16 0
BBX 16 16 0 -1
BITMAP
0000
0000
001C
FF1C
039C
039C
071C
071C
0E1C
1C1C
0000
07BF
00DB
03DB
073B
03DF
ENDCHAR

STARTCHAR kor_B1E8
ENCODING 45544
SWIDTH 803 0
DWIDTH 16 0
BBX 16 16 0 -1
BITMAP
0000
0000
001C
FF1C
039C
039C
071C
071C
0E1C
1C1C
0000
01CE
01DD
01BF
00F7
0000
ENDCHAR

STARTCHAR kor_B1E9
ENCODING 45545
SWIDTH 803 0
DWIDTH 16 0
BBX 16 16 0 -1
BITMAP
0000
0000
001C
FF1C
039C
039C
071C
071C
0E1C
1C1C
01C0
01C7
01BF
01F7
01BF
00DE
ENDCHAR

STARTCHAR kor_B1EA
ENCODING 45546
SWIDTH 803 0
DWIDTH 16 0
BBX 16 16 0 -1
BITMAP
0000
0000
001C
FF1C
039C
039C
071C
071C
0E1C
1C1C
0000
0038
0078
00DE
01C7
0181
ENDCHAR

STARTCHAR kor_B1EB
ENCODING 45547
SWIDTH 803 0
DWIDTH 16 0
BBX 16 16 0 -1
BITMAP
0000
0000
001C
FF1C
039C
039C
071C
071C
0E1C
1C1C
0000
00FC
01CE
01CE
01CE
00FC
ENDCHAR

STARTCHAR kor_B1EC
ENCODING 45548
SWIDTH 803 0
DWIDTH 16 0
BBX 16 16 0 -1
BITMAP
0000
0000
001C
FF1C
039C
039C
071C
071C
0E1C
1C1C
0000
01FC
000E
001E
0037
0073
ENDCHAR

STARTCHAR kor_B1ED
ENCODING 45549
SWIDTH 803 0
DWIDTH 16 0
BBX 16 16 0 -1
BITMAP
0000
0000
001C
FF1C
039C
039C
071C
071C
0E1C
1C1C
0000
01FF
00EE
00EE
00DC
01FF
ENDCHAR

STARTCHAR kor_B1EE
ENCODING 45550
SWIDTH 803 0
DWIDTH 16 0
BBX 16 16 0 -1
BITMAP
0000
0000
001C
001C
001C
FF9C
1DDC
1DDF
1DDC
3B9C
3B9C
771C
001C
001C
001C
001C
ENDCHAR

STARTCHAR kor_B1EF
ENCODING 45551
SWIDTH 803 0
DWIDTH 16 0
BBX 16 16 0 -1
BITMAP
0000
0000
001C
FF9C
1DDC
1DDF
1DDC
3B9C
3B9C
771C
0000
03FC
000E
000E
000E
001C
ENDCHAR

STARTCHAR kor_B1F0
ENCODING 45552
SWIDTH 803 0
DWIDTH 16 0
BBX 16 16 0 -1
BITMAP
0000
0000
001C
FF9C
1DDC
1DDF
1DDC
3B9C
3B9C
771C
0000
0FFC
00EE
00EE
01CE
039C
ENDCHAR

STARTCHAR kor_B1F1
ENCODING 45553
SWIDTH 803 0
DWIDTH 16 0
BBX 16 16 0 -1
BITMAP
0000
0000
001C
FF9C
1DDC
1DDF
1DDC
3B9C
3B9C
771C
00E0
00E0
00E3
00EF
007C
0000
ENDCHAR

STARTCHAR kor_B1F2
ENCODING 45554
SWIDTH 803 0
DWIDTH 16 0
BBX 16 16 0 -1
BITMAP
0000
0000
001C
FF9C
1DDC
1DDF
1DDC
3B9C
3B9C
771C
0000
01F8
001D
001B
001B
000E
ENDCHAR

STARTCHAR kor_B1F3
ENCODING 45555
SWIDTH 803 0
DWIDTH 16 0
BBX 16 16 0 -1
BITMAP
0000
0000
001C
FF9C
1DDC
1DDF
1DDC
3B9C
3B9C
771C
0000
0F7E
01B7
07B7
0E76
07BF
ENDCHAR

STARTCHAR kor_B1F4
ENCODING 45556
SWIDTH 803 0
DWIDTH 16 0
BBX 16 16 0 -1
BITMAP
0000
0000
001C
FF9C
1DDC
1DDF
1DDC
3B9C
3B9C
771C
0000
039C
03BB
037F
01EE
0000
ENDCHAR

STARTCHAR kor_B1F5
ENCODING 45557
SWIDTH 803 0
DWIDTH 16 0
BBX 16 16 0 -1
BITMAP
0000
0000
001C
FF9C
1DDC
1DDF
1DDC
3B9C
3B9C
771C
0380
038E
037E
03EE
037E
01BC
ENDCHAR

STARTCHAR kor_B1F6
ENCODING 45558
SWIDTH 803 0
DWIDTH 16 0
BBX 16 16 0 -1
BITMAP
0000
0000
001C
FF9C
1DDC
1DDF
1DDC
3B9C
3B9C
771C
0000
0070
00F0
01BC
038F
0303
ENDCHAR

STARTCHAR kor_B1F7
ENCODING 45559
SWIDTH 803 0
DWIDTH 16 0
BBX 16 16 0 -1
BITMAP
0000
0000
001C
FF9C
1DDC
1DDF
1DDC
3B9C
3B9C
771C
0000
01DC
03FC
076E
0EE7
0000
ENDCHAR

STARTCHAR kor_B1F8
ENCODING 45560
SWIDTH 803 0
DWIDTH 16 0
BBX 16 16 0 -1
BITMAP
0000
0000
001C
FF9C
1DDC
1DDF
1DDC
3B9C
3B9C
771C
0000
01F8
039C
039C
039C
01F8
ENDCHAR

STARTCHAR kor_B1F9
ENCODING 45561
SWIDTH 803 0
DWIDTH 16 0
BBX 16 16 0 -1
BITMAP
0000
0000
001C
FF9C
1DDC
1DDF
1DDC
3B9C
3B9C
771C
0000
03FC
01C0
01FC
01C0
00FE
ENDCHAR

STARTCHAR kor_B1FA
ENCODING 45562
SWIDTH 803 0
DWIDTH 16 0
BBX 16 16 0 -1
BITMAP
0000
0000
0007
0037
0037
FFB7
1DB7
1DBF
1DB7
3BB7
3BB7
7737
0037
0037
0037
0007
ENDCHAR

STARTCHAR kor_B1FB
ENCODING 45563
SWIDTH 803 0
DWIDTH 16 0
BBX 16 16 0 -1
BITMAP
0000
0000
0007
FFB7
1DB7
1DBF
1DB7
3BB7
3BB7
7737
0000
01FE
0007
0007
0007
000E
ENDCHAR

ENDFONT
